<svg xmlns="http://www.w3.org/2000/svg" aria-hidden="true" style="position:absolute;width:0;height:0;overflow:hidden"><defs><symbol id="icon-telegram" viewBox="0 0 32 32"><path d="M29.609 3.274c-.155-.134-.343-.223-.545-.257s-.409-.013-.6.061L3.131 12.992a1.78 1.78 0 0 0-1.126 1.814 1.774 1.774 0 0 0 1.43 1.587l6.564 1.289v7.319a1.991 1.991 0 0 0 1.25 1.854 1.988 1.988 0 0 0 2.189-.466l3.165-3.283 5.021 4.395a1.986 1.986 0 0 0 1.939.401 1.985 1.985 0 0 0 1.334-1.454l5.074-22.073a1.126 1.126 0 0 0-.361-1.102zm-7.642 4.5-11.199 8.02-6.2-1.216 17.399-6.804zM11.999 25v-5.935l3.099 2.717L11.999 25zm10.942 1-10.335-9.063L27.481 6.276 22.941 26z"/></symbol><symbol id="icon-ticket-blank" viewBox="0 0 32 32"><path d="M30 13.75a.75.75 0 0 0 .75-.75V8a.75.75 0 0 0-.75-.75H2a.75.75 0 0 0-.75.75v5c0 .414.336.75.75.75a2.25 2.25 0 1 1 0 4.5.75.75 0 0 0-.75.75v5c0 .414.336.75.75.75h28a.75.75 0 0 0 .75-.75v-5a.75.75 0 0 0-.75-.75 2.25 2.25 0 1 1 0-4.5zm-.75 5.924v3.576H2.75v-3.576c1.724-.361 3-1.869 3-3.674s-1.276-3.313-2.975-3.67l-.024-.004V8.75h26.5v3.576c-1.724.361-3 1.869-3 3.674s1.276 3.313 2.975 3.67l.024.004z"/></symbol><symbol id="icon-x" viewBox="0 0 32 32"><path stroke-linecap="round" stroke-linejoin="round" stroke-width="1.6" d="M24 8 8 24M8 8l16 16"/></symbol><symbol id="icon-menu" viewBox="0 0 32 32"><path stroke-linecap="round" stroke-linejoin="round" stroke-width="1.6" d="M6.666 22.667h10.667M6.666 16h18.667M14.666 9.333h10.667"/></symbol><symbol id="icon-Arrow-1" viewBox="0 0 195 32"><path d="M193.415 17.414c.78-.781.78-2.047 0-2.829L180.687 1.857a2 2 0 0 0-2.829 2.828l11.315 11.314-11.315 11.314a2 2 0 0 0 2.829 2.828l12.728-12.728zM0 18h192v-4H0v4z"/></symbol><symbol id="icon-Arrow-2" viewBox="0 0 195 32"><path d="M1.252 14.586a2 2 0 0 0 0 2.828L13.98 30.142a2 2 0 1 0 2.828-2.828L5.494 16 16.808 4.686a2 2 0 1 0-2.828-2.828L1.252 14.586zM194.667 14h-192v4h192v-4z"/></symbol><symbol id="icon-directions_bus" viewBox="0 0 32 32"><path d="M9.385 26.667c-.189 0-.347-.064-.475-.192s-.192-.286-.192-.475v-2.528c-.434-.188-.885-.589-1.351-1.201s-.7-1.318-.7-2.117V8c0-1.383.749-2.396 2.246-3.037S12.772 4 16 4c3.344 0 5.736.308 7.175.925S25.334 6.567 25.334 8v12.154c0 .798-.233 1.504-.7 2.117s-.917 1.013-1.351 1.201V26c0 .189-.064.347-.192.475s-.286.192-.475.192h-.308c-.189 0-.347-.064-.475-.192s-.192-.286-.192-.475v-2H10.359v2c0 .189-.064.347-.192.475s-.286.192-.475.192h-.308zM8 14.667h16V8.718H8v5.949zm3.339 6.154c.415 0 .765-.145 1.052-.436s.429-.643.429-1.058-.145-.765-.435-1.052c-.29-.286-.643-.429-1.058-.429s-.765.145-1.052.436c-.286.29-.429.643-.429 1.058s.145.765.435 1.052c.29.286.643.429 1.058.429zm9.334 0c.415 0 .765-.145 1.052-.436s.429-.643.429-1.058-.145-.765-.436-1.052c-.29-.286-.643-.429-1.058-.429s-.765.145-1.052.436c-.286.29-.429.643-.429 1.058s.145.765.436 1.052c.29.286.643.429 1.058.429zM8.138 7.385h15.754c-.231-.685-.943-1.199-2.137-1.54s-3.107-.512-5.74-.512c-2.617 0-4.523.173-5.717.519s-1.914.857-2.16 1.532zm2.529 15.282h10.667c.733 0 1.361-.261 1.883-.783s.783-1.15.783-1.883v-4H8v4c0 .733.261 1.361.783 1.883s1.15.783 1.883.783z"/></symbol><symbol id="icon-face" viewBox="0 0 32 32"><path d="M12 21.667c-.467 0-.861-.161-1.183-.483s-.483-.717-.483-1.183c0-.467.161-.861.483-1.183s.717-.483 1.183-.483c.467 0 .861.161 1.183.483s.483.717.483 1.183c0 .467-.161.861-.483 1.183s-.717.483-1.183.483zm8 0c-.467 0-.861-.161-1.183-.483s-.483-.717-.483-1.183.161-.861.483-1.183c.322-.322.717-.483 1.183-.483s.861.161 1.183.483c.322.322.483.717.483 1.183s-.161.861-.483 1.183a1.61 1.61 0 0 1-1.183.483zm-4 7.666c2.978 0 5.5-1.033 7.567-3.1s3.1-4.589 3.1-7.567c0-.533-.033-1.05-.1-1.55s-.189-.983-.367-1.45c-.467.111-.933.194-1.4.25s-.955.083-1.467.083c-2.022 0-3.933-.433-5.733-1.3s-3.333-2.078-4.6-3.633c-.711 1.733-1.728 3.239-3.05 4.517s-2.861 2.239-4.617 2.883v.2c0 2.978 1.033 5.5 3.1 7.567s4.589 3.1 7.567 3.1zm-3.056-20.91c1.087 2.171 2.623 3.754 4.608 4.75s3.912 1.494 5.782 1.494c.414 0 .821-.021 1.221-.063s.798-.111 1.195-.206c-.848-1.983-2.161-3.545-3.941-4.686S18.094 8 16.001 8c-.585 0-1.12.034-1.605.101s-.969.175-1.451.322zm-7.428 8.518c1.373-.61 2.763-1.61 4.172-3s2.23-3.137 2.464-5.241c-1.783.679-3.259 1.747-4.428 3.205s-1.905 3.137-2.208 5.036zm-.949-1.662c.485-1.776 1.337-3.341 2.555-4.696s2.689-2.36 4.414-3.017c-.48-.603-1.076-1.092-1.787-1.467s-1.496-.562-2.355-.562c-1.481 0-2.733.512-3.756 1.537s-1.535 2.279-1.535 3.763c0 .934.226 1.788.677 2.561s1.047 1.4 1.787 1.88zm11.438 15.388c-1.659 0-3.22-.315-4.68-.945s-2.732-1.485-3.812-2.565c-1.081-1.08-1.936-2.35-2.566-3.81s-.946-3.02-.946-4.68c0-.35.015-.698.044-1.042s.081-.677.156-.999c-1.041-.561-1.873-1.354-2.496-2.38S.77 12.084.77 10.839c0-1.844.644-3.411 1.933-4.7s2.856-1.933 4.7-1.933c1.127 0 2.163.262 3.109.786s1.719 1.226 2.319 2.106c.509-.144 1.03-.251 1.561-.323s1.067-.108 1.608-.108c1.66 0 3.22.315 4.68.945s2.73 1.484 3.81 2.564 1.935 2.349 2.565 3.809.945 3.019.945 4.678c0 1.659-.315 3.219-.945 4.68s-1.484 2.732-2.564 3.812c-1.08 1.081-2.349 1.936-3.809 2.567s-3.019.945-4.678.945z"/></symbol><symbol id="icon-id-card" viewBox="0 0 32 32"><path d="M28 5.25H4A2.754 2.754 0 0 0 1.25 8v16A2.754 2.754 0 0 0 4 26.75h24A2.754 2.754 0 0 0 30.75 24V8A2.754 2.754 0 0 0 28 5.25zM4 6.75h24c.69.001 1.249.56 1.25 1.25v1.25H2.75V8c.001-.69.56-1.249 1.25-1.25zm24 18.5H4A1.252 1.252 0 0 1 2.75 24V10.75h26.5V24A1.252 1.252 0 0 1 28 25.25zM9.645 17.628a2.635 2.635 0 1 0 0-5.27 2.635 2.635 0 0 0 0 5.27zm0-3.77a1.135 1.135 0 1 1 0 2.27 1.135 1.135 0 0 1 0-2.27zm0 4.953a4.547 4.547 0 0 0-4.41 3.52l-.006.031a.75.75 0 0 0 1.464.325l.001-.005c.309-1.366 1.512-2.371 2.951-2.371s2.642 1.005 2.947 2.351l.004.02a.751.751 0 0 0 1.464-.326l.001.005a4.553 4.553 0 0 0-4.414-3.551h-.001l-.001.001zM26 13.25h-8a.75.75 0 0 0 0 1.5h8a.75.75 0 0 0 0-1.5zm0 4h-8a.75.75 0 0 0 0 1.5h8a.75.75 0 0 0 0-1.5zm0 4h-8a.75.75 0 0 0 0 1.5h8a.75.75 0 0 0 0-1.5z"/></symbol><symbol id="icon-Logo" viewBox="0 0 45 32"><path d="M13.563 15.779c.048.395.396.594.638.71l.038.02c.125.067.216.115.31.205.035.034.063.065.095.101l.085.093c.069.073.155.152.265.21.239.126.471.061.652-.053l.004.004.006.006a.514.514 0 0 1 .074.097l.013.021c.022.035.051.08.083.119a.78.78 0 0 0 .575.322l.007.001h.007l.026-.001.009-.001.012.052c.026.111.048.203.059.306v.001c.014.118.018.234.02.355l.001.07c.001.096.003.196.009.296a.734.734 0 0 0 .283.596c.073.06.159.102.234.135.036.016.073.031.108.044l.007.003c.038.015.072.029.105.044.141.062.188.11.2.169l.001.005.017.076c.034.157.073.331.222.506l.001.001c.049.057.106.116.158.17l.082.086c.071.078.13.151.174.236l.001.002c.166.309.264.653.363 1.002.034.121.069.242.107.363l.002.005.004.01-.002-.001-.005-.002a.968.968 0 0 0-.393-.088c-.09 0-.16.026-.217.054l-.064.035-.006.004-.017.01-.007-.006a.465.465 0 0 0-.479-.086.682.682 0 0 0-.092.04l-.035.018-.038.019c-.034.017-.048.019-.05.02h-.002c-.009-.001-.012-.003-.013-.004l-.002-.002c-.001-.001-.008-.014-.005-.04v-.002a.294.294 0 0 0-.048-.202.323.323 0 0 0-.14-.113.387.387 0 0 0-.306.001 1.264 1.264 0 0 0-.105.05l-.044-.025-.006.053c-.275.158-.497.4-.606.709-.074.181-.09.373-.073.557.005.06.017.118.026.164v.001c.01.051.018.088.021.122.005.056-.004.08-.034.107-.041.035-.083.064-.13.098l-.052.038c-.066.049-.14.106-.207.179l-.005.006c-.147.177-.217.369-.28.55l-.002.005c-.015.047-.028.096-.042.146a1.949 1.949 0 0 1-.14.395.402.402 0 0 1-.125.153c-.034.021-.079.034-.153.015l-.003-.001a.359.359 0 0 0-.448.346.643.643 0 0 0 .019.179l-.068.052.102.041a.58.58 0 0 0 .064.104.808.808 0 0 0 .271.21c.07.036.148.068.218.096l.062.026c.088.037.156.07.207.108.18.146.379.228.592.23s.417-.074.61-.208c.083-.055.159-.12.227-.178l.027-.024c.06-.052.113-.098.169-.14.124-.092.236-.14.378-.125h.003c.27.025.512.222.544.452v.003a.326.326 0 0 0 .568.165.3.3 0 0 0 .054-.256c-.114-.693-.89-1.15-1.572-.96-.226.064-.396.207-.534.324l-.004.004c-.148.125-.26.218-.398.259l-.004.001c-.057.018-.09.009-.138-.02a1.316 1.316 0 0 1-.104-.075c-.039-.029-.086-.065-.141-.096-.008-.005-.016-.011-.025-.015.107-.095.195-.208.256-.325.084-.151.138-.33.184-.485l.043-.14c.063-.194.135-.342.27-.444l.048-.035c.119-.087.27-.197.359-.366.132-.239.073-.471.03-.638l-.013-.052a.648.648 0 0 1 .113-.512.757.757 0 0 0 .811.153l.008-.004.04-.021.025.023c.011.009.031.026.056.039.086.049.232.109.38.06a.44.44 0 0 0 .149-.07l.012-.008c.029-.019.04-.027.055-.033l.01-.004.01-.005c.011-.006.021-.01.06.004.022.008.047.02.081.038l.012.006c.029.015.065.033.102.049l.006.002c.185.071.446.099.663-.027l.002-.001a.474.474 0 0 0 .238-.374.938.938 0 0 0-.052-.368l-.089-.301c-.123-.42-.256-.871-.449-1.27a1.937 1.937 0 0 0-.404-.555l-.059-.064-.001-.001a1.328 1.328 0 0 1-.055-.06.382.382 0 0 1-.066-.1.75.75 0 0 1-.028-.14l-.004-.026a.77.77 0 0 0-.07-.244l-.004-.007a.902.902 0 0 0-.418-.37c-.06-.031-.134-.058-.193-.08l-.056-.021a.412.412 0 0 1-.149-.084l-.004-.004-.004-.004c-.007-.007-.009-.011-.009-.012s-.003-.008-.004-.022a.421.421 0 0 1 .001-.06l.001-.013c.001-.023.003-.053.003-.083v-.431a3.702 3.702 0 0 0-.132-.836l-.001-.003a.567.567 0 0 0-.265-.339.788.788 0 0 0-.384-.082c-.041 0-.071-.014-.117-.073-.021-.026-.04-.055-.063-.09a1.063 1.063 0 0 0-.127-.17c-.179-.205-.505-.388-.837-.224a.346.346 0 0 0-.065.035l-.014.01a1.23 1.23 0 0 0-.289-.207 2.483 2.483 0 0 0-.309-.123l-.076-.026a3.965 3.965 0 0 1-.218-.077c-.185-.072-.318-.155-.398-.291l-.017-.03-.027-.021a.331.331 0 0 0-.223-.075.222.222 0 0 0-.146.067c-.049.053-.06.119-.049.176zm5.222 6.453h-.001.001z"/><path d="m22.454 21.694.014-.173a3.24 3.24 0 0 0-1.645.301 1.8 1.8 0 0 0-.612.442.917.917 0 0 0-.18.323l-.138-.012.116.112a.711.711 0 0 0 .04.359l.003.007a.369.369 0 0 0 .117.156c.054.04.113.058.166.069l.011.002.011.001c.167.01.274.147.258.269v.003a.22.22 0 0 1-.105.168.618.618 0 0 1-.258.085h-.002c-.085.012-.173.016-.27.021a2.438 2.438 0 0 0-.407.04c-.11.018-.218.053-.324.105l-.008.005c-.026.014-.056.034-.079.049l-.019.013a.437.437 0 0 1-.061.035.347.347 0 0 0-.58.066l-.005.009-.004.009a.069.069 0 0 1-.003.008h-.166l.105.152a6.29 6.29 0 0 1-.121.267l-.069-.071-.014-.121-.07.034-.001-.001a.35.35 0 0 0-.363-.068.316.316 0 0 0-.212.329v.002l-.081.039.092.089c.05.518.139 1.022.24 1.523.031.168.19.211.286.198a.26.26 0 0 0 .23-.261c0-.275-.008-.55-.024-.825.03.005.059.006.087.004a.315.315 0 0 0 .26-.165l.002-.003.065-.125.107-.021-.062-.066c.059-.114.117-.229.172-.345.035.006.07.009.107.009a.683.683 0 0 0 .348-.106l.075-.045c.051-.031.087-.053.132-.069.138-.046.282-.05.458-.055l.044-.001c.187-.006.406-.017.62-.115l.006-.003a.955.955 0 0 0 .514-.976l-.001-.005a.89.89 0 0 0-.545-.66.539.539 0 0 1 .127-.128c.144-.111.341-.197.476-.248a2.796 2.796 0 0 1 1.127-.155.312.312 0 0 0 .252-.091.332.332 0 0 0-.226-.556l-.013.173zm0 0c.202.015.202.315 0 .3-.405-.03-.81.03-1.199.165l-1.046.442c.101-.279.414-.495.688-.622a3.07 3.07 0 0 1 1.557-.285z"/><path d="M22.193 22.039a.273.273 0 0 0 .165.083l.001.012c.005.051.016.1.032.145l-.099.096.159.021.025.034a.688.688 0 0 0 .245.187l.011.005.011.004c.01.003.046.016.088.033a.319.319 0 0 0-.058.245.34.34 0 0 0 .184.247l.009.059.088-.027a.413.413 0 0 0 .037.005c.232.027.449.12.683.236l.142.072c.188.096.391.2.601.27h.001c.335.108.669.106.978.098l.074-.002c.288-.008.553-.014.817.043.104.022.213.053.307.089a.153.153 0 0 0-.016.011c-.09.044-.182.096-.262.142l-.091.051-.007.004a7.197 7.197 0 0 0-1.395 1.098c-.063.06-.139.131-.205.205a.97.97 0 0 0-.221.375l-.001.003a.564.564 0 0 0 .036.387.445.445 0 0 0 .341.249h.002c.152.021.3-.022.414-.06l.073-.024a1.3 1.3 0 0 1 .244-.066h.002c.088-.012.146.008.167.028a.699.699 0 0 1 .079.101l.003.005c.029.042.069.099.12.149l.007.007.008.006a.578.578 0 0 0 .355.141.858.858 0 0 0 .141-.014l.006-.001a.667.667 0 0 1 .07-.01l.003.006.004.007c.053.09.084.209.098.347.014.136.011.279.003.411-.006.096-.02.194-.034.301l-.009.068a3.01 3.01 0 0 0-.033.409c.002.286.08.581.376.811.5.393 1.177.272 1.633-.02.23-.143.419-.331.591-.503a6.68 6.68 0 0 1 .122-.119l.004-.004c.13-.134.257-.25.389-.369.089-.081.179-.163.272-.253.125-.107.11-.266.052-.362a.291.291 0 0 0-.349-.127c-.294.095-.519.278-.712.469-.078.076-.153.157-.225.234l-.053.056c-.09.095-.177.185-.267.266a1.42 1.42 0 0 1-.574.306c-.205.047-.377.014-.5-.136v-.001c-.057-.068-.081-.16-.081-.285 0-.093.012-.185.026-.285.005-.039.011-.079.015-.12a2.43 2.43 0 0 0 .015-.847c-.03-.218-.081-.543-.295-.769l-.005-.005a.66.66 0 0 0-.342-.167l-.009-.001a.618.618 0 0 0-.146.004l-.048.007-.007.001a.438.438 0 0 1-.082.007 2.002 2.002 0 0 1-.069-.092l-.001-.002a2.25 2.25 0 0 0-.091-.12l-.006-.007-.007-.007a.86.86 0 0 0-.37-.193l-.006-.002-.006-.001a1.145 1.145 0 0 0-.349-.015c.134-.133.273-.264.411-.388a7.502 7.502 0 0 1 1.352-.863l.002-.001a.893.893 0 0 0 .299-.237.395.395 0 0 0 .081-.223.382.382 0 0 0-.09-.252c-.098-.126-.252-.211-.392-.27a2.874 2.874 0 0 0-.415-.135 3.667 3.667 0 0 0-1.276-.133l-.016.001a6.462 6.462 0 0 1-.234.008 1.488 1.488 0 0 1-.461-.054l-.003-.001c-.223-.064-.424-.166-.641-.275l-.135-.068a4.155 4.155 0 0 0-.369-.165.556.556 0 0 0 .002-.071c.142.018.285.035.425.049h.001c.179.017.386-.009.538-.118a.454.454 0 0 0 .176-.244.551.551 0 0 0-.019-.334c-.146-.421-.604-.567-.958-.567a7.68 7.68 0 0 0-1.086.104c-.114.017-.227.033-.338.047l-.033.004-.029.016c-.136.075-.175.231-.165.338.005.06.027.131.081.189zm1.916.098-.001-.001.001.001z"/><path d="m29.952 27.946-.014.008a.268.268 0 0 1-.327-.044c-.091-.094-.096-.229-.043-.344l.006-.014.009-.012c.166-.241.395-.301.598-.322.056-.006.123-.009.183-.013l.1-.006a.965.965 0 0 0 .232-.04c.139-.051.248-.162.384-.317l.028-.032c.122-.138.27-.307.47-.408l.002-.001a1.23 1.23 0 0 1-.273-.146 2.333 2.333 0 0 1-.454-.442 4.077 4.077 0 0 1-.666-1.142 2.847 2.847 0 0 1-.198-.731l-.01-.059c-.029-.174-.069-.408-.019-.619.059-.28.27-.412.432-.513l.049-.031.005-.003c.099-.059.198-.121.3-.185l.001-.001c.1-.063.202-.127.304-.188.21-.135.42-.266.63-.397.21-.131.419-.262.627-.396.034-.022.068-.046.104-.071.161-.112.346-.24.561-.309l.007-.002.012-.003a.986.986 0 0 1 .373-.048c.077.001.146.015.199.026h.001a.713.713 0 0 0 .131.019.57.57 0 0 0 .223-.066l.058-.028c.076-.037.169-.082.261-.109l.007-.002.007-.001c.232-.048.399-.009.567.03l.06.014c.027.003.052-.004.09-.035.035-.028.062-.06.097-.1l.058-.066.004-.004.004-.004.008-.008c.103-.1.232-.224.402-.297l.006-.003.006-.002c.114-.039.231-.054.329-.067l.04-.005a.942.942 0 0 0 .279-.069c.077-.041.151-.088.233-.141l.003-.002c.08-.051.167-.107.259-.156h.001a1.31 1.31 0 0 1 .715-.154h.003a2.542 2.542 0 0 1 .154.019c.053.007.103.012.151.013.102.002.155-.018.182-.043.006-.006.017-.021.025-.07a.808.808 0 0 0 .009-.092c.002-.028.004-.063.008-.096v-.003l.047-.315.001-.005.001-.005c.048-.232.113-.47.213-.695m-8.255 9.353 8.416-9.285m-8.416 9.285.013-.011c.035-.03.078-.044.147-.044.036 0 .075.004.122.009l.033.004.116.013c.191.015.415.019.627-.073m-1.058.102 1.057-.102m7.2-9.252v-.001l.159.071m-.159-.07v.001l.16.069m-.16-.07c.085-.196.216-.406.457-.522l.007-.004.008-.003c.057-.021.111-.037.16-.052l.016-.005c.043-.013.081-.024.117-.037a.49.49 0 0 0 .191-.109l.007-.007c.042-.036.078-.07.117-.105l.108-.098c.08-.071.17-.145.27-.203s.215-.105.345-.114a.72.72 0 0 1 .402.095l.006.003a.29.29 0 0 1 .134.174.284.284 0 0 1-.02.197.313.313 0 0 1-.318.176l-.007-.001c-.072-.012-.145.014-.234.082-.064.049-.116.103-.174.163l-.098.099-.005.005a1.671 1.671 0 0 1-.654.351c-.083.026-.137.083-.182.171a1.52 1.52 0 0 0-.098.299l-.01.038-.001.005a3.394 3.394 0 0 0-.1.588l-.019.166-.001.006a.725.725 0 0 1-.463.594c-.218.088-.476.093-.701.078m.899-1.961c.078-.18.187-.345.374-.435.056-.021.111-.037.165-.053.139-.041.268-.079.38-.187l.125-.113c.26-.239.543-.499.918-.293.125.075.031.24-.093.225-.237-.038-.418.149-.571.307-.028.029-.056.058-.083.083-.187.165-.358.24-.592.315-.265.085-.335.359-.395.591l-.01.039c-.062.215-.084.421-.107.624l-.018.157c-.078.495-.545.555-.981.526m-.01.175h.001l.009-.174m-.01.174c-.124-.007-.217.004-.303.028s-.172.064-.281.127m.584-.155h-.001l.012-.174m-.001 0c-.28-.015-.452.045-.685.18m-4.827 5.66c-.42.03-.747-.3-.981-.586a3.904 3.904 0 0 1-.638-1.096 2.68 2.68 0 0 1-.187-.691l-.01-.064c-.03-.179-.062-.378-.021-.552.043-.206.189-.299.357-.405l.048-.03c.101-.06.202-.124.304-.188s.202-.128.304-.188c.21-.135.42-.267.631-.398s.42-.263.631-.398l.116-.079c.16-.111.318-.22.507-.281.109-.03.218-.06.327-.045.064 0 .125.012.183.024a.807.807 0 0 0 .16.021c.125 0 .244-.057.365-.115.075-.036.15-.072.227-.095.192-.04.324-.009.492.029l.069.016c.161.026.265-.094.36-.204l.045-.051c.109-.105.218-.21.358-.27.096-.033.194-.046.293-.058a1.17 1.17 0 0 0 .376-.092c.086-.045.167-.098.249-.15s.163-.105.249-.15a1.145 1.145 0 0 1 .722-.123c.171.023.395.052.523-.072.072-.07.079-.175.086-.275l.007-.085-6.15 6.651zm0 0a.726.726 0 0 0 .483-.255m-.483.255.483-.255m0 0 .019-.026c.047-.063.117-.156.199-.17.07-.011.096.045.125.105.01.02.019.041.031.06m-.374.031.374-.03m0 0c.078.12.218.21.374.15.057-.022.106-.061.153-.097l.049-.038m-.576-.015.576.015m0 0a.911.911 0 0 1 .296-.195m-.296.195.469-.237m-.173.041a1.36 1.36 0 0 1 .173-.042m-.173.042.053.166.007-.002m-.06-.164.066.161-.006.003m.113-.206a.82.82 0 0 0-.103.202m.103-.202-.103.202m-.011.004.011-.003m-.011.003a.74.74 0 0 0-.235.157l-.009.009-.01.007a1.294 1.294 0 0 0-.041.032l-.003.002a1.289 1.289 0 0 1-.05.038.634.634 0 0 1-.148.084c-.264.102-.481-.062-.582-.218l-.002-.003-.023-.041m1.114-.07-1.151-.005v.001m1.151.004c.065-.019.132-.032.208-.044l.001-.002-.21.046zm-1.113.071.015-.017a.153.153 0 0 1 .03-.027l.005-.003-.007.002h-.025a.077.077 0 0 1-.033-.012c-.013-.008-.02-.016-.022-.018m.037.075a.664.664 0 0 0-.039.05l-.027.035-.005.006-.005.005a1.098 1.098 0 0 1-.198.171m.274-.267-.017-.035-.001-.002-.019-.038v-.001m0 .001-.236.343m0 0a1.096 1.096 0 0 0-.056-.01l.056.01zm0 0a.872.872 0 0 1-.06.037l-.026.124m.086-.161c.113.024.218.07.301.11l.01.005.009.006c.058.037.109.082.149.117l.004.003c.042.037.074.064.106.086m0-.001h-.001l-.087.151m.088-.151.006.004-.094.146m.088-.15.581.045c-.156.06-.514.195-.669.105m-.001 0c-.047-.03-.09-.068-.132-.105s-.086-.075-.132-.105a1.077 1.077 0 0 0-.311-.105m-.001 0a1.037 1.037 0 0 0-.638.075m.638-.075.016-.119-.655.194m.001 0c-.168.085-.295.229-.421.372-.142.162-.284.322-.482.394-.126.042-.259.049-.39.056l1.293-.822zm-.648 1.286c.196-.081.343-.214.469-.339l.094-.095c.09-.092.17-.174.264-.245a.5.5 0 0 1 .388-.093l.006.001c.062.013.114.049.193.116l.022.019c.069.06.166.142.289.188l.003.001c.122.043.246.04.351.027.067-.008.142-.023.205-.035l.077-.015.005-.001.005-.001c.197-.047.391-.114.57-.235l.005-.003c.125-.091.283-.217.366-.395a.88.88 0 0 0 .079-.295l.004-.032c.013-.085.027-.134.064-.178l.005-.006.027-.034c.037-.045.085-.105.119-.165a.477.477 0 0 0 .059-.33.45.45 0 0 0-.211-.299.701.701 0 0 0-.295-.096 1.288 1.288 0 0 0-.623.053 1.735 1.735 0 0 0-.292.123.964.964 0 0 0-.117.073.504.504 0 0 0-.081-.078c-.206-.172-.501-.163-.706-.046-.114.061-.192.165-.243.233l-.015.02c-.063.082-.096.113-.131.124l-.007.003c-.031.011-.082.009-.163-.037a.936.936 0 0 1-.209-.173l-.004-.004a3.121 3.121 0 0 1-.678-1.051l-.001-.002a3.84 3.84 0 0 1-.162-.556c-.006-.037-.014-.074-.022-.112-.015-.074-.031-.15-.04-.233a.57.57 0 0 1 0-.144c.005-.031.012-.041.013-.042.061-.059.146-.114.249-.173l.094-.052c.074-.041.152-.084.22-.128.11-.068.215-.136.32-.203h.001l.316-.201h.001l-.092-.148m-.791 5.294 2.356-5.962.107.011.045.006c.057.007.123.013.195.013.203 0 .391-.085.536-.152l.059-.027m-2.51.817c.161-.098.317-.202.473-.306.252-.168.503-.336.773-.475m-1.246.781c-.109.068-.214.135-.319.203s-.21.135-.319.203l.638-.405zm1.246-.781.076.157.002-.001.002-.001-.08-.154zm0 0c.171-.083.306-.066.454-.047.067.008.138.017.215.017.162 0 .312-.068.461-.134l.069-.031m0 0 .063.162.004-.001m-.067-.161.039-.015c.069-.028.147-.06.226-.06.069 0 .138.018.203.035.038.01.074.019.108.025.171.03.327-.03.467-.135.062-.045.113-.101.164-.158s.101-.113.163-.158c.116-.101.252-.121.396-.141.069-.01.14-.02.211-.039.196-.054.354-.157.52-.264l.056-.036m-2.553.946.07.159-.003.002m-.001 0 2.578-.958m0 0-.003.002-.087-.151m.09.149.003-.002-.094-.146m-2.809 5.133a.42.42 0 0 1 .131.015.413.413 0 0 0-.094.088.17.17 0 0 1-.037-.103zm-.867.06-.018.018-.012-.025-.006-.012.036.018zm-.049-.052-.021-.039a.183.183 0 0 1 .133-.009l.015.006.002.001a.376.376 0 0 0-.075.09l-.004.004-.049-.051zm.533-.248a1.354 1.354 0 0 0-.373.179l-1.79 1.593c.093-.095.187-.191.294-.272.156-.105.343-.165.529-.12.119.025.206.098.292.173a.793.793 0 0 0 .237.158c.142.05.305.017.454-.013l.091-.018a1.54 1.54 0 0 0 .514-.21c.125-.09.249-.195.311-.33a.718.718 0 0 0 .063-.239c.015-.105.029-.208.108-.302l.036-.046c.083-.102.162-.201.135-.345-.031-.165-.202-.24-.358-.255a1.112 1.112 0 0 0-.545.045zm-.592.151a.3.3 0 0 0-.062-.061l.062.061zm-1.557.044a3.27 3.27 0 0 1-.716-1.111l.716 1.111z"/><path d="M42.336 14.691c.13-.008.292-.028.433-.095a.593.593 0 0 0 .18-.128l.093.022-.043-.084a.534.534 0 0 0 .087-.221.378.378 0 0 0-.029-.231.3.3 0 0 0-.219-.164c-.065-.014-.127-.027-.189-.042l-.048-.093a.833.833 0 0 0 .194-.134c.195-.156.338-.364.41-.607a.988.988 0 0 0 .025-.433 2.55 2.55 0 0 0-.023-.143 1.846 1.846 0 0 1-.027-.205v-.001a.326.326 0 0 1 .018-.113c.01-.032.02-.058.031-.088l.027-.073c.042-.12.09-.298-.024-.482l-.003-.004c-.166-.252-.478-.279-.695-.205-.073.021-.133.055-.176.079l-.005.003a.451.451 0 0 1-.109.051l-.007.002-.006.002a.041.041 0 0 1-.015.004.1.1 0 0 1-.014-.012c-.011-.011-.025-.025-.043-.046l-.035-.043c-.107-.131-.241-.296-.453-.381a1.195 1.195 0 0 0-.328-.074 2.687 2.687 0 0 0-.106-.009 1.708 1.708 0 0 1-.211-.025l-.011-.002a.746.746 0 0 1-.038-.007h-.001l-.003-.007-.017-.05-.007-.026c-.01-.036-.024-.087-.04-.126l-.004-.009-.005-.009a.454.454 0 0 0-.329-.245.55.55 0 0 0-.359.088c-.015.008-.029.009-.058-.001-.035-.012-.069-.033-.122-.065a.54.54 0 0 0-.035-.021c-.135-.081-.284-.145-.421-.204l-.002-.001a4.933 4.933 0 0 0-.8-.308l-.013-.004c-.087-.028-.214-.069-.338-.078a.473.473 0 0 0-.423.166.211.211 0 0 0-.035.053.41.41 0 0 0-.028.072 2.139 2.139 0 0 1-.081-.047l-.007-.004-.068-.039a2.769 2.769 0 0 1-.533-.446c-.079-.089-.14-.194-.211-.316l-.009-.016c-.066-.114-.14-.244-.239-.364-.227-.295-.554-.321-.831-.306l-.008.001a3.173 3.173 0 0 0-.923.238c-.15.064-.282.144-.404.217l-.013.006c-.022.011-.048.024-.075.035a.324.324 0 0 0-.253-.213.393.393 0 0 0-.339.093l-.08-.022-.001.008a.956.956 0 0 1-.097-.059l-.009-.007c-.134-.1-.297-.223-.502-.277l-.006-.001a.709.709 0 0 0-.353.013 1.691 1.691 0 0 0-.125.04l-.007.003c-.041.014-.076.026-.111.035a.458.458 0 0 1-.372-.066l-.003-.002a.444.444 0 0 1-.188-.29.486.486 0 0 1 .012-.186l.012-.052c.014-.061.033-.137.04-.21v-.001c.02-.221-.056-.411-.125-.566a3.338 3.338 0 0 1-.029-.065 1.356 1.356 0 0 1-.127-.368.318.318 0 0 0-.165-.243.357.357 0 0 0-.252-.026c-.148.037-.317.18-.286.406v.002c.019.13.067.246.114.347l.051.106c.029.059.055.112.079.171l.003.006a.333.333 0 0 1 .018.202c-.006.04-.016.08-.027.129l-.001.006a1.883 1.883 0 0 0-.034.167l-.001.006v.006c-.037.483.259.944.717 1.121.22.088.453.104.68.07.077-.011.149-.041.198-.061l.007-.003a.758.758 0 0 1 .109-.039c.046.003.084.028.162.079l.04.026c.156.11.36.225.574.257.067.01.138.012.208.003a.666.666 0 0 0 .256.126.734.734 0 0 0 .458-.046c.115-.048.222-.117.307-.171l.023-.015a2.074 2.074 0 0 1 .852-.296c.048-.006.09-.012.132-.013.056-.002.086.006.1.014l.008.004c.017.008.038.027.065.074.014.023.026.049.041.081l.008.018.04.082.004.006c.264.462.644.843 1.105 1.114.087.053.208.123.34.164a.63.63 0 0 0 .463-.021.468.468 0 0 0 .222-.254l.019.007.062.027.002.001c.022.01.047.021.071.03l.004.002c.289.103.563.22.839.353.046.022.094.05.152.083l.006.003c.058.033.123.071.192.103a.758.758 0 0 0 .496.078l.007-.002.005-.002c.023.046.05.087.076.121l.003.004c.171.206.42.257.618.273h.001l.041.003c.202.015.318.023.412.114a.88.88 0 0 1 .081.092l.023.029c.022.028.047.061.072.09a.66.66 0 0 0 .312.22c.175.062.32.032.441-.014.032-.012.064-.026.095-.04a1.002 1.002 0 0 0-.016.329l.001.007.017.105c.043.262.067.41-.074.585l-.002.002a.538.538 0 0 1-.274.181l-.006.002c-.035.013-.062.02-.092.029l-.085.025a.667.667 0 0 0-.212.106.596.596 0 0 0-.238.387.494.494 0 0 0 .166.452l.006.005c.02.016.04.03.061.043a.669.669 0 0 0-.138.138c-.171.225-.19.489-.16.721l-.109.105.136.044a.491.491 0 0 0 .01.041l.001.002a.326.326 0 0 0 .244.236.365.365 0 0 0 .191-.005c.002.024.003.053.003.093v.005c0 .044 0 .103.009.161l.002.017c.013.119.035.31.156.454l.019.024-.001.001-.008.008-.007.008c-.134.166-.174.379-.202.531l-.005.026-.002.008-.001.008a2.32 2.32 0 0 1-.069.441c-.027.071-.056.095-.081.108a.42.42 0 0 1-.19.029l-.229-.001a8.879 8.879 0 0 0-1.179.047l-.016.002-.015.005a.368.368 0 0 0-.244.232c-.017.057-.02.135.026.206s.12.102.185.111c.321.046.625.062.942.062.06 0 .126.003.198.008l.024.001c.064.004.133.008.202.01.154.004.327-.003.489-.058l.005-.002c.312-.117.441-.352.503-.588.029-.114.045-.233.058-.338l.001-.012c.013-.102.024-.191.043-.273a.366.366 0 0 1 .048-.083c.018-.025.035-.046.055-.07l.043-.053c.07-.089.168-.225.156-.409v-.005l-.001-.005a.43.43 0 0 0-.092-.222c-.039-.049-.088-.086-.122-.112a.088.088 0 0 1-.039-.049.332.332 0 0 1-.011-.105v-.022c0-.207.001-.546-.289-.749a.581.581 0 0 0-.176-.092l.002-.005.001-.002c.01-.027.019-.039.024-.045s.009-.009.017-.012a.503.503 0 0 1 .152-.026zm0 0h-.002l-.01-.174m.012.174h.002l-.015-.173m0 0c-.171.015-.28.03-.343.195l.755-.296a.957.957 0 0 1-.413.101zm-.118-.715.001-.001-.001.001z"/><path d="m31.633 6.878.004-.006.003-.006a.696.696 0 0 0 .077-.494l-.001-.005a.655.655 0 0 0-.125-.243.497.497 0 0 0-.127-.111l-.024-.016a.552.552 0 0 0-.02-.013l-.002-.023-.002-.025c-.002-.019-.004-.049-.012-.079a.527.527 0 0 0-.141-.247.673.673 0 0 0-.542-.168 1.141 1.141 0 0 0-.28.065l-.071.024a1.9 1.9 0 0 1-.157.05c-.025.006-.056.001-.125-.039a.76.76 0 0 1-.059-.037l-.058-.036a.82.82 0 0 0-.157-.078 1.555 1.555 0 0 0-.665-.063 2.533 2.533 0 0 0-.138-.974c.097-.045.191-.097.275-.161.201-.152.358-.374.347-.685l-.001-.008c-.022-.272-.198-.448-.372-.566l-.001-.001c-.191-.127-.317-.241-.407-.427l-.001-.002a4.067 4.067 0 0 1-.118-.267l-.009-.021a4.416 4.416 0 0 0-.145-.319c-.111-.214-.264-.428-.517-.564a.97.97 0 0 0-.66-.096.89.89 0 0 0-.233.084.881.881 0 0 0-.286-.085c-.23-.029-.476.02-.67.105-.068.029-.134.063-.195.094l-.003.002a2.382 2.382 0 0 1-.179.086.486.486 0 0 1-.297.048l-.004-.001c-.08-.015-.154-.043-.243-.076a2.404 2.404 0 0 0-.066-.024 1.155 1.155 0 0 0-.394-.084.668.668 0 0 0-.424.139.985.985 0 0 0-.235.291c-.026.045-.047.085-.067.122a2.667 2.667 0 0 1-.088.155.518.518 0 0 1-.161.172.548.548 0 0 1-.456.048 4.643 4.643 0 0 1-.149-.067l-.001-.001a3.557 3.557 0 0 0-.162-.072 1.218 1.218 0 0 0-.394-.097h-.01c-.243 0-.483.084-.678.152a2.46 2.46 0 0 1-.064.022l-.004.001-.082.031c-.079.03-.15.058-.224.075-.093.022-.157.018-.205-.006a.345.345 0 0 0-.224-.043.428.428 0 0 0-.198.089c-.771.598-1.028 1.554-1.093 2.422l-.025-.039-.003-.004c-.295-.419-.813-.688-1.363-.435-.04.016-.086.041-.121.059a.485.485 0 0 0-.023.012l-.059.029-.02-.013-.012-.008c-.03-.021-.085-.06-.148-.082-.23-.094-.44.016-.571.143a.435.435 0 0 0-.031.035c-.008-.029-.016-.058-.026-.087l-.002-.006c-.185-.476-.755-.603-1.16-.444a1.145 1.145 0 0 0-.493.385.838.838 0 0 0-.472-.24.782.782 0 0 0-.683.21.342.342 0 0 0-.106.272.377.377 0 0 0 .111.234.368.368 0 0 0 .512.018l.005-.005a.07.07 0 0 1 .046-.012.075.075 0 0 1 .043.014c.018.024.024.052.04.125a.72.72 0 0 1 .006.029c.019.085.054.22.191.313.261.176.545.032.684-.14l.006-.008.005-.008c.036-.057.066-.114.092-.167l.022-.044c.018-.036.033-.068.051-.101a.494.494 0 0 1 .16-.193l.005-.004a.266.266 0 0 1 .143-.044c.052-.001.086.013.106.032a.393.393 0 0 1 .05.158l.005.029c.012.075.03.182.078.274l.003.006.003.005a.503.503 0 0 0 .557.257.915.915 0 0 0 .464-.288l.014-.015c.259.145.529.036.695-.031a.069.069 0 0 0 .008-.003l.002-.001a.886.886 0 0 1 .249-.077.239.239 0 0 1 .173.056l.005.003c.165.114.26.317.32.546l.001.004c.015.054.026.119.04.2l.001.008c.013.081.03.175.056.266.054.183.166.39.431.457a.45.45 0 0 0 .377-.052.532.532 0 0 0 .192-.266c.066-.184.069-.408.069-.526 0-.49.005-1.023.114-1.512.098-.433.275-.818.595-1.102.227.045.436.001.625-.06.072-.023.15-.053.225-.081a9.55 9.55 0 0 1 .134-.05 1.53 1.53 0 0 1 .332-.085c.094-.009.186.025.318.089l.041.02c.115.056.264.13.429.147.309.035.612-.053.858-.205l.004-.003c.263-.174.37-.4.472-.615l.04-.084.001-.002c.022-.046.04-.052.045-.054.014-.004.043-.007.102.009.057.015.119.041.195.071l.003.001c.07.029.156.064.238.083.395.091.727-.076 1.003-.223.102-.045.227-.097.338-.114l.032-.004h.057c.046.005.064.024.076.045l.003.005a.362.362 0 0 0 .3.17.339.339 0 0 0 .315-.178.106.106 0 0 1 .034-.041h.061l-.007-.013c.013 0 .028.001.045.005a.493.493 0 0 1 .238.133c.087.096.148.219.208.366l.042.106c.045.115.095.243.158.358.073.157.18.292.299.407l.005.005.005.004c.059.049.126.09.179.123a.794.794 0 0 1 .154.108l.004.004.004.004c.009.008.011.013.011.014s.002.007.001.016a.169.169 0 0 1-.052.087.475.475 0 0 1-.17.095l-.026.009-.044-.082-.037.107-.101.027-.042.011a.338.338 0 0 0-.24.215.365.365 0 0 0 .018.288c.033.066.062.133.087.2l-.036.104.065-.019c.093.289.114.588.07.891l-.121.027.1.096-.009.041c-.056.245.167.502.434.416l.033-.007.006-.001.1.096.033-.124c.215-.043.402-.068.578-.013.039.017.077.039.127.069l.004.002c.048.029.108.064.174.091l.007.003a.963.963 0 0 0 .454.039l.01-.001.01-.002c.073-.018.141-.044.197-.065l.004-.002c.059-.023.106-.041.155-.053l.011-.002a.574.574 0 0 0 .216.373l.005.004.005.004c.027.018.059.037.082.05l.017.01.031.019c-.09.169-.043.348.089.44a.302.302 0 0 0 .432-.09zM20.446 5.66c0-.892.013-1.996.692-2.673l-1.517 2.537c.018.064.031.138.044.215.041.248.088.527.361.596.405.105.42-.435.42-.676zm1.084-2.769c.199-.002.387-.073.58-.146.166-.063.335-.127.516-.148.163-.017.308.054.454.125l-1.55.168zm-1.488 3.145c-.001.002-.001.002-.001 0-.002 0-.002-.001 0-.002l.002-.001a.01.01 0 0 1-.001.003z"/><path d="M15.356 4.488c-.017-.183-.17-.272-.289-.298l-.01-.021a.511.511 0 0 0-.556-.287l-.008.001-.008.002a.719.719 0 0 0-.198.099 2.529 2.529 0 0 1-.157.102l-.006.003-.052.014c-.083-.12-.231-.148-.333-.138-.097.01-.232.066-.283.2-.21-.112-.435-.101-.63-.076h-.002c-.106.015-.149.002-.166-.01a.317.317 0 0 1-.061-.074.398.398 0 0 1-.017-.026c-.021-.032-.049-.075-.078-.11-.181-.242-.434-.322-.645-.389l-.046-.015-.005-.001a16.333 16.333 0 0 0-3.525-.607h-.002a22.877 22.877 0 0 0-1.758-.03h-.002c-.432.015-.919.092-1.316.341a1.345 1.345 0 0 0-.529.61l-.019.043c-.013.03-.025.059-.039.088a.5.5 0 0 1-.075.117l-.001.001a.51.51 0 0 1-.034-.017l-.026-.015-.002-.001-.029-.017-.006-.003-.006-.003a.904.904 0 0 0-.387-.092h-.007l-.007.001a.702.702 0 0 0-.561.379c-.132.254-.145.545-.114.813.031.27.11.535.181.748l.001.003c.157.441.397.852.713 1.209a.617.617 0 0 0-.054.249c0 .182.074.331.135.447l.022.041c.055.104.096.18.111.264l.002.008c.023.101.005.186-.038.235-.024.027-.041.033-.066.036a.523.523 0 0 1-.07.005h-.009c-.026.001-.059.002-.094.005a.721.721 0 0 0-.48.198 2.392 2.392 0 0 0-.222.241l-.073.085-.001.001c-.218.248-.437.5-.655.751-.218.252-.436.503-.653.75l-.002.002a8.754 8.754 0 0 1-.206.232c-.123.137-.255.283-.369.428-.187.239-.357.51-.428.824-.116.482-.011.957.154 1.393a.655.655 0 0 0-.086.006l-.007.001-.007.002c-.201.046-.319.188-.395.32a1.585 1.585 0 0 0-.093.198l-.026.066a3.998 3.998 0 0 1-.042.101c-.069.155-.142.306-.216.461l-.001.001c-.073.152-.148.307-.218.466-.021.043-.047.09-.076.143l-.015.028a3.171 3.171 0 0 0-.108.211c-.066.145-.127.328-.095.516.034.199.177.349.304.457.066.056.136.108.199.154l.026.019c.054.039.101.073.14.106l.002.001c.131.104.262.212.395.321l.001.001c.132.108.265.218.398.324a.424.424 0 0 1 .024.02c.175.141.428.345.743.363.284.018.569-.092.733-.35l.003-.004.002-.004a.337.337 0 0 0 .024-.284.377.377 0 0 0-.407-.234.33.33 0 0 0-.232.168l-.002.005c-.006.011-.01.016-.012.018l-.003.002s-.009.004-.033.001a.675.675 0 0 1-.242-.114 2.911 2.911 0 0 1-.291-.227c-.032-.028-.065-.056-.095-.084l-.119-.103-.295-.24-.295-.24-.001-.001a1.579 1.579 0 0 0-.121-.086l-.04-.027a.376.376 0 0 1-.086-.075c-.001-.001-.009-.007.007-.05a.884.884 0 0 1 .038-.083l.004-.009c.013-.027.031-.06.044-.094.141-.282.276-.565.413-.851l.222-.464a.698.698 0 0 0 .031-.071l.001-.003.001-.001.015-.038.022.013.026.014.006.003.007.003a.932.932 0 0 0 .204.056l.124.258.044-.257a.664.664 0 0 0 .202-.063c.213-.103.214-.348.143-.489-.147-.306-.285-.624-.339-.939-.053-.311-.023-.608.157-.885.151-.23.344-.439.546-.658l.106-.116.003-.003.001-.001c.248-.284.498-.57.733-.857.248-.284.499-.571.734-.858l.003-.003.031-.042.01-.013a.483.483 0 0 1 .054-.063l.004-.001.014-.006s.012-.004.058 0a.659.659 0 0 1 .071.007c.026.002.057.005.089.005h.01l.01-.001a.807.807 0 0 0 .414-.171c.292-.226.381-.562.346-.89a1.293 1.293 0 0 0-.176-.517l-.016-.028-.002-.003-.022-.039c-.008-.015-.016-.03-.022-.045a.365.365 0 0 0 .164-.22.355.355 0 0 0-.088-.351 3.243 3.243 0 0 1-.101-.102l.029-.097-.098.022a2.695 2.695 0 0 1-.519-.826l-.001-.003a3.538 3.538 0 0 1-.182-.555 1.303 1.303 0 0 1-.027-.531l.001-.003a.474.474 0 0 1 .014-.057l.01.004.017.008c.159.07.391.172.646.07.226-.089.348-.258.435-.412.025-.044.051-.095.076-.142l.04-.076a.943.943 0 0 1 .109-.17l.002-.003a.8.8 0 0 1 .36-.233c.153-.055.324-.087.49-.109.456-.044.913-.044 1.36-.029h.001c1.032.03 2.064.163 3.082.386h.001a13 13 0 0 1 .814.192h.001c.032.009.065.016.095.023l.012.003.074.017a.389.389 0 0 1 .113.041c.043.027.064.06.107.125l.046.068.004.006c.142.188.337.348.621.369.08.009.156.004.219-.002l.043-.004c.049-.005.088-.008.129-.008h-.002l.021.003a.338.338 0 0 0 .114.253.372.372 0 0 0 .383.069l.039.038.043-.077a.904.904 0 0 0 .295-.254.829.829 0 0 0 .15.014.728.728 0 0 0 .424-.164l.005.01.01.013c.068.087.157.15.262.191l.007.003.007.002c.122.035.25.02.353-.049s.168-.182.18-.312l.002-.016-.002-.016z"/><path d="M2.555 16.995c0-.015-.016-.015-.031-.015.016.015.047.015.062.015h.016c-.031 0-.062-.015-.078-.015.016.015.031.03.047.03h.094c.016 0 .016 0 .031-.015-.016 0-.016 0-.031.015h.016c.016 0 .016 0 .031-.015.016 0 .016-.015.031-.03s.031-.045.016-.06c0-.015 0-.03-.016-.045 0-.015-.016-.015-.031-.03s-.016-.015-.031-.015h-.047c-.016 0-.047 0-.062.015 0 0-.016 0-.016.015-.016 0-.016.015-.031.015a.11.11 0 0 0-.031.075c.016-.015.016-.045.031-.06l-.031.03c-.015.015-.016.045-.016.06v-.045c-.016.015-.016.03-.016.045s0 .045.016.06h.031c.016-.015.031-.015.047-.03z"/><path d="M2.555 17.169a.193.193 0 0 0 .125-.046l.011-.01-.005.004c-.004.003-.012.01-.022.016a.15.15 0 0 1-.078.021v-.348a.193.193 0 0 0-.125.046l-.011.01.005-.005a.167.167 0 0 1 .06-.032.15.15 0 0 1 .04-.005v.348zm0-.174.241.25.106-.103v-.148h-.348zm-.031-.015v-.348h-.862l.62.598.241-.25zm.171.015.241.25.62-.598h-.862v.348zm.015 0v-.348h-.14l-.101.097.241.25zm.047-.09h-.348v.148l.106.103.241-.25zm-.015-.045h-.348v.148l.106.103.241-.25zm-.172-.03v.348h.14l.101-.097-.241-.25zm-.015.015v.348h.348v-.348h-.348zm-.031.015v-.348h-.14l-.101.097.241.25zm-.032.075h-.348v.819l.589-.568-.241-.25zm-.015-.015h.348v-.819l-.589.568.241.25zm0 .105-.241.25.101.097h.14v-.348zm.031 0v.348h.14l.101-.097-.241-.25zm.395-.03a.362.362 0 0 0-.379-.363v.696h-.011a.331.331 0 0 1-.305-.332h.696zm-.621.235a.4.4 0 0 0 .217.106c.043.007.08.006.086.006v-.696c-.01 0 .005-.001.024.003a.304.304 0 0 1 .155.079l-.483.501zm.304.113h.016v-.696h-.016v.696zm.015-.696c.019 0 .034.002.041.004l.007.001-.008-.002-.018-.005a.327.327 0 0 0-.034-.007c-.014-.002-.037-.006-.065-.006v.696c-.024 0-.043-.003-.052-.004l-.018-.004c-.002-.001-.003-.001 0 0l.011.003a.468.468 0 0 0 .137.02v-.696zm-.319.583a.533.533 0 0 0 .061.052c.029.021.11.075.227.075v-.696a.3.3 0 0 1 .18.057c.016.012.027.023.014.011l-.483.501zm.288.128v-.696.696zm.031 0h.016v-.696h-.016v.696zm.016 0v-.696.696zm.031 0h.016v-.696h-.016v.696zm.016 0h.012c.006 0 .017 0 .031-.002a.347.347 0 0 0 .124-.035c.042-.02.071-.045.083-.055l.023-.021-.483-.501.004-.004a.319.319 0 0 1 .182-.077c.018-.002.034-.001.024-.001v.696zm.031-.711h-.012c-.006 0-.017 0-.031.002a.347.347 0 0 0-.124.035c-.042.02-.071.045-.083.055l-.023.021.483.501-.004.004a.319.319 0 0 1-.182.077c-.018.002-.034.001-.024.001v-.696zm-.031.711h.016v-.696h-.016v.696zm.015 0h.012c.006 0 .017 0 .031-.002a.347.347 0 0 0 .124-.035c.042-.02.071-.045.083-.055l.023-.021-.483-.501.004-.004a.319.319 0 0 1 .182-.077c.018-.002.034-.001.024-.001v.696zm.031-.015a.367.367 0 0 0 .204-.062c.057-.038.088-.084.098-.097.03-.044-.004.007-.029.032l-.483-.501a.373.373 0 0 0-.054.064l-.01.015.004-.006a.332.332 0 0 1 .27-.141v.696zm.273-.128a.423.423 0 0 0 .107-.167.374.374 0 0 0-.091-.394l-.483.501a.32.32 0 0 1-.083-.334.274.274 0 0 1 .068-.107l.483.501zm.122-.31c0-.001.002-.053-.013-.11a.403.403 0 0 0-.109-.186l-.483.501a.295.295 0 0 1-.082-.141c-.011-.042-.009-.079-.009-.065h.696zm-.016-.045a.362.362 0 0 0-.069-.213c-.041-.056-.088-.086-.1-.094-.044-.028.007.003.032.027l-.483.501a.41.41 0 0 0 .065.051l.015.009-.005-.003a.333.333 0 0 1-.15-.277h.696zm-.137-.281-.023-.021a.357.357 0 0 0-.207-.09l-.031-.002h-.012v.696l-.024-.001a.343.343 0 0 1-.186-.081l.483-.501zm-.273-.112v.696-.696zm-.046 0c-.002 0-.171-.016-.304.112l.483.501c-.018.017-.041.035-.071.051s-.058.023-.079.027c-.019.004-.034.004-.036.004h.007v-.696zm-.063.363v-.348h-.011l-.013.001-.033.004a.356.356 0 0 0-.241.152.36.36 0 0 0-.064.207h.696a.337.337 0 0 1-.189.3.308.308 0 0 1-.121.031l-.012.001H2.571c-.001 0 0 0 0 0v-.348zm-.015-.333a.369.369 0 0 0-.239.088l-.014.012-.005.005.002-.002.011-.009c.005-.004.026-.021.048-.034a.335.335 0 0 1 .165-.044v.696a.369.369 0 0 0 .239-.088l.014-.012.005-.005-.002.002-.011.009c-.005.004-.026.021-.048.034a.335.335 0 0 1-.165.044v-.696zm-.273.112a.463.463 0 0 0-.138.325h.696a.254.254 0 0 1-.02.098.227.227 0 0 1-.055.077l-.483-.501zm.452.576a.384.384 0 0 0 .082-.116c.007-.014.011-.026.014-.034l.006-.017c.001-.004.001-.002 0 0l-.008.018a.338.338 0 0 1-.064.088l-.483-.501a.372.372 0 0 0-.082.116c-.007.014-.011.026-.014.034l-.006.017c-.001.004-.001.002 0 0l.008-.018a.322.322 0 0 1 .064-.088l.483.501zm-.452-.561-.016.015-.016.015.483.501.016-.015.016-.015-.483-.501zm-.031.03a.407.407 0 0 0-.115.221c-.008.045-.007.084-.007.089h.696c0-.01.001.007-.003.029a.312.312 0 0 1-.088.161l-.483-.501zm.574.311h-.696.696zm-.59-.296a.393.393 0 0 0-.109.186c-.015.057-.013.109-.013.11h.696c0-.014.002.023-.009.065a.305.305 0 0 1-.082.141l-.483-.501zm-.122.296c0 .005-.001.045.007.089a.4.4 0 0 0 .115.221l.483-.501a.302.302 0 0 1 .088.161c.004.022.003.039.003.029h-.696zm.364.408v-.696.696zm.272-.098c-.037.035-.075.052-.067.048s.062-.028.114-.078l-.483-.501c.037-.035.075-.052.067-.048s-.062.028-.114.078l.483.501z"/><path d="m2.832 17.278.003.003.016.013c.084.068.214.173.37.214a.642.642 0 0 0 .495-.038l.063-.028.015-.007a.373.373 0 0 1 .052-.021.065.065 0 0 1 .051.001l.009.003c.076.023.138.053.21.088l.105.05a.883.883 0 0 0 .426.094.55.55 0 0 0 .124-.019l.005-.001a.305.305 0 0 1 .053-.01c.017 0 .026.003.046.014l.031.019a.869.869 0 0 0 .096.055l.005.002.005.002a.799.799 0 0 0 .417.057c.061-.009.122-.024.172-.036l.011-.003c.056-.014.1-.024.139-.028a.177.177 0 0 1 .075.004c.012.004.027.012.047.039l.001.001c.04.053.071.105.106.165l.044.073a1.1 1.1 0 0 0 .217.269c.245.216.58.229.844.123a1.557 1.557 0 0 0 .412-.231l.033-.022c.093-.061.236-.156.298-.335a.286.286 0 0 0-.059-.29.334.334 0 0 0-.236-.106.511.511 0 0 0-.296.07c-.074.041-.142.096-.197.14l-.011.009c-.13.105-.201.15-.284.142h-.004c-.032-.002-.065-.019-.11-.085a.994.994 0 0 1-.067-.116l-.01-.02c-.02-.037-.042-.08-.065-.118l-.003-.004c-.122-.185-.3-.367-.589-.407a.778.778 0 0 0-.217.004 2.053 2.053 0 0 0-.093.014l-.008.001-.072.011-.009.002-.052.011a.884.884 0 0 1-.108.017c-.018 0-.04-.002-.087-.032l-.004-.003a.82.82 0 0 0-.222-.098.738.738 0 0 0-.259-.016h-.002a5.29 5.29 0 0 0-.106.013c-.084.011-.123.017-.19-.004a2.13 2.13 0 0 1-.138-.067l-.015-.008c-.046-.024-.098-.052-.152-.076a.732.732 0 0 0-.437-.067c-.089.013-.164.055-.213.082a.564.564 0 0 1-.111.055c-.023.003-.055-.003-.107-.028a1.251 1.251 0 0 1-.09-.05l-.005-.003a1.589 1.589 0 0 0-.103-.057.971.971 0 0 0-.373-.107.438.438 0 0 0-.413.22l-.002.004-.002.004a.227.227 0 0 0 0 .209c.038.074.114.12.201.12.125 0 .226.042.324.124z"/><path d="m7.578 17.929.012-.003.011-.005c.257-.102.474-.171.748-.199h.002c.101-.011.199-.018.301-.025l.082-.006a4.01 4.01 0 0 0 .405-.045c.46-.077.99-.254 1.232-.739l.003-.007.035-.086.001-.001.03-.074a.281.281 0 0 1 .051-.084l.005-.005.004-.005h.001c.003-.004.009-.01.047-.013a.741.741 0 0 1 .067 0h.015c.03 0 .068.001.108-.003a.753.753 0 0 0 .395-.118l.005-.003a.749.749 0 0 0 .164-.168l.008-.011a.294.294 0 0 1 .078-.083.392.392 0 0 1 .122-.035 2.382 2.382 0 0 1 .186-.02c.167-.016.317-.049.478-.095.064-.016.125-.033.184-.049.232-.063.425-.117.641-.096h.005c.303.02.575.14.85.301.118.069.232.144.35.221l.061.04c.138.089.28.18.428.259l.007.003a.293.293 0 0 0 .366-.086.28.28 0 0 0-.026-.372c-.408-.44-.996-.819-1.608-.963a2.16 2.16 0 0 0-.911-.048h-.002c-.143.025-.28.063-.407.098l-.1.027a2.101 2.101 0 0 1-.466.082h-.002a1.028 1.028 0 0 0-.43.103 1.113 1.113 0 0 0-.328.269c-.038.041-.059.047-.08.051a.483.483 0 0 1-.072.006l-.017.001c-.028.001-.062.002-.099.005a.672.672 0 0 0-.426.141.921.921 0 0 0-.263.349 1.129 1.129 0 0 1-.018.035.915.915 0 0 1-.144.234l-.005.005c-.131.149-.327.215-.576.275a4.121 4.121 0 0 1-.418.049l-.03.003c-.144.012-.299.024-.45.048-.32.051-.659.157-.894.451a.22.22 0 0 0 .034.333c.035.026.075.044.112.053s.085.014.135.002zM42.08 14.281l-.007.021-.002.022-.047.602v.012c0 .037-.003.078-.007.129v.003a1.816 1.816 0 0 0-.008.153l-.003.055v.002a.962.962 0 0 0-.004.083c0 .064.01.158.079.241l.006.007.007.007c.048.046.107.06.152.06s.104-.014.152-.06a.354.354 0 0 0 .099-.235c.003-.043.002-.097.001-.133l-.001-.028v-.869a.194.194 0 0 0-.051-.162.208.208 0 0 0-.15-.063.227.227 0 0 0-.215.151z"/><path d="m42.273 14.37-.003.033c-.014.134-.028.268-.028.415a.854.854 0 0 1-.007.092l-.001.008c-.003.031-.008.072-.008.11l-.001.036-.001.013a.557.557 0 0 0 0 .071.345.345 0 0 0 .069.197l.008.01.009.009a.252.252 0 0 0 .173.071.22.22 0 0 0 .186-.1.344.344 0 0 0 .062-.186.835.835 0 0 0 0-.071l-.001-.013-.001-.036v-.21c0-.08-.004-.155-.008-.225v-.002c-.004-.072-.008-.139-.008-.208a.218.218 0 0 0-.22-.219.217.217 0 0 0-.22.207zM28.82 3.939c-.015.193-.031.394-.031.596 0 .037-.003.078-.007.129v.003a1.816 1.816 0 0 0-.008.153v.15l-.001.018v.002a.49.49 0 0 0-.002.045.25.25 0 0 0 .045.147.196.196 0 0 0 .059.062c.037.024.076.03.105.03s.067-.006.105-.03a.18.18 0 0 0 .056-.057.255.255 0 0 0 .051-.106c.009-.037.008-.074.008-.093v-.154c0-.037.003-.078.007-.129v-.003c.004-.044.008-.096.008-.146.016-.2.016-.399.016-.604v-.046l-.019-.038a.215.215 0 0 0-.191-.116.198.198 0 0 0-.199.187zM3.814 6.156v.012l.023.345.023.346v.005l.001.005c.007.054.011.105.015.162v.002c.004.055.008.116.016.181v.003c.003.019.004.039.006.064l.001.01.006.076a.483.483 0 0 0 .065.202c.016.034.042.06.067.077.037.024.076.03.105.03s.067-.006.105-.03a.184.184 0 0 0 .081-.117.856.856 0 0 0 .003-.367l-.001-.009c-.007-.054-.01-.104-.014-.161V6.99c-.004-.054-.008-.113-.016-.176-.008-.114-.02-.227-.031-.337v-.001a10.264 10.264 0 0 1-.031-.332l-.002-.023-.008-.022a.222.222 0 0 0-.209-.151.207.207 0 0 0-.207.208z"/><path d="m4.098 6.481-.02.038v.045c0 .191 0 .375.016.574 0 .184.016.388.065.582.01.057.046.098.082.121.037.024.076.03.105.03s.067-.006.105-.03a.182.182 0 0 0 .083-.132c.025-.152.022-.318.019-.458l-.002-.12v-.007l-.001-.007a7.899 7.899 0 0 1-.011-.172 4.011 4.011 0 0 0-.037-.412l-.004-.028-.013-.025c-.043-.083-.125-.116-.193-.116s-.151.034-.193.116zM30.887 9.602l-3.11 9.969h-1.21l-2.525-7.603a10.856 10.856 0 0 1-.07-.237c-.019-.083-.039-.172-.063-.264-.023.093-.046.181-.07.264s-.046.162-.07.237l-2.539 7.603h-1.21l-3.11-9.969h1.12c.121 0 .22.03.299.09.083.06.137.137.16.23l2.059 6.929c.032.125.063.26.09.403.032.144.063.297.09.459.032-.162.065-.315.097-.459.037-.148.077-.283.118-.403l2.344-6.929a.496.496 0 0 1 .16-.216.448.448 0 0 1 .299-.104h.39c.121 0 .218.03.292.09s.13.137.167.23l2.337 6.929c.042.121.079.25.111.39.037.139.072.285.104.438a8.968 8.968 0 0 1 .167-.828l2.066-6.929a.442.442 0 0 1 .153-.223.47.47 0 0 1 .299-.097h1.05z"/></symbol><symbol id="icon-facebook" viewBox="0 0 32 32"><path d="M16 3c-2.571 0-5.085.762-7.222 2.191S4.974 8.65 3.99 11.025a13.004 13.004 0 0 0 2.818 14.167 13.002 13.002 0 0 0 20.001-1.97A13.003 13.003 0 0 0 29 16 13.018 13.018 0 0 0 16 3zm1 23.954V19h3a.997.997 0 0 0 1-1 .997.997 0 0 0-1-1h-3v-3a2 2 0 0 1 2-2h2a.997.997 0 0 0 1-1 .997.997 0 0 0-1-1h-2a4.003 4.003 0 0 0-4 4v3h-3a.997.997 0 0 0-1 1 .997.997 0 0 0 1 1h3v7.954a10.998 10.998 0 0 1-9.989-11.455 10.996 10.996 0 0 1 18.587-7.453 11 11 0 0 1-6.6 18.908z"/></symbol><symbol id="icon-instagram" viewBox="0 0 32 32"><path d="M16 10a5.998 5.998 0 0 0-4.242 10.243 5.996 5.996 0 0 0 6.539 1.301 6.004 6.004 0 0 0 3.704-5.543 6.007 6.007 0 0 0-6-6zm0 10a4.002 4.002 0 0 1-3.923-4.78 4.006 4.006 0 0 1 3.143-3.143A3.996 3.996 0 0 1 20 16a4.003 4.003 0 0 1-4 4zm6-17H10a7.005 7.005 0 0 0-7 7v12a7.005 7.005 0 0 0 7 7h12a7.005 7.005 0 0 0 7-7V10a7.005 7.005 0 0 0-7-7zm5 19a5.003 5.003 0 0 1-5 5H10a5.001 5.001 0 0 1-5-5V10a4.997 4.997 0 0 1 5-5h12a5 5 0 0 1 5 5v12zM24 9.5a1.495 1.495 0 0 1-.926 1.385 1.496 1.496 0 0 1-1.635-.326 1.5 1.5 0 1 1 2.56-1.061z"/></symbol></defs></svg>