<svg aria-hidden="true" style="position: absolute; width: 0; height: 0; overflow: hidden;" version="1.1" xmlns="http://www.w3.org/2000/svg" xmlns:xlink="http://www.w3.org/1999/xlink">
<defs>
<symbol id="icon-Logo" viewBox="0 0 45 32">
<path d="M13.735 15.749c.031.3.296.465.545.586.14.075.265.135.389.255s.234.285.405.375c.171.09.343.045.498-.06.093-.06.125-.045.202.045.078.075.125.18.187.255.109.15.265.24.452.255.031 0 .109-.015.14 0 .047.03.047.06.062.12.031.135.062.255.078.39.031.255.015.495.031.736 0 .18.062.345.218.465.218.18.654.195.716.495.047.195.062.345.202.51.156.18.327.315.436.525.234.435.343.946.483 1.396l.047.135c.016.06.078.135 0 .165s-.218-.045-.28-.075a.8.8 0 0 0-.327-.075c-.109 0-.171.06-.265.105-.109.045-.125-.045-.218-.09a.291.291 0 0 0-.249-.015c-.093.03-.202.12-.296.105-.125-.015-.187-.12-.171-.24.016-.135-.156-.18-.249-.135a1.19 1.19 0 0 0-.67.691c-.062.15-.078.315-.062.48.016.195.125.39-.047.541-.125.105-.265.18-.374.3-.125.15-.187.315-.249.495-.093.3-.202.946-.67.826a.185.185 0 0 0-.234.18c-.016.45.529.465.81.676.311.255.654.255.997.015.296-.195.514-.54.919-.495.327.03.654.27.701.601.031.195.327.165.28-.03-.093-.586-.763-.991-1.355-.826-.374.105-.576.48-.934.586-.234.075-.343-.105-.529-.21-.125-.09-.529-.135-.529-.315l-.234.18c.374.15.763-.105.934-.435.202-.36.187-.856.545-1.126.14-.105.28-.195.358-.345.109-.195.047-.375 0-.57a.817.817 0 0 1 .514-.931c-.078-.045-.171-.09-.249-.135-.047.405.405.661.763.51.062-.03.109-.075.171-.045.031.015.078.075.109.09.078.045.171.075.249.045.078-.015.125-.075.202-.105.14-.075.265.03.405.09.156.06.358.075.514-.015.202-.12.171-.345.109-.54-.156-.51-.296-1.066-.529-1.546a1.737 1.737 0 0 0-.374-.51c-.078-.09-.171-.165-.218-.285-.047-.135-.031-.27-.093-.39a.725.725 0 0 0-.343-.3c-.14-.075-.343-.105-.452-.225-.093-.09-.062-.195-.062-.315v-.42a3.553 3.553 0 0 0-.125-.796c-.078-.24-.249-.3-.483-.3s-.296-.24-.436-.39c-.156-.18-.405-.3-.638-.18-.047.015-.093.075-.125.09-.015.03-.031.03-.047.015-.031-.03-.062-.045-.078-.075a1.079 1.079 0 0 0-.265-.195c-.358-.18-.856-.21-1.074-.586-.078-.06-.156-.045-.14 0z"/>
<path stroke-width=".696" d="M13.735 15.749c.031.3.296.465.545.586.14.075.265.135.389.255s.234.285.405.375c.171.09.343.045.498-.06.093-.06.125-.045.202.045.078.075.125.18.187.255.109.15.265.24.452.255.031 0 .109-.015.14 0 .047.03.047.06.062.12.031.135.062.255.078.39.031.255.015.495.031.736 0 .18.062.345.218.465.218.18.654.195.716.495.047.195.062.345.202.51.156.18.327.315.436.525.234.435.343.946.483 1.396l.047.135c.016.06.078.135 0 .165s-.218-.045-.28-.075a.8.8 0 0 0-.327-.075c-.109 0-.171.06-.265.105-.109.045-.125-.045-.218-.09a.291.291 0 0 0-.249-.015c-.093.03-.202.12-.296.105-.125-.015-.187-.12-.171-.24.016-.135-.156-.18-.249-.135a1.19 1.19 0 0 0-.67.691c-.062.15-.078.315-.062.48.016.195.125.39-.047.541-.125.105-.265.18-.374.3-.125.15-.187.315-.249.495-.093.3-.202.946-.67.826a.185.185 0 0 0-.234.18c-.016.45.529.465.81.676.311.255.654.255.997.015.296-.195.514-.54.919-.495.327.03.654.27.701.601.031.195.327.165.28-.03-.093-.586-.763-.991-1.355-.826-.374.105-.576.48-.934.586-.234.075-.343-.105-.529-.21-.125-.09-.529-.135-.529-.315l-.234.18c.374.15.763-.105.934-.435.202-.36.187-.856.545-1.126.14-.105.28-.195.358-.345.109-.195.047-.375 0-.57a.817.817 0 0 1 .514-.931c-.078-.045-.171-.09-.249-.135-.047.405.405.661.763.51.062-.03.109-.075.171-.045.031.015.078.075.109.09.078.045.171.075.249.045.078-.015.125-.075.202-.105.14-.075.265.03.405.09.156.06.358.075.514-.015.202-.12.171-.345.109-.54-.156-.51-.296-1.066-.529-1.546a1.737 1.737 0 0 0-.374-.51c-.078-.09-.171-.165-.218-.285-.047-.135-.031-.27-.093-.39a.725.725 0 0 0-.343-.3c-.14-.075-.343-.105-.452-.225-.093-.09-.062-.195-.062-.315v-.42a3.553 3.553 0 0 0-.125-.796c-.078-.24-.249-.3-.483-.3s-.296-.24-.436-.39c-.156-.18-.405-.3-.638-.18-.047.015-.093.075-.125.09-.015.03-.031.03-.047.015-.031-.03-.062-.045-.078-.075a1.079 1.079 0 0 0-.265-.195c-.358-.18-.856-.21-1.074-.586-.078-.06-.156-.045-.14 0z"/>
<path d="M18.172 26.273c0-.54-.031-1.081-.093-1.621-.093.045-.187.075-.28.12.156.15.311.3.467.465.062.06.202.06.249-.03.156-.3.311-.601.436-.901-.093.015-.187.03-.296.03a.488.488 0 0 0 .405.225c.202 0 .327-.15.498-.21.358-.12.747 0 1.106-.165a.78.78 0 0 0 .42-.796c-.062-.345-.374-.57-.716-.601.047.045.109.075.156.12-.14-.375.452-.646.732-.751a2.979 2.979 0 0 1 1.199-.165c.202.015.202-.285 0-.3a3.07 3.07 0 0 0-1.557.285c-.389.18-.856.54-.685 1.006.031.075.078.105.156.12.249.015.452.225.42.465-.031.27-.28.375-.514.405-.218.03-.452.015-.669.06a1.014 1.014 0 0 0-.28.09c-.109.06-.265.21-.374.06-.078-.105-.234-.09-.296.03-.109.285-.249.57-.405.841.078-.015.171-.015.249-.03-.156-.165-.311-.315-.467-.48-.093-.09-.296-.03-.28.12.047.555.14 1.096.249 1.636.016.09.171.075.171-.03z"/>
<path stroke-width=".696" d="M18.172 26.273c0-.54-.031-1.081-.093-1.621-.093.045-.187.075-.28.12.156.15.311.3.467.465.062.06.202.06.249-.03.156-.3.311-.601.436-.901-.093.015-.187.03-.296.03a.488.488 0 0 0 .405.225c.202 0 .327-.15.498-.21.358-.12.747 0 1.106-.165a.78.78 0 0 0 .42-.796c-.062-.345-.374-.57-.716-.601.047.045.109.075.156.12-.14-.375.452-.646.732-.751a2.979 2.979 0 0 1 1.199-.165c.202.015.202-.285 0-.3a3.07 3.07 0 0 0-1.557.285c-.389.18-.856.54-.685 1.006.031.075.078.105.156.12.249.015.452.225.42.465-.031.27-.28.375-.514.405-.218.03-.452.015-.669.06a1.014 1.014 0 0 0-.28.09c-.109.06-.265.21-.374.06-.078-.105-.234-.09-.296.03-.109.285-.249.57-.405.841.078-.015.171-.015.249-.03-.156-.165-.311-.315-.467-.48-.093-.09-.296-.03-.28.12.047.555.14 1.096.249 1.636.016.09.171.075.171-.03z"/>
<path d="M22.408 21.949c.311-.03.638-.06.95-.105.265-.03.607-.075.825.12.093.075.156.195-.016.18-.14-.015-.28-.045-.42-.06l-.997-.135c-.109-.015-.234.045-.218.165.016.165.109.27.265.345.047.015.514.18.265.24-.187.06-.14.3.047.315.529.06.965.42 1.464.585.607.195 1.23 0 1.853.135.14.03.296.075.42.135.078.03.14.06.218.09.016.015.062.045.093.045.031.03.047.03.016-.015 0-.03-.016-.03-.031-.015-.047 0-.125.06-.171.075-.062.03-.14.06-.202.105-.125.06-.249.135-.358.195a7.043 7.043 0 0 0-1.308 1.021c-.156.15-.374.33-.436.555-.047.18.031.39.234.42.218.03.452-.12.685-.15.109-.015.234 0 .311.075s.125.18.202.255c.078.06.156.105.249.105.156 0 .296-.09.374.075.14.24.14.585.125.856-.031.495-.249 1.066.234 1.441.42.33 1.012.24 1.433-.03.265-.165.467-.39.685-.601.218-.225.452-.42.67-.631.093-.075 0-.24-.125-.195-.514.165-.81.645-1.199.991-.327.285-.965.586-1.324.15-.187-.225-.109-.555-.078-.826a2.29 2.29 0 0 0 .016-.796c-.031-.225-.078-.495-.249-.676a.482.482 0 0 0-.249-.12c-.14-.015-.28.075-.389-.03-.062-.075-.109-.15-.171-.225a.688.688 0 0 0-.296-.15c-.218-.045-.436 0-.654.06-.062.015-.125.03-.187.06-.047.03-.062-.015-.031.045.047.06.016 0 .031-.015.031-.03.062-.09.078-.12.047-.06.093-.105.156-.165.187-.195.389-.39.592-.57.42-.345.887-.631 1.386-.886.171-.09.389-.255.234-.45-.14-.18-.483-.285-.716-.345a3.482 3.482 0 0 0-.965-.135c-.343 0-.685.06-1.028-.045-.576-.165-1.028-.57-1.635-.631l.047.315c.249-.075.405-.36.265-.601a.469.469 0 0 0-.265-.195c-.047-.015-.265-.09-.265-.105l-.171.165c.452.06.919.135 1.37.18.311.03.638-.105.514-.465-.109-.315-.467-.45-.794-.45-.467 0-.934.09-1.401.15-.109.06-.109.3.047.285z"/>
<path stroke-width=".696" d="M22.408 21.949c.311-.03.638-.06.95-.105.265-.03.607-.075.825.12.093.075.156.195-.016.18-.14-.015-.28-.045-.42-.06l-.997-.135c-.109-.015-.234.045-.218.165.016.165.109.27.265.345.047.015.514.18.265.24-.187.06-.14.3.047.315.529.06.965.42 1.464.585.607.195 1.23 0 1.853.135.14.03.296.075.42.135.078.03.14.06.218.09.016.015.062.045.093.045.031.03.047.03.016-.015 0-.03-.016-.03-.031-.015-.047 0-.125.06-.171.075-.062.03-.14.06-.202.105-.125.06-.249.135-.358.195a7.043 7.043 0 0 0-1.308 1.021c-.156.15-.374.33-.436.555-.047.18.031.39.234.42.218.03.452-.12.685-.15.109-.015.234 0 .311.075s.125.18.202.255c.078.06.156.105.249.105.156 0 .296-.09.374.075.14.24.14.585.125.856-.031.495-.249 1.066.234 1.441.42.33 1.012.24 1.433-.03.265-.165.467-.39.685-.601.218-.225.452-.42.67-.631.093-.075 0-.24-.125-.195-.514.165-.81.645-1.199.991-.327.285-.965.586-1.324.15-.187-.225-.109-.555-.078-.826a2.29 2.29 0 0 0 .016-.796c-.031-.225-.078-.495-.249-.676a.482.482 0 0 0-.249-.12c-.14-.015-.28.075-.389-.03-.062-.075-.109-.15-.171-.225a.688.688 0 0 0-.296-.15c-.218-.045-.436 0-.654.06-.062.015-.125.03-.187.06-.047.03-.062-.015-.031.045.047.06.016 0 .031-.015.031-.03.062-.09.078-.12.047-.06.093-.105.156-.165.187-.195.389-.39.592-.57.42-.345.887-.631 1.386-.886.171-.09.389-.255.234-.45-.14-.18-.483-.285-.716-.345a3.482 3.482 0 0 0-.965-.135c-.343 0-.685.06-1.028-.045-.576-.165-1.028-.57-1.635-.631l.047.315c.249-.075.405-.36.265-.601a.469.469 0 0 0-.265-.195c-.047-.015-.265-.09-.265-.105l-.171.165c.452.06.919.135 1.37.18.311.03.638-.105.514-.465-.109-.315-.467-.45-.794-.45-.467 0-.934.09-1.401.15-.109.06-.109.3.047.285z"/>
<path d="M29.851 27.804c.156-.135.358-.075.545-.06s.374.015.545-.06c.327-.135.514-.45.794-.661.156-.105.343-.165.529-.12.218.045.327.255.529.33.171.06.374 0 .545-.03a1.54 1.54 0 0 0 .514-.21c.125-.09.249-.195.311-.33.093-.18.031-.375.171-.54.093-.12.202-.225.171-.39s-.202-.24-.358-.255a1.112 1.112 0 0 0-.545.045c-.14.045-.405.15-.483.3l-.031.03c.047.045.047.045.016 0 0-.015-.031-.06-.031-.075-.031-.06-.062-.12-.125-.165-.14-.12-.358-.12-.514-.03-.171.09-.234.33-.42.39-.202.075-.436-.12-.561-.255a3.27 3.27 0 0 1-.716-1.111 4.012 4.012 0 0 1-.171-.586c-.031-.18-.14-.555 0-.691.156-.15.405-.255.592-.375.218-.135.42-.27.638-.405.42-.255.81-.555 1.246-.781.249-.12.42-.03.67-.03.187 0 .358-.09.529-.165.078-.03.171-.075.265-.075.109 0 .218.045.311.06.171.03.327-.03.467-.135.125-.09.202-.225.327-.315.171-.15.389-.12.607-.18s.389-.18.576-.3c.234-.135.405-.195.685-.18.436.03.903-.03.981-.526.031-.255.047-.51.125-.781.062-.24.125-.54.405-.63.234-.075.405-.15.592-.315.171-.165.374-.435.654-.39.125.015.218-.15.093-.225-.436-.24-.747.15-1.043.405-.156.15-.343.165-.545.24-.187.09-.296.255-.374.435-.093.21-.156.435-.202.661l-.047.315c-.016.12 0 .27-.093.36-.156.15-.452.075-.623.06-.218-.015-.42.03-.623.135-.171.09-.327.21-.498.3-.218.105-.452.075-.669.15-.14.06-.249.165-.358.27-.109.12-.218.285-.405.255-.202-.045-.343-.09-.561-.045-.202.06-.389.21-.592.21-.109 0-.218-.045-.343-.045-.109-.015-.218.015-.327.045-.234.075-.42.225-.623.36-.42.27-.841.525-1.261.796-.202.12-.405.255-.607.375-.187.12-.358.21-.405.435-.047.195 0 .42.031.616.031.24.093.465.187.691.156.39.358.766.638 1.096.234.285.561.616.981.586a.726.726 0 0 0 .483-.255c.047-.06.125-.18.218-.195s.109.09.156.165c.078.12.218.21.374.15.078-.03.14-.09.202-.135a.911.911 0 0 1 .296-.195c.093-.03.187-.045.28-.06.047 0 .093 0 .14.015.031 0 .078-.045 0 0-.156.105-.218.315-.234.495-.016.225-.125.345-.343.42-.156.06-.514.195-.669.105-.093-.06-.171-.15-.265-.21a1.077 1.077 0 0 0-.311-.105 1.037 1.037 0 0 0-.638.075c-.358.18-.529.63-.903.766-.358.12-.779-.045-1.028.315-.062.135.047.21.125.165z"/>
<path d="m29.851 27.804.174.301.029-.017.025-.022-.228-.263zm1.09-.12-.133-.322-.007.003.14.319zm.794-.661-.195-.288-.007.005-.007.005.209.278zm.529-.12-.081.338.005.001.006.001.07-.341zm.529.331-.121.326.006.002.115-.328zm.545-.03.06.343.011-.002.011-.003-.081-.338zm.514-.211.195.288.005-.003.005-.003-.204-.282zm.312-.33-.309-.16-.004.007-.003.007.316.146zm.171-.54.265.225.005-.006.005-.006-.275-.214zm-.187-.646-.055.343.011.002.011.001.033-.346zm-.545.045.106.331.009-.003-.115-.328zm-.483.3.241.25.041-.04.026-.051-.309-.16zm-.031.031-.241-.25-.26.25.26.25.241-.25zm.016 0h-.348v.109l.062.089.286-.198zm-.031-.076h.348v-.085l-.039-.075-.309.16zm-.125-.165-.226.264.011.009.012.008.204-.282zm-.514-.03.162.308.006-.003.006-.003-.174-.301zm-.42.391-.106-.331-.007.002-.007.003.121.326zm-.561-.256.256-.236-.004-.004-.004-.004-.247.244zm-.716-1.111.325-.125-.002-.004-.323.129zm-.171-.585-.343.059.002.011.003.011.338-.081zm.592-1.066-.183-.296-.005.003.188.293zm.638-.405-.181-.297-.003.002.183.296zm1.246-.781-.151-.313-.009.004.16.309zm1.199-.195-.125-.325-.007.003-.007.003.14.319zm.576-.015.06-.343-.005-.001-.055.343zm.467-.135-.204-.282-.005.004.209.278zm.327-.316.204.282.013-.01.012-.011-.229-.262zm1.183-.48-.174-.301-.007.004-.007.004.188.293zm.685-.18.024-.347h-.005l-.019.347zm.981-.526.344.054.001-.006.001-.006-.345-.042zm.125-.78.334.096.002-.009-.337-.087zm.405-.631zm.591-.315.23.261.006-.005.005-.005-.241-.25zm.654-.39-.055.343.007.001.007.001.042-.345zm.094-.226.18-.298-.006-.003-.006-.003-.168.305zm-1.044.406-.227-.263-.007.006-.007.007.241.25zm-.544.24-.121-.326-.015.006-.015.007.151.313zm-.374.435.318.141.001-.003-.319-.138zm-.203.661-.341-.071-.002.01-.001.01.344.051zm-.046.315-.344-.051-.001.006.345.045zm-.717.421.03-.347h-.006l-.024.347zm-.622.135-.16-.309-.002.001.162.308zm-.499.3.151.313.005-.003.005-.003-.162-.308zm-.669.15-.113-.329-.012.004-.012.005.137.32zm-.358.27-.241-.25-.008.008-.008.009.258.234zm-.405.256-.076.339.01.002.01.002.055-.343zm-.561-.046-.07-.341-.014.003-.014.004.099.333zm-.934.166-.047.345.024.003h.024v-.348zm-.327.045-.092-.335-.007.002-.007.002.106.331zm-.623.36.188.293.005-.003-.193-.289zm-1.261.796.177.299.005-.003.005-.003-.188-.293zm-.607.375-.177-.299-.005.003-.005.003.188.293zm-.405.435.338.081.001-.005.001-.005-.341-.071zm.031.616.345-.045-.001-.005-.001-.005-.343.055zm.187.69.323-.129-.002-.004-.321.133zm.638 1.096.269-.22-.004-.005-.265.225zm.981.586.025.347h.001l-.026-.347zm.483-.255.256.236.01-.011.009-.011-.275-.214zm.374-.03-.295.184.004.005.292-.189zm.576.015.204.282.02-.014.018-.017-.241-.25zm.296-.196-.106-.331-.013.004-.013.005.133.321zm.28-.06v-.348h-.028l-.027.004.055.343zm-.094.511-.347-.03v.006l.347.024zm-.342.42-.113-.329-.006.002-.006.002.125.325zm-.67.105-.188.293.007.004.007.004.174-.301zm-.264-.21.188-.293-.018-.011-.019-.009-.151.313zm-.312-.105-.07.341.011.002.012.002.047-.345zm-.638.075-.141-.318-.008.003-.007.004.156.311zm-.903.766.111.33.008-.003-.118-.327zm-1.028.315-.286-.198-.017.025-.013.027.316.146zm.353.428-.002.001-.002.001a.123.123 0 0 1 .036-.003c.025 0 .056.003.101.008.039.005.1.013.155.017l.056-.693c-.038-.003-.072-.008-.129-.015a1.539 1.539 0 0 0-.183-.013.723.723 0 0 0-.489.171l.456.525zm.289.024c.197.016.458.023.712-.088l-.279-.637c-.088.038-.201.046-.378.032l-.056.693zm.705-.085c.229-.095.398-.248.527-.377.143-.142.229-.241.343-.327l-.417-.557c-.166.125-.314.288-.416.39-.116.115-.204.187-.302.227l.266.643zm.856-.694c.105-.071.192-.085.253-.07l.163-.676c-.313-.075-.599.031-.805.17l.389.577zm.265-.068c.014.003.037.012.116.079.061.052.191.173.363.237l.242-.652c-.031-.011-.057-.033-.155-.116a.945.945 0 0 0-.425-.229l-.141.681zm.484.318c.158.056.313.05.429.036.103-.012.238-.042.291-.052l-.12-.685c-.118.021-.17.036-.254.046a.261.261 0 0 1-.116-.002l-.23.657zm.742-.02c.207-.05.423-.122.627-.26l-.389-.577c-.108.073-.234.12-.401.16l.163.676zm.636-.267c.128-.093.32-.243.423-.467l-.632-.291c-.021.046-.078.106-.199.194l.408.564zm.416-.452c.08-.155.094-.323.103-.385.012-.079.02-.086.024-.091l-.53-.45a.84.84 0 0 0-.182.439c-.018.122-.02.142-.033.167l.618.32zm.137-.487c.025-.032.109-.129.161-.221a.647.647 0 0 0 .078-.448l-.684.129a.057.057 0 0 1 .001-.022c.002-.008.004-.01-.001-.002a.36.36 0 0 1-.033.047l-.031.039-.039.049.549.427zm.239-.668a.625.625 0 0 0-.29-.415.872.872 0 0 0-.377-.122l-.067.692c.018.002.035.005.049.009s.023.009.026.011l-.009-.01a.087.087 0 0 1-.016-.037l.684-.129zm-.645-.534a1.457 1.457 0 0 0-.715.06l.23.657a.768.768 0 0 1 .375-.03l.11-.687zm-.706.057a1.918 1.918 0 0 0-.324.136c-.105.057-.271.163-.361.335l.618.32c-.009.017-.014.017.003.003a.427.427 0 0 1 .072-.047c.067-.037.147-.066.205-.085l-.213-.662zm-.618.381-.001.001-.001.001-.003.003-.006.005a.012.012 0 0 0-.005.005l-.002.002-.001.001-.001.001-.001.001h-.001l-.001.001-.002.002-.001.001-.001.001c-.001.001.001-.001 0 0l-.001.001c0 .001 0 0 0 0l-.001.001-.001.001c-.001.001 0 0 0 0l.241.25.241.25.001-.001.002-.002.001-.001c.002-.002-.002.002 0 0l.004-.004.01-.01.001-.001.001-.001.001-.001.001-.001.003-.003.003-.003-.483-.501zm-.031.531a.44.44 0 0 0 .056.051c.005.004.017.014.034.025a.346.346 0 0 0 .189.055.347.347 0 0 0 .343-.403c-.009-.057-.031-.098-.032-.101-.01-.021-.022-.038-.023-.041l-.023-.034-.572.396.009.013.002.003-.004-.006-.012-.022a.332.332 0 0 1-.031-.098c-.003-.022-.018-.115.035-.217a.347.347 0 0 1 .534-.102l-.021-.02-.483.501zm.605-.25a.37.37 0 0 0-.018-.111c-.006-.02-.013-.036-.017-.046l-.012-.025-.008-.015-.004-.007.002.004a.125.125 0 0 1 .01.028l.009.034a.322.322 0 0 1 .006.064h-.696a.37.37 0 0 0 .018.111c.006.02.013.036.017.046l.012.025.008.015.004.007-.002-.004a.125.125 0 0 1-.01-.028l-.009-.034a.322.322 0 0 1-.006-.064h.696zm-.071-.236c-.028-.053-.091-.187-.23-.287l-.408.564-.008-.007a.057.057 0 0 1 .009.015l.019.035.618-.32zm-.207-.269c-.274-.234-.657-.216-.914-.067l.348.602c.019-.011.047-.018.074-.017s.038.009.039.01l.453-.528zm-.902-.074a.76.76 0 0 0-.207.164c-.046.05-.087.107-.111.138-.066.086-.069.072-.046.064l.213.662c.21-.067.331-.232.386-.304.036-.047.054-.071.074-.093.017-.019.022-.02.016-.017l-.324-.616zm-.379.372c.04-.015.045.01-.017-.025a.745.745 0 0 1-.167-.14l-.511.471c.075.082.193.192.335.273.136.077.36.162.602.072l-.242-.652zm-.192-.173c-.277-.281-.5-.63-.639-.991l-.649.249c.173.45.448.881.793 1.231l.495-.489zm-.641-.995a3.758 3.758 0 0 1-.156-.538l-.677.162c.046.192.098.411.186.633l.646-.258zm-.151-.516-.034-.173a2.082 2.082 0 0 1-.027-.165.483.483 0 0 1-.002-.099c.003-.017.002.018-.039.057l-.483-.501a.593.593 0 0 0-.166.336 1.084 1.084 0 0 0-.003.278c.015.145.059.338.067.386l.686-.119zm-.102-.381a1.15 1.15 0 0 1 .215-.147c.086-.049.22-.12.323-.186l-.376-.585c-.084.054-.168.096-.292.167a1.797 1.797 0 0 0-.353.25l.483.501zm.534-.33c.112-.069.219-.138.324-.206s.208-.134.314-.2l-.367-.591c-.112.069-.219.138-.324.206s-.208.134-.314.2l.367.591zm.635-.404c.218-.132.431-.278.628-.409a6.34 6.34 0 0 1 .596-.36l-.319-.618a7.51 7.51 0 0 0-.661.398c-.211.139-.403.271-.606.394l.361.595zm1.217-.765a.27.27 0 0 1 .159-.026c.042.003.078.008.144.016.06.007.133.015.216.015v-.696a1.1 1.1 0 0 1-.133-.01c-.044-.005-.113-.015-.177-.019a.96.96 0 0 0-.511.094l.302.627zm.518.005c.279 0 .537-.136.669-.194l-.279-.637c-.21.092-.295.136-.39.136v.696zm.655-.189.065-.026.047-.018c.028-.009.034-.008.028-.008v-.696c-.1 0-.188.024-.249.044-.053.018-.123.047-.141.054l.25.649zm.139-.051c.01 0 .03.002.077.014l.035.009.041.011c.014.004.064.016.103.022l.11-.687c-.027-.004-.047-.011-.121-.03a.988.988 0 0 0-.246-.035v.696zm.252.054c.297.052.549-.059.736-.199l-.417-.557c-.093.07-.153.079-.198.071l-.12.685zm.731-.195c.097-.07.172-.155.218-.207a.686.686 0 0 1 .109-.108l-.408-.564c-.097.07-.172.155-.218.207a.686.686 0 0 1-.109.108l.408.564zm.352-.336c.017-.015.042-.029.119-.043.044-.008.082-.012.147-.022.058-.009.129-.02.204-.041l-.185-.671a1.291 1.291 0 0 1-.121.024c-.042.006-.111.015-.17.026a.904.904 0 0 0-.453.204l.459.523zm.47-.106c.281-.077.503-.234.672-.343l-.376-.585c-.205.132-.325.215-.48.258l.185.671zm.658-.335c.105-.061.178-.094.245-.113a.735.735 0 0 1 .248-.021l.037-.695a1.438 1.438 0 0 0-.473.046 1.736 1.736 0 0 0-.405.18l.348.602zm.487-.134c.231.016.522.014.779-.09a.9.9 0 0 0 .569-.728l-.687-.108c-.011.07-.032.107-.05.128s-.046.044-.093.063c-.105.043-.266.055-.47.041l-.048.694zm1.35-.83c.034-.28.046-.491.114-.726l-.668-.193c-.088.305-.108.605-.136.835l.691.084zm.116-.736c.036-.137.057-.228.095-.303.031-.061.055-.076.08-.084l-.213-.662a.826.826 0 0 0-.489.434c-.079.158-.12.337-.147.44l.673.175zm.175-.387c.257-.083.479-.176.716-.386l-.461-.521c-.137.121-.258.177-.468.245l.213.662zm.727-.396.141-.142a1.3 1.3 0 0 1 .117-.107c.071-.055.095-.049.1-.048l.11-.687a.816.816 0 0 0-.635.184c-.126.097-.264.25-.315.299l.483.501zm.371-.295c.23.028.417-.11.495-.274a.458.458 0 0 0-.181-.594l-.359.596a.24.24 0 0 1-.087-.302.209.209 0 0 1 .215-.116l-.083.691zm.303-.875A.892.892 0 0 0 40 17.16a.962.962 0 0 0-.42.138c-.114.067-.214.15-.297.223-.102.09-.142.132-.223.202l.454.527c.067-.058.176-.16.23-.208a1.23 1.23 0 0 1 .188-.144.276.276 0 0 1 .117-.044c.022-.002.057.001.113.032l.336-.609zm-1.453.459a.33.33 0 0 1-.128.07c-.036.013-.073.023-.125.039a2.502 2.502 0 0 0-.171.055l.242.652c.039-.014.078-.026.126-.041.045-.013.102-.03.157-.049.117-.041.254-.103.382-.226l-.483-.501zm-.455.178c-.297.143-.45.398-.542.611l.639.276c.064-.148.128-.223.206-.26l-.302-.627zm-.54.607a3.564 3.564 0 0 0-.225.731l.681.141c.044-.211.1-.41.18-.59l-.636-.283zm-.229.751-.023.158-.023.158.688.102.023-.158.023-.158-.688-.102zm-.047.322c-.006.043-.008.088-.01.116a1.004 1.004 0 0 1-.006.068c-.005.033-.007.003.026-.029l.483.501a.628.628 0 0 0 .178-.367 1.59 1.59 0 0 0 .013-.126c.002-.037.004-.056.006-.073l-.69-.089zm.01.154c.025-.024.031-.004-.059-.005a1.49 1.49 0 0 1-.132-.011c-.042-.005-.109-.015-.161-.019l-.061.693c.034.003.069.008.135.017.058.007.131.015.207.017.14.002.372-.016.553-.189l-.483-.501zm-.358-.036a1.493 1.493 0 0 0-.807.173l.321.617a.8.8 0 0 1 .439-.097l.048-.694zm-.808.174a3.564 3.564 0 0 0-.275.165 3.096 3.096 0 0 1-.223.135l.324.616c.101-.053.196-.114.275-.165.084-.054.153-.098.223-.135l-.324-.616zm-.488.295a.747.747 0 0 1-.23.055c-.095.013-.252.028-.402.08l.227.658c.068-.023.137-.031.267-.048.116-.015.277-.039.44-.118l-.302-.627zm-.655.143c-.208.089-.362.242-.463.34l.483.501c.117-.113.182-.17.254-.201l-.274-.639zm-.479.357-.047.053-.038.044a.612.612 0 0 1-.051.051c-.011.009-.009.005.002.001a.09.09 0 0 1 .042-.004l-.11.687a.627.627 0 0 0 .507-.146c.091-.074.185-.191.211-.219l-.515-.467zm-.072.149c-.179-.04-.4-.109-.706-.046l.141.681c.13-.027.189-.006.415.044l.151-.679zm-.735-.039c-.133.04-.273.113-.343.145a.397.397 0 0 1-.15.05v.696c.183 0 .339-.067.442-.115.125-.058.18-.089.249-.11l-.198-.667zm-.492.196a.617.617 0 0 1-.097-.016 1.213 1.213 0 0 0-.245-.029v.696a.57.57 0 0 1 .109.016c.047.009.138.029.234.029v-.696zm-.296-.042c-.192-.026-.372.028-.467.054l.185.671a.567.567 0 0 1 .187-.036l.095-.689zm-.48.059c-.294.095-.542.29-.709.402l.386.579c.237-.158.363-.263.536-.318l-.213-.662zm-.705.398c-.208.134-.416.264-.627.395s-.422.264-.634.4l.376.585c.208-.134.416-.264.627-.395s.422-.264.634-.4l-.376-.585zm-1.251.79c-.106.063-.211.129-.312.193-.102.064-.199.125-.296.183l.355.598c.106-.063.211-.129.312-.193.102-.064.199-.125.296-.183l-.355-.598zm-.617.381c-.143.092-.475.259-.557.657l.681.141c.006-.028.015-.045.044-.071a.64.64 0 0 1 .079-.059c.04-.027.075-.048.13-.083l-.376-.585zm-.555.647c-.067.28 0 .592.026.751l.687-.11c-.037-.231-.063-.369-.036-.48l-.677-.162zm.024.742c.035.273.106.528.21.779l.643-.267a2.349 2.349 0 0 1-.163-.602l-.69.089zm.209.774c.166.415.385.826.696 1.192l.53-.45a3.56 3.56 0 0 1-.581-1l-.646.258zm.692 1.188c.123.15.287.333.49.476.206.144.471.259.785.237l-.05-.694a.512.512 0 0 1-.336-.113 1.875 1.875 0 0 1-.351-.346l-.538.441zm1.276.712c.32-.024.552-.192.713-.366l-.511-.471c-.088.096-.167.138-.253.144l.051.694zm.731-.389.023-.03.019-.025a.447.447 0 0 1 .029-.035c.008-.008.008-.007.001-.002s-.032.02-.073.027l-.11-.687a.583.583 0 0 0-.325.186c-.052.055-.106.13-.112.139l.549.427zm-.001-.065c-.021.003-.049.005-.081-.001s-.064-.017-.092-.033a.23.23 0 0 1-.081-.075l.008.019c.008.017.026.056.05.095l.591-.367-.011-.024c-.007-.015-.026-.056-.05-.095a.457.457 0 0 0-.157-.154.428.428 0 0 0-.287-.052l.11.687zm-.191.011c.124.192.418.429.791.285l-.25-.649a.077.077 0 0 1 .056.002c.004.002.003.002 0-.001l-.013-.016-.584.378zm.79.285a.787.787 0 0 0 .188-.107l.057-.044a.47.47 0 0 1 .036-.027l-.408-.564a1.681 1.681 0 0 0-.058.044l-.04.031c-.023.017-.029.019-.026.017l.25.649zm.319-.209a.564.564 0 0 1 .187-.124l-.266-.643c-.15.062-.28.146-.404.266l.483.501zm.161-.114c.064-.021.132-.032.229-.048l-.11-.687c-.09.014-.209.033-.331.072l.213.662zm.174-.044h.028l.014.001c.005 0 .001 0-.008-.002l.213-.662c-.107-.034-.208-.032-.247-.032v.696zm.14.015a.406.406 0 0 0 .282-.114.36.36 0 0 0 .107-.24.349.349 0 0 0-.467-.341.551.551 0 0 0-.097.047l.348.602c.018-.011.005-.001-.023.009a.364.364 0 0 1-.146.017.348.348 0 0 1-.268-.511c.025-.046.055-.075.062-.082a.26.26 0 0 1 .078-.054.293.293 0 0 1 .123-.026v.696zm-.195-.636c-.292.197-.368.547-.386.754l.693.06c.006-.065.019-.125.038-.171s.038-.062.043-.066l-.389-.577zm-.386.76a.216.216 0 0 1-.01.057l-.005.011c0 .001-.019.022-.093.048l.226.658a.869.869 0 0 0 .401-.26.786.786 0 0 0 .175-.466l-.694-.048zm-.12.12a2.28 2.28 0 0 1-.289.095.537.537 0 0 1-.113.017c-.029 0-.008-.006.031.017l-.348.602a.635.635 0 0 0 .328.077 1.22 1.22 0 0 0 .26-.035c.154-.036.303-.093.381-.123l-.25-.649zm-.357.137a.84.84 0 0 1-.091-.074c-.039-.034-.101-.09-.174-.136l-.376.585a.84.84 0 0 1 .091.074c.039.034.101.09.174.136l.376-.585zm-.301-.231a1.412 1.412 0 0 0-.415-.136l-.095.689a.751.751 0 0 1 .208.074l.302-.627zm-.392-.133a1.384 1.384 0 0 0-.85.098l.283.636a.688.688 0 0 1 .427-.052l.141-.681zm-.866.105c-.252.127-.431.345-.55.48-.14.159-.223.236-.315.269l.237.654c.282-.102.471-.317.6-.463.149-.169.235-.266.341-.319l-.313-.621zm-.857.747a.808.808 0 0 1-.192.032c-.061.005-.198.01-.288.019-.225.023-.515.094-.723.396l.572.396c.041-.059.086-.085.223-.1.091-.009.142-.008.268-.017.104-.008.231-.023.361-.066l-.221-.66zm-1.233.499a.476.476 0 0 0 .076.538c.14.144.361.176.538.074l-.348-.602c.1-.058.227-.04.309.044.095.098.07.209.057.238l-.632-.291z"/>
<path d="M40.127 17.776c.311.045.607.06.919.06.265 0 .592.06.856-.03.483-.18.405-.706.498-1.096.062-.195.311-.33.296-.555-.016-.12-.078-.165-.156-.225-.093-.075-.109-.165-.109-.285 0-.225 0-.48-.218-.631a.393.393 0 0 0-.514.015c.093.03.187.045.28.075-.031-.12-.047-.27 0-.39.062-.165.171-.18.343-.195.249-.015.545-.075.592-.36.016-.09-.016-.18-.109-.195-.14-.03-.28-.06-.42-.105-.078-.015-.374-.045-.311-.165.047-.075.249-.105.327-.135a.854.854 0 0 0 .28-.165c.171-.135.296-.315.358-.525.078-.255-.016-.465-.031-.721-.016-.24.218-.45.078-.676-.109-.165-.327-.195-.498-.135-.109.03-.187.105-.296.135-.125.045-.187-.015-.265-.105-.125-.15-.234-.3-.42-.375s-.374-.06-.561-.09c-.078-.015-.156-.015-.202-.075s-.062-.18-.093-.255c-.109-.195-.28-.195-.452-.09-.14.075-.265-.015-.389-.09s-.265-.135-.405-.195a4.874 4.874 0 0 0-.779-.3c-.187-.06-.452-.15-.592.03-.031.03-.062.21-.093.225-.062.03-.28-.12-.343-.15a2.91 2.91 0 0 1-.576-.48c-.187-.21-.28-.48-.467-.706-.171-.225-.42-.255-.685-.24-.296.03-.592.105-.872.225-.14.06-.265.135-.389.21-.062.03-.343.18-.327.015.016-.195-.249-.225-.343-.09-.078.105-.311-.045-.374-.09-.14-.105-.28-.21-.452-.255-.202-.045-.343.045-.514.09a.632.632 0 0 1-.779-.495c-.031-.18.047-.33.062-.495.031-.345-.234-.615-.28-.961-.031-.225-.389-.135-.358.09.031.21.156.39.234.585.093.21 0 .39-.031.601a.95.95 0 0 0 .607.946c.187.075.389.09.592.06.109-.015.218-.09.327-.105.125 0 .218.075.311.135.296.21.716.39.981.03-.109-.03-.234-.06-.343-.09-.016.21.156.375.343.42.249.06.467-.09.654-.21.265-.165.561-.27.872-.315.125-.015.28-.045.389.015.125.06.171.21.234.33.249.435.607.796 1.043 1.051.171.105.42.24.638.135.093-.045.125-.135.156-.21.031-.06.016-.075.093-.075s.187.06.265.09c.296.105.576.225.856.36.218.105.467.315.732.255a.492.492 0 0 0 .156-.075c.016-.015-.016-.075 0 .015s.062.18.109.24c.125.15.311.195.498.21.202.015.405.015.561.165.14.135.218.33.42.39.249.09.405-.075.638-.135.171-.06.093.075.047.165-.047.135-.062.255-.047.39.047.3.125.555-.093.826a.717.717 0 0 1-.358.24c-.125.045-.249.06-.343.135-.187.135-.249.405-.062.571.093.075.218.105.327.135l.561.135c-.031-.06-.078-.135-.109-.195-.031.165-.358.105-.483.135a.577.577 0 0 0-.343.21c-.171.225-.156.51-.093.766.031.12.187.15.28.075.093-.09.156.105.156.15.016.09 0 .195.016.285.016.135.031.285.125.39.016.03.14.12.14.12l-.14.135c-.109.135-.14.315-.171.48-.016.165-.031.33-.078.48-.078.21-.218.255-.436.255-.467 0-.919-.015-1.386.045-.14.045-.187.195-.062.21z"/>
<path stroke-width=".696" d="M40.127 17.776c.311.045.607.06.919.06.265 0 .592.06.856-.03.483-.18.405-.706.498-1.096.062-.195.311-.33.296-.555-.016-.12-.078-.165-.156-.225-.093-.075-.109-.165-.109-.285 0-.225 0-.48-.218-.631a.393.393 0 0 0-.514.015c.093.03.187.045.28.075-.031-.12-.047-.27 0-.39.062-.165.171-.18.343-.195.249-.015.545-.075.592-.36.016-.09-.016-.18-.109-.195-.14-.03-.28-.06-.42-.105-.078-.015-.374-.045-.311-.165.047-.075.249-.105.327-.135a.854.854 0 0 0 .28-.165c.171-.135.296-.315.358-.525.078-.255-.016-.465-.031-.721-.016-.24.218-.45.078-.676-.109-.165-.327-.195-.498-.135-.109.03-.187.105-.296.135-.125.045-.187-.015-.265-.105-.125-.15-.234-.3-.42-.375s-.374-.06-.561-.09c-.078-.015-.156-.015-.202-.075s-.062-.18-.093-.255c-.109-.195-.28-.195-.452-.09-.14.075-.265-.015-.389-.09s-.265-.135-.405-.195a4.874 4.874 0 0 0-.779-.3c-.187-.06-.452-.15-.592.03-.031.03-.062.21-.093.225-.062.03-.28-.12-.343-.15a2.91 2.91 0 0 1-.576-.48c-.187-.21-.28-.48-.467-.706-.171-.225-.42-.255-.685-.24-.296.03-.592.105-.872.225-.14.06-.265.135-.389.21-.062.03-.343.18-.327.015.016-.195-.249-.225-.343-.09-.078.105-.311-.045-.374-.09-.14-.105-.28-.21-.452-.255-.202-.045-.343.045-.514.09a.632.632 0 0 1-.779-.495c-.031-.18.047-.33.062-.495.031-.345-.234-.615-.28-.961-.031-.225-.389-.135-.358.09.031.21.156.39.234.585.093.21 0 .39-.031.601a.95.95 0 0 0 .607.946c.187.075.389.09.592.06.109-.015.218-.09.327-.105.125 0 .218.075.311.135.296.21.716.39.981.03-.109-.03-.234-.06-.343-.09-.016.21.156.375.343.42.249.06.467-.09.654-.21.265-.165.561-.27.872-.315.125-.015.28-.045.389.015.125.06.171.21.234.33.249.435.607.796 1.043 1.051.171.105.42.24.638.135.093-.045.125-.135.156-.21.031-.06.016-.075.093-.075s.187.06.265.09c.296.105.576.225.856.36.218.105.467.315.732.255a.492.492 0 0 0 .156-.075c.016-.015-.016-.075 0 .015s.062.18.109.24c.125.15.311.195.498.21.202.015.405.015.561.165.14.135.218.33.42.39.249.09.405-.075.638-.135.171-.06.093.075.047.165-.047.135-.062.255-.047.39.047.3.125.555-.093.826a.717.717 0 0 1-.358.24c-.125.045-.249.06-.343.135-.187.135-.249.405-.062.571.093.075.218.105.327.135l.561.135c-.031-.06-.078-.135-.109-.195-.031.165-.358.105-.483.135a.577.577 0 0 0-.343.21c-.171.225-.156.51-.093.766.031.12.187.15.28.075.093-.09.156.105.156.15.016.09 0 .195.016.285.016.135.031.285.125.39.016.03.14.12.14.12l-.14.135c-.109.135-.14.315-.171.48-.016.165-.031.33-.078.48-.078.21-.218.255-.436.255-.467 0-.919-.015-1.386.045-.14.045-.187.195-.062.21z"/>
<path d="M31.485 6.786c.062-.12.093-.24.062-.375-.016-.06-.047-.12-.093-.18s-.125-.09-.171-.135c-.047-.045-.031-.135-.047-.195s-.047-.12-.093-.165a.503.503 0 0 0-.405-.12c-.171.015-.311.09-.483.135-.187.045-.327-.135-.498-.195-.343-.12-.732-.045-1.074.03l.218.21a2.37 2.37 0 0 0-.202-1.726c-.031.09-.078.165-.109.255.405-.12.887-.33.872-.811-.016-.195-.14-.33-.296-.435-.202-.135-.358-.27-.467-.495-.187-.375-.296-.871-.716-1.096-.327-.18-.794-.105-.965.225h.311c-.187-.375-.701-.36-1.043-.21-.249.105-.498.3-.779.24-.234-.045-.436-.18-.67-.18-.545 0-.514.631-.887.856a.72.72 0 0 1-.607.06c-.218-.09-.405-.21-.654-.225-.234 0-.467.09-.685.165-.202.075-.452.195-.654.09-.078-.045-.156-.03-.234.03-.716.555-.965 1.456-1.028 2.312-.016.255-.016.51-.016.766 0 .12 0 .255-.015.375 0-.045-.016.06-.016.045-.016 0 .093-.045.093-.03 0 0-.062-.12-.062-.135l-.047-.3c-.047-.24-.14-.48-.28-.691-.265-.375-.701-.585-1.152-.375-.078.03-.187.105-.265.12-.093 0-.156-.09-.249-.12-.14-.06-.28 0-.389.105-.047.045-.156.27-.249.27-.047 0 .031.015 0 0-.016-.015-.031-.09-.031-.12-.016-.09-.031-.18-.062-.27-.14-.36-.592-.48-.934-.345-.234.09-.389.27-.514.465a.718.718 0 0 0-.078.15l-.047.09c.093.075.14.09.109.015.016-.075-.031-.195-.062-.255-.187-.345-.716-.435-.997-.15-.171.165.093.435.28.27.093-.09.265-.075.343.015.109.135.047.33.202.435s.343.03.452-.105c.125-.195.171-.42.374-.555.125-.09.358-.12.483.015.109.135.078.345.156.495.202.33.545.165.747-.06.047-.045.078-.12.14-.15.031-.015-.062-.015-.031.015s.062.045.093.075c.187.12.389.045.576-.03.218-.09.389-.15.592 0 .218.15.327.405.389.646.078.27.047.721.405.811.405.105.42-.435.42-.676 0-.976.016-2.207.903-2.852h-.187c.529.255.95-.15 1.464-.21.296-.03.529.225.825.255.265.03.529-.045.747-.18.249-.165.327-.375.452-.631.156-.33.514-.045.779.015.327.075.607-.06.887-.21.202-.09.592-.255.732 0 .062.105.249.12.311 0 .14-.27.498-.12.654.045.218.24.28.586.436.871.062.135.156.255.265.36.109.09.249.15.343.24.125.105.078.27-.031.375-.125.12-.327.165-.498.21-.125.03-.156.165-.109.255.234.465.28.961.171 1.456-.031.135.093.255.218.21.28-.06.576-.135.856-.045.109.045.202.12.311.165a.796.796 0 0 0 .374.03c.125-.03.234-.09.358-.12.14-.03.187 0 .218.12.015.12.062.21.156.285.109.075.28.12.187.3-.109.195.125.33.218.18z"/>
<path d="m31.485 6.786.295.184.007-.012.006-.012-.309-.16zm.063-.375.339-.078-.002-.009-.337.087zm-.405-.676zm-.405-.12.03.347.007-.001-.037-.346zm-.483.135.082.338.007-.002-.088-.336zm-.498-.195zm-1.074.03-.074-.34-.635.139.468.451.241-.25zm.218.21-.241.25.426.41.152-.571-.336-.089zm-.203-1.726.307-.164-.375-.703-.261.753.329.114zm-.109.255-.329-.114-.221.64.649-.192-.099-.333zm.872-.811.348-.011v-.008l-.001-.008-.347.028zm-.296-.435.195-.288-.001-.001-.193.289zm-.467-.495.313-.152-.002-.003-.311.155zm-.716-1.096-.168.305.004.002.164-.307zm-.965.225-.309-.16-.263.508h.572v-.348zm.311 0v.348h.562l-.25-.503-.311.155zm-1.043-.21.135.321.004-.002-.14-.319zm-.779.24.073-.34-.007-.001-.066.342zm-1.557.675.171.303.005-.003.005-.003-.18-.298zm-.607.061-.133.321.006.002.006.002.121-.326zm-.654-.226.021-.347-.011-.001h-.01v.348zm-.685.165-.113-.329-.008.003.121.326zm-.654.091-.174.301.007.004.007.004.16-.309zm-.234.03-.212-.275-.001.001.213.275zM20.087 4.85l-.347-.025v.004l.347.021zm-.031 1.14h-.348l.693.045-.345-.045zm-.015.046h.348v-.348h-.348v.348zm.093-.031-.309.16.657-.16h-.348zm-.062-.135h.348v-.03l-.005-.029-.343.059zm-.047-.3.344-.051-.001-.008-.001-.008-.341.066zm-.28-.69.29-.193-.005-.007-.284.2zm-1.152-.376.125.325.011-.004.011-.005-.147-.315zm-.265.12v.348h.033l.033-.006-.066-.342zm-.249-.12-.137.32.015.006.015.005.106-.331zm-.67.255h.348v-.03l-.005-.029-.343.059zm-.062-.27.329-.114-.002-.006-.002-.006-.324.126zm-.934-.345.125.325.002-.001-.128-.324zm-.514.465.286.198.004-.005.003-.005-.293-.187zm-.078.15.309.16.012-.022.008-.024-.329-.114zm-.047.091-.309-.16-.131.253.222.178.218-.271zm.109.015-.341-.071-.022.105.041.099.321-.133zm-.062-.256.309-.16-.003-.005-.306.166zm-.996-.15.242.25.007-.007-.248-.244zm.28.27.23.261.006-.005.005-.005-.241-.25zm.342.015.271-.218-.004-.005-.004-.004-.263.227zm.654.331.271.218.012-.015.01-.016-.293-.187zm.374-.556.193.289.005-.004.005-.004-.204-.282zm.483.015.271-.218-.007-.009-.008-.008-.256.236zm.156.496-.309.16.006.011.007.011.297-.182zm.747-.06-.241-.25-.009.009-.008.009.259.233zm.14-.151zm.062.091-.241.25.025.024.029.018.188-.293zm.576-.03.13.323.003-.001-.133-.321zm.592 0-.207.279.005.004.005.003.197-.286zm.389.645-.337.087.003.009.334-.096zm.405.811.087-.337-.003-.001-.085.337zm1.324-3.528.205.281.865-.629h-1.07v.348zm-.187 0V2.46l-.151.661.151-.313zm1.464-.21-.035-.346-.005.001.04.345zm.825.255.039-.346h-.004l-.035.346zm.747-.18.183.296.005-.003.004-.003-.192-.29zm.452-.631.313.153.002-.004-.315-.148zm.778.015.078-.339h-.001l-.077.339zm.888-.21-.141-.318-.012.005-.011.006.164.307zm.732 0-.305.167.003.005.003.005.299-.177zm.311 0zm.654.045.258-.234-.005-.005-.253.239zm.436.871.316-.146-.005-.011-.006-.01-.305.167zm.265.36-.241.25.01.009.01.008.222-.268zm.342.24-.241.25.008.008.009.007.224-.266zm-.031.376zm-.498.21.082.338.007-.002-.088-.336zm-.109.255.311-.156-.002-.004-.309.16zm.171 1.456.339.078.001-.003-.34-.075zm.218.21-.073-.34-.023.005-.022.008.118.327zm.856-.045.133-.321-.013-.005-.013-.004-.106.331zm.312.165-.133.321.007.003.007.003.118-.327zm.374.031.042.345.02-.002.02-.005-.082-.338zm.358-.121-.073-.34-.009.002.082.338zm.218.121.345-.045-.003-.022-.005-.021-.337.087zm.156.285-.218.271.01.008.011.007.197-.286zm.186.3.304.17.003-.005.002-.005-.309-.16zm.527.34a.876.876 0 0 0 .092-.614l-.678.156a.126.126 0 0 1 .001.051.351.351 0 0 1-.033.086l.618.32zm.09-.622a.838.838 0 0 0-.156-.306l-.549.427c.024.031.03.049.031.054l.673-.175zm-.155-.307c-.061-.078-.134-.127-.168-.15-.025-.016-.029-.018-.04-.027-.008-.006-.004-.004.004.004l-.483.501c.031.03.062.053.084.067l.051.034c.028.019.017.015.003-.003l.549-.427zm-.205-.172a.252.252 0 0 1 .063.097l.006.022v.002l-.001-.015a.446.446 0 0 0-.002-.03c-.001-.012-.002-.028-.005-.045s-.006-.039-.012-.063l-.673.175c-.004-.015-.004-.023-.003-.009l.005.063c.005.043.02.19.139.305l.483-.501zm.049-.032a.7.7 0 0 0-.189-.328l-.483.501-.005-.005.003.007.673-.175zm-.189-.328a.85.85 0 0 0-.683-.216l.074.692a.239.239 0 0 1 .087.005.097.097 0 0 1 .039.019l.483-.501zm-.676-.216a1.361 1.361 0 0 0-.322.073c-.096.032-.148.053-.219.072l.177.673c.101-.027.204-.065.264-.086a.682.682 0 0 1 .16-.039l-.061-.693zm-.534.143c.043-.01.064.016.003-.02l-.049-.03-.065-.041a.97.97 0 0 0-.191-.094l-.23.656c.008.003.024.01.057.03.015.009.089.057.125.078a.676.676 0 0 0 .513.096l-.163-.676zm-.302-.185c-.449-.158-.935-.054-1.264.019l.149.68c.356-.078.649-.124.885-.042l.23-.656zm-1.431.609.115.111.103.099.483-.501-.103-.099a11.062 11.062 0 0 1-.115-.111l-.483.501zm.796.049a2.72 2.72 0 0 0-.232-1.98l-.614.327c.24.45.306.975.173 1.473l.672.179zm-.868-1.93c-.009.025-.02.049-.04.093-.018.039-.046.097-.069.162l.657.227c.009-.025.02-.049.04-.093.018-.039.046-.097.069-.162l-.658-.227zm.319.703c.211-.063.483-.159.704-.326.233-.176.429-.447.417-.829l-.695.023c.003.098-.035.172-.14.251-.118.089-.29.157-.483.215l.198.667zm1.12-1.172c-.028-.349-.255-.566-.448-.696l-.389.577a.452.452 0 0 1 .115.102.138.138 0 0 1 .029.073l.694-.055zm-.45-.697c-.179-.119-.277-.212-.347-.358l-.626.303c.148.305.361.482.587.633l.386-.579zm-.348-.361c-.041-.081-.078-.171-.122-.277a4.617 4.617 0 0 0-.151-.332c-.119-.229-.292-.479-.59-.638l-.329.613c.122.066.213.176.301.345.044.085.084.177.127.281.041.099.088.212.141.318l.623-.31zm-.86-1.246a1.152 1.152 0 0 0-.78-.115.953.953 0 0 0-.662.484l.618.32c.028-.054.088-.103.187-.124a.455.455 0 0 1 .302.043l.336-.609zm-1.133.878H27.529v-.696H27.017v.696zm.622-.503c-.16-.321-.458-.458-.731-.492a1.498 1.498 0 0 0-.763.119l.279.637a.797.797 0 0 1 .397-.065c.116.014.168.058.195.112l.623-.31zm-1.49-.376c-.076.032-.15.07-.211.101-.065.033-.117.06-.167.081-.101.043-.154.047-.192.038l-.146.68c.242.052.453-.012.61-.078.078-.033.152-.071.213-.102.065-.033.116-.059.164-.079l-.27-.641zm-.577.219c-.082-.016-.153-.046-.282-.093a1.326 1.326 0 0 0-.453-.094v.696c.052 0 .113.015.216.052.089.032.236.092.387.121l.132-.683zm-.735-.186a.834.834 0 0 0-.531.177 1.153 1.153 0 0 0-.278.341c-.074.129-.096.183-.151.27a.342.342 0 0 1-.106.118l.359.596c.158-.095.261-.226.333-.339.061-.094.135-.24.168-.298a.5.5 0 0 1 .106-.142c.016-.013.04-.028.101-.028v-.696zm-1.058.9a.374.374 0 0 1-.316.037l-.242.652c.312.116.637.064.899-.083l-.341-.606zm-.304.042c-.047-.019-.092-.04-.146-.065a3.704 3.704 0 0 0-.171-.076 1.4 1.4 0 0 0-.45-.11l-.042.694a.688.688 0 0 1 .227.059c.044.018.089.039.142.063.051.024.11.051.173.077l.266-.643zm-.787-.251c-.306 0-.605.118-.798.184l.227.658c.243-.084.411-.146.572-.146v-.696zm-.806.186c-.126.047-.201.08-.285.1a.354.354 0 0 1-.074.01l-.012-.001-.002-.001-.32.617a.817.817 0 0 0 .566.053c.141-.033.292-.097.369-.125l-.242-.652zm-.359.115a.528.528 0 0 0-.341-.068.603.603 0 0 0-.279.123l.425.551c.007-.006-.008.009-.046.014a.18.18 0 0 1-.107-.019l.348-.602zm-.621.057c-.834.647-1.097 1.672-1.161 2.562l.694.051c.06-.822.295-1.598.894-2.062l-.426-.55zM19.74 4.828c-.016.268-.016.533-.016.787h.696c0-.257 0-.502.015-.744l-.694-.042zm-.016.787c0 .125 0 .237-.013.331l.69.089c.019-.146.018-.305.018-.42h-.696zm.68.375-.001-.03a.528.528 0 0 1-.006-.047l-.007-.031a.31.31 0 0 0-.018-.049c-.005-.01-.011-.023-.019-.036a.335.335 0 0 0-.191-.15.348.348 0 0 0-.394.135l-.021.034a.49.49 0 0 0-.022.051l-.006.017a.189.189 0 0 0-.006.021l-.006.026-.004.018-.002.009.001-.003.002-.007.005-.017.006-.018a.38.38 0 0 1 .037-.071l.019-.026a.368.368 0 0 1 .18-.117.346.346 0 0 1 .408.199c.004.011.009.022.011.031l.01.04.004.024.002.027v.014h-.696v.015l.002.028.004.024.01.04.011.031a.387.387 0 0 0 .064.099.345.345 0 0 0 .44.06.43.43 0 0 0 .087-.076.277.277 0 0 0 .019-.026c.01-.014.016-.027.021-.035l.016-.037.006-.019.006-.019.003-.01a.104.104 0 0 1 .003-.012l.003-.016.002-.011c.001-.003.001-.003 0 0a.062.062 0 0 1-.003.011l-.004.013-.01.025-.011.022-.02.034a.349.349 0 0 1-.582-.015c-.008-.013-.014-.026-.019-.036-.009-.02-.015-.037-.018-.048l-.007-.029-.003-.019-.002-.022-.001-.016h.696zm-.363-.302c.013 0 .057 0 .11.018a.35.35 0 0 1 .213.454.32.32 0 0 1-.048.085.32.32 0 0 1-.057.059c-.02.016-.038.026-.042.029a.086.086 0 0 1-.014.007c-.006.003-.006.003-.001.001.007-.003.001 0-.013.003-.002 0-.037.009-.084.005a.343.343 0 0 1-.319-.344h.696a.353.353 0 0 0-.328-.351c-.053-.004-.097.006-.108.008a.57.57 0 0 0-.152.053c-.002.001-.037.018-.072.046a.344.344 0 0 0-.125.332.348.348 0 0 0 .345.289v-.696zm.093.317.309-.16v-.001l-.002-.003-.006-.012-.019-.038-.015-.032.001.004.007.022c.001.004.011.039.011.086h-.696a.323.323 0 0 0 .024.128 1.104 1.104 0 0 0 .075.16l.002.004.001.001c.001 0 0 0 0 0l.309-.16zm.281-.194a9.072 9.072 0 0 1-.045-.292l-.688.102c.015.104.032.213.048.309l.686-.119zm-.048-.307a2.274 2.274 0 0 0-.332-.817l-.579.386c.112.169.19.365.228.564l.683-.133zm-.338-.825c-.328-.465-.931-.794-1.583-.49l.294.631c.251-.117.519-.026.721.26l.569-.401zm-1.561-.499a.93.93 0 0 0-.097.044l-.071.037a.553.553 0 0 1-.045.022c-.012.005-.007.002.008-.001l.132.683a.652.652 0 0 0 .135-.043c.035-.015.067-.032.093-.045l.067-.035.021-.011.006-.003.002-.001-.25-.649zm-.14.097c.035 0 .061.009.074.014.01.004.012.007-.004-.004l-.027-.019a.632.632 0 0 0-.185-.095l-.213.662c-.014-.004-.019-.009-.012-.004l.048.033c.042.028.158.108.319.108v-.696zm-.112-.092c-.325-.139-.611.023-.768.174l.483.501c.013-.012.024-.021.032-.026l.013-.007s-.005.002-.014.001-.016-.002-.021-.004l.274-.639zm-.768.174a.528.528 0 0 0-.06.07l-.034.049-.054.08c-.017.024-.025.031-.022.028.002-.002.014-.013.037-.025s.066-.029.125-.029v.696a.458.458 0 0 0 .305-.126c.051-.046.092-.099.119-.136s.054-.08.069-.102c.026-.039.019-.024-.003-.003l-.483-.501zm-.007.173c-.01 0-.036 0-.067.005a.396.396 0 0 0-.102.032.357.357 0 0 0-.185.227.346.346 0 0 0 .281.43.326.326 0 0 0 .092.006l.035-.003a.357.357 0 0 0 .161-.066.349.349 0 0 0-.066-.598l-.302.627a.21.21 0 0 1-.028-.015c-.007-.004-.016-.01-.027-.019s-.026-.021-.044-.04a.352.352 0 0 1-.078-.33.346.346 0 0 1 .227-.235c.023-.008.043-.011.056-.013l.033-.003h.036a.252.252 0 0 1 .08.017.365.365 0 0 1 .127.08.343.343 0 0 1 .094.175.358.358 0 0 1-.064.283.357.357 0 0 1-.122.1c-.027.013-.05.02-.063.024a.296.296 0 0 1-.065.01h-.011V4.53zm.241.097c.019.018.032.036.04.047s.014.022.018.03c.008.014.012.025.014.029l.003.009-.001-.006.001.022h-.696a.712.712 0 0 0 .042.223c.004.011.03.085.095.148l.483-.501zm.07.071c-.015-.086-.035-.204-.076-.325l-.657.227c.02.059.032.122.048.216l.685-.119zm-.081-.337c-.23-.591-.92-.726-1.386-.543l.255.647c.219-.087.432.019.482.148l.648-.252zm-1.383-.544c-.335.129-.541.383-.682.603l.586.374c.109-.17.214-.277.346-.328l-.25-.649zm-.675.593a1.034 1.034 0 0 0-.12.234l.657.227v-.001l.001-.002.003-.007.009-.019a.299.299 0 0 1 .022-.037l-.572-.396zm-.101.187-.023.045-.023.045.618.32.023-.045.023-.045-.618-.32zm.045.522c.029.023.06.047.093.067a.462.462 0 0 0 .161.067.358.358 0 0 0 .425-.288.39.39 0 0 0-.004-.156c-.007-.032-.018-.059-.026-.079l-.643.267a.326.326 0 0 1-.012-.157.34.34 0 0 1 .178-.239.331.331 0 0 1 .213-.031c.059.011.092.036.08.028a.241.241 0 0 1-.029-.022l-.436.542zm.667-.186a.638.638 0 0 0-.02-.301 1.014 1.014 0 0 0-.074-.185l-.618.32.012.026a.343.343 0 0 1 .012.033l.003.014-.001-.013c0-.007.001-.019.004-.036l.681.141zm-.097-.491a.982.982 0 0 0-.715-.49.959.959 0 0 0-.836.261l.496.488c.047-.048.13-.078.231-.062a.286.286 0 0 1 .211.133l.612-.331zm-1.544-.235a.514.514 0 0 0-.16.413.545.545 0 0 0 .162.343.543.543 0 0 0 .75.025l-.461-.521a.158.158 0 0 1 .117-.035c.041.004.068.022.084.037s.037.046.041.096a.18.18 0 0 1-.051.143l-.483-.501zm.763.771a.12.12 0 0 1-.085.037c-.008 0-.017-.002-.029-.007s-.03-.016-.049-.037l.526-.455a.587.587 0 0 0-.408-.195.585.585 0 0 0-.439.157l.483.501zm-.169-.017c-.01-.012-.012-.034.015.086.02.092.067.287.264.419l.389-.577c.041.028.041.072.026.006-.005-.021-.018-.089-.035-.145a.66.66 0 0 0-.118-.227l-.541.437zm.278.505c.366.247.747.035.917-.175l-.541-.437c-.007.009-.015.016-.022.021l-.01.006c.001 0 .008-.002.019 0l.016.004a.141.141 0 0 1 .011.005l-.389.577zm.94-.206a1.67 1.67 0 0 0 .101-.183c.029-.059.047-.098.07-.139a.332.332 0 0 1 .103-.131l-.386-.579a1.01 1.01 0 0 0-.329.38c-.03.056-.06.118-.081.161a1.167 1.167 0 0 1-.064.117l.586.374zm.284-.461c-.002.001.002-.002.014-.006s.022-.005.031-.005h.007a.073.073 0 0 1-.028-.02l.512-.472a.658.658 0 0 0-.504-.204.784.784 0 0 0-.438.143l.408.564zm.008-.048c-.008-.01.002-.007.018.084.006.033.015.094.028.148a.858.858 0 0 0 .072.205l.618-.32-.003-.009-.008-.03c-.007-.032-.011-.06-.021-.115a.857.857 0 0 0-.161-.4l-.541.437zm.13.458a.68.68 0 0 0 .741.337 1.09 1.09 0 0 0 .562-.346l-.517-.465c-.033.037-.07.069-.106.093s-.065.034-.079.037c-.012.002-.005-.001.008.005s.006.009-.015-.024l-.593.364zm1.285.009a.647.647 0 0 0 .069-.079l.019-.026.012-.016c.006-.008.005-.006-.001 0s-.023.021-.049.033l-.302-.627a.567.567 0 0 0-.202.172l-.02.027-.012.016c-.003.004-.005.005.003-.002l.483.501zm.05-.087a.366.366 0 0 0 .183-.202.347.347 0 0 0-.196-.439.376.376 0 0 0-.196-.026.39.39 0 0 0-.226.11.353.353 0 0 0-.096.309c.018.108.08.174.108.202l.483-.501a.331.331 0 0 1 .08.353.326.326 0 0 1-.316.221c-.012-.001-.054-.003-.106-.025a.345.345 0 0 1-.19-.433c.032-.089.09-.138.11-.155.026-.021.049-.032.06-.038l.302.627zm-.423-.048c.036.034.07.059.084.069l.009.006.483-.501a.818.818 0 0 0-.084-.069l-.009-.006-.483.501zm.146.117c.359.231.737.063.894 0l-.259-.646a.91.91 0 0 1-.205.066c-.036.005-.045-.001-.053-.006l-.376.585zm.897-.001c.054-.022.094-.038.129-.049s.055-.015.067-.016c.01-.001.015 0 .018.001s.016.005.038.022l.414-.559a.757.757 0 0 0-.525-.157c-.158.012-.304.073-.407.115l.266.643zm.262-.035c.112.077.194.23.25.446l.673-.175c-.068-.264-.205-.622-.529-.845l-.395.573zm.252.455c.013.044.022.1.037.189.013.08.031.184.061.286.062.209.203.488.556.576l.17-.675c-.005-.001-.027.007-.059-.099a1.86 1.86 0 0 1-.042-.203c-.012-.074-.028-.176-.055-.267l-.668.193zm.652 1.051c.178.046.362.03.519-.076a.703.703 0 0 0 .258-.351 1.8 1.8 0 0 0 .079-.585h-.696c0 .057-.001.123-.007.189a.654.654 0 0 1-.031.161c-.015.041-.02.029.007.01.04-.027.071-.015.046-.021l-.175.673zm.855-1.012c0-.492.005-1.007.11-1.474.104-.461.297-.841.65-1.097l-.409-.563c-.535.389-.793.948-.919 1.507-.125.554-.127 1.143-.127 1.626h.696zm.556-3.2v.696-.696zm-.338.661c.382.184.724.119.997.03.116-.038.272-.1.363-.132.111-.039.205-.066.295-.076l-.081-.691a2.028 2.028 0 0 0-.447.112c-.149.053-.228.088-.347.127-.199.065-.331.075-.479.004l-.302.627zm1.65-.177c.041-.004.093.008.227.072.107.052.305.16.529.183l.07-.692c-.072-.007-.139-.041-.297-.117-.131-.063-.343-.164-.599-.138l.07.692zm.751.254c.355.04.697-.061.97-.23l-.366-.591a.832.832 0 0 1-.525.13l-.078.691zm.978-.235c.345-.229.463-.545.572-.768l-.625-.305c-.14.287-.178.392-.331.493l.384.58zm.574-.773c.006-.012-.01.022-.06.038-.032.01-.041-.001.005.011.044.012.096.033.176.065.068.028.167.069.266.091l.154-.678a.971.971 0 0 1-.156-.057c-.067-.027-.164-.068-.262-.094a.705.705 0 0 0-.392-.002.595.595 0 0 0-.36.329l.629.297zm.386.206c.468.107.856-.096 1.13-.243l-.328-.613c-.287.154-.459.22-.645.178l-.156.678zm1.107-.231c.105-.047.212-.09.299-.103.041-.006.051-.001.041-.004a.103.103 0 0 1-.054-.044l.61-.335c-.177-.322-.508-.334-.698-.306-.194.029-.383.113-.48.156l.283.636zm.291-.141c.105.176.29.25.444.255a.51.51 0 0 0 .475-.272l-.618-.32a.185.185 0 0 1 .164-.103.161.161 0 0 1 .133.086l-.598.355zm.92-.017c0-.001-.003.006-.012.014s-.021.016-.032.02c-.021.008-.028.002-.009.006s.046.013.078.031a.31.31 0 0 1 .068.052l.506-.477a1.012 1.012 0 0 0-.52-.289.674.674 0 0 0-.372.027.61.61 0 0 0-.324.295l.618.32zm.087.119c.066.073.118.172.177.317.052.127.121.322.211.487l.611-.333c-.066-.12-.106-.241-.178-.417a1.717 1.717 0 0 0-.306-.52l-.515.468zm.378.782c.085.184.207.338.339.465l.483-.501a.866.866 0 0 1-.19-.256l-.632.291zm.359.483c.077.063.163.115.215.147a.72.72 0 0 1 .108.075l.483-.501c-.077-.074-.166-.129-.223-.165-.068-.043-.107-.066-.139-.093l-.443.536zm.34.238a.139.139 0 0 1-.04-.06.145.145 0 0 1-.008-.067l.004-.016a.042.042 0 0 1 .002-.005l-.002.002-.004.005.483.501a.685.685 0 0 0 .206-.388.546.546 0 0 0-.192-.503l-.449.532zm-.048-.141a.324.324 0 0 1-.109.057c-.068.025-.14.042-.236.067l.177.673c.075-.02.19-.048.297-.087a.977.977 0 0 0 .354-.21l-.483-.501zm-.339.123a.51.51 0 0 0-.365.326.54.54 0 0 0 .028.428l.618-.32a.16.16 0 0 1 .009.128c-.008.023-.024.049-.048.072s-.054.037-.079.043l-.163-.676zm-.338.749c.195.388.236.802.142 1.225l.679.149a2.496 2.496 0 0 0-.2-1.687l-.622.312zm.143 1.222c-.084.364.254.768.675.615l-.237-.654c.078-.028.152 0 .192.039s.061.097.047.156l-.678-.156zm.63.628c.313-.067.505-.109.677-.054l.213-.662c-.388-.125-.789-.017-1.036.036l.146.68zm.651-.063a.837.837 0 0 1 .111.06c.047.028.119.071.2.105l.266-.643a.905.905 0 0 1-.111-.06c-.047-.028-.119-.071-.2-.105l-.266.643zm.326.171c.197.071.383.066.534.048l-.083-.691a.451.451 0 0 1-.214-.012l-.237.654zm.573.041c.088-.021.168-.052.223-.074a.98.98 0 0 1 .135-.046l-.163-.676a1.609 1.609 0 0 0-.223.074.98.98 0 0 1-.135.046l.163.676zm.35-.118c.023-.005.022-.003.009-.003a.241.241 0 0 1-.194-.119c-.011-.019-.011-.027-.007-.011l.673-.175a.512.512 0 0 0-.233-.332.546.546 0 0 0-.394-.041l.146.68zm-.2-.176a.756.756 0 0 0 .283.512l.436-.542c-.015-.012-.018-.018-.019-.02s-.006-.013-.01-.039l-.69.089zm.303.527.064.041.025.015.02.012c.028.016.025.017.016.008a.22.22 0 0 1-.059-.121c-.01-.064.011-.102.01-.099l.618.32a.53.53 0 0 0 .061-.324.476.476 0 0 0-.146-.276.786.786 0 0 0-.146-.107c-.045-.026-.054-.031-.067-.04l-.395.573zm.081-.156a.504.504 0 0 0 .138.674.474.474 0 0 0 .68-.141l-.591-.368a.223.223 0 0 1 .31-.062c.04.028.072.072.083.125a.162.162 0 0 1-.011.11l-.607-.339z"/><path d="M14.84 4.459c.093-.015.125-.045.093-.105a.28.28 0 0 0-.031-.105.326.326 0 0 0-.109-.135c-.078-.06-.171-.075-.265-.06-.171.045-.467.39-.592.165-.062-.12-.311-.105-.327.045a.45.45 0 0 1-.28.36l.249.24a.345.345 0 0 0-.093-.465c-.187-.165-.405-.165-.638-.135-.109.015-.218.015-.296-.045s-.125-.165-.187-.24c-.156-.21-.374-.27-.607-.345a16.215 16.215 0 0 0-3.488-.601 22.548 22.548 0 0 0-1.744-.03c-.42.015-.872.09-1.23.315a1.187 1.187 0 0 0-.405.42c-.078.12-.14.39-.28.45-.093.045-.171-.015-.249-.06a.727.727 0 0 0-.311-.075.527.527 0 0 0-.42.285c-.218.42-.062 1.006.078 1.426.187.525.498 1.006.919 1.396l.093-.315a.454.454 0 0 0-.343.435c0 .27.218.465.265.721.031.135.016.285-.078.39-.109.12-.218.09-.358.105-.311 0-.467.255-.654.465-.436.495-.872 1.006-1.308 1.501-.358.42-.841.856-.965 1.411-.156.646.125 1.291.405 1.877.016-.09.047-.165.062-.255-.047.015-.187-.06-.234-.075-.109 0-.202-.03-.311-.015-.265.06-.343.375-.436.585-.14.315-.296.616-.436.931-.109.225-.327.525-.28.796s.405.465.607.631c.265.21.529.435.794.646.187.15.405.33.67.345.234.015.452-.075.576-.27.109-.195-.202-.375-.311-.18-.202.39-.888-.315-1.059-.45l-.592-.48c-.093-.075-.218-.135-.28-.225-.093-.135.031-.285.078-.405.218-.435.42-.871.638-1.321.031-.06.078-.225.14-.24.047-.015.156.06.187.075.156.06.28.075.436 0 .093-.045.109-.165.062-.255-.296-.616-.592-1.351-.171-1.997.187-.285.436-.54.67-.796.249-.285.498-.57.732-.856.249-.285.498-.571.732-.856.047-.06.109-.165.187-.18.078-.03.187 0 .28 0a.63.63 0 0 0 .327-.135c.234-.18.311-.45.28-.736a1.118 1.118 0 0 0-.156-.45c-.031-.06-.187-.3-.047-.33s.187-.225.093-.315a3.012 3.012 0 0 1-.732-1.066c-.14-.345-.296-.811-.218-1.186.031-.165.093-.255.265-.18s.343.15.529.075c.343-.135.389-.51.592-.751.218-.27.623-.36.965-.405.467-.045.934-.045 1.386-.03 1.043.03 2.086.165 3.114.39.28.06.561.12.825.195.109.03.249.045.343.105s.14.15.202.24c.125.165.28.285.498.3.125.015.249-.015.374-.015.031 0 .249.03.218.09-.093.165.093.315.249.24.265-.12.405-.36.452-.631-.109.03-.218.06-.343.09a.516.516 0 0 0 .467.255c.093 0 .187-.045.265-.09s.156-.15.234-.165c.047-.015 0-.03.031.045.016.045.031.105.047.135.047.06.109.105.187.135.156.045.296-.045.311-.21-.016-.165-.311-.21-.343-.045z"/>
<path stroke-width=".696" d="M14.84 4.459c.093-.015.125-.045.093-.105a.28.28 0 0 0-.031-.105.326.326 0 0 0-.109-.135c-.078-.06-.171-.075-.265-.06-.171.045-.467.39-.592.165-.062-.12-.311-.105-.327.045a.45.45 0 0 1-.28.36l.249.24a.345.345 0 0 0-.093-.465c-.187-.165-.405-.165-.638-.135-.109.015-.218.015-.296-.045s-.125-.165-.187-.24c-.156-.21-.374-.27-.607-.345a16.215 16.215 0 0 0-3.488-.601 22.548 22.548 0 0 0-1.744-.03c-.42.015-.872.09-1.23.315a1.187 1.187 0 0 0-.405.42c-.078.12-.14.39-.28.45-.093.045-.171-.015-.249-.06a.727.727 0 0 0-.311-.075.527.527 0 0 0-.42.285c-.218.42-.062 1.006.078 1.426.187.525.498 1.006.919 1.396l.093-.315a.454.454 0 0 0-.343.435c0 .27.218.465.265.721.031.135.016.285-.078.39-.109.12-.218.09-.358.105-.311 0-.467.255-.654.465-.436.495-.872 1.006-1.308 1.501-.358.42-.841.856-.965 1.411-.156.646.125 1.291.405 1.877.016-.09.047-.165.062-.255-.047.015-.187-.06-.234-.075-.109 0-.202-.03-.311-.015-.265.06-.343.375-.436.585-.14.315-.296.616-.436.931-.109.225-.327.525-.28.796s.405.465.607.631c.265.21.529.435.794.646.187.15.405.33.67.345.234.015.452-.075.576-.27.109-.195-.202-.375-.311-.18-.202.39-.888-.315-1.059-.45l-.592-.48c-.093-.075-.218-.135-.28-.225-.093-.135.031-.285.078-.405.218-.435.42-.871.638-1.321.031-.06.078-.225.14-.24.047-.015.156.06.187.075.156.06.28.075.436 0 .093-.045.109-.165.062-.255-.296-.616-.592-1.351-.171-1.997.187-.285.436-.54.67-.796.249-.285.498-.57.732-.856.249-.285.498-.571.732-.856.047-.06.109-.165.187-.18.078-.03.187 0 .28 0a.63.63 0 0 0 .327-.135c.234-.18.311-.45.28-.736a1.118 1.118 0 0 0-.156-.45c-.031-.06-.187-.3-.047-.33s.187-.225.093-.315a3.012 3.012 0 0 1-.732-1.066c-.14-.345-.296-.811-.218-1.186.031-.165.093-.255.265-.18s.343.15.529.075c.343-.135.389-.51.592-.751.218-.27.623-.36.965-.405.467-.045.934-.045 1.386-.03 1.043.03 2.086.165 3.114.39.28.06.561.12.825.195.109.03.249.045.343.105s.14.15.202.24c.125.165.28.285.498.3.125.015.249-.015.374-.015.031 0 .249.03.218.09-.093.165.093.315.249.24.265-.12.405-.36.452-.631-.109.03-.218.06-.343.09a.516.516 0 0 0 .467.255c.093 0 .187-.045.265-.09s.156-.15.234-.165c.047-.015 0-.03.031.045.016.045.031.105.047.135.047.06.109.105.187.135.156.045.296-.045.311-.21-.016-.165-.311-.21-.343-.045z"/>
<path d="M2.555 16.995c0-.015-.016-.015-.031-.015.016.015.047.015.062.015h.016c-.031 0-.062-.015-.078-.015.016.015.031.03.047.03h.094c.016 0 .016 0 .031-.015-.016 0-.016 0-.031.015h.016c.016 0 .016 0 .031-.015.016 0 .016-.015.031-.03s.031-.045.016-.06c0-.015 0-.03-.016-.045 0-.015-.016-.015-.031-.03s-.016-.015-.031-.015h-.047c-.016 0-.047 0-.062.015 0 0-.016 0-.016.015-.016 0-.016.015-.031.015a.11.11 0 0 0-.031.075c.016-.015.016-.045.031-.06l-.031.03c-.015.015-.016.045-.016.06v-.045c-.016.015-.016.03-.016.045s0 .045.016.06h.031c.016-.015.031-.015.047-.03z"/>
<path d="M2.555 17.169a.193.193 0 0 0 .125-.046l.011-.01-.005.004c-.004.003-.012.01-.022.016a.15.15 0 0 1-.078.021v-.348a.193.193 0 0 0-.125.046l-.011.01.005-.005a.167.167 0 0 1 .06-.032.15.15 0 0 1 .04-.005v.348zm0-.174.241.25.106-.103v-.148h-.348zm-.031-.015v-.348h-.862l.62.598.241-.25zm.171.015.241.25.62-.598h-.862v.348zm.015 0v-.348h-.14l-.101.097.241.25zm.047-.09h-.348v.148l.106.103.241-.25zm-.015-.045h-.348v.148l.106.103.241-.25zm-.172-.03v.348h.14l.101-.097-.241-.25zm-.015.015v.348h.348v-.348h-.348zm-.031.015v-.348h-.14l-.101.097.241.25zm-.032.075h-.348v.819l.589-.568-.241-.25zm-.015-.015h.348v-.819l-.589.568.241.25zm0 .105-.241.25.101.097h.14v-.348zm.031 0v.348h.14l.101-.097-.241-.25zm.395-.03a.362.362 0 0 0-.379-.363v.696h-.011a.331.331 0 0 1-.305-.332h.696zm-.621.235a.4.4 0 0 0 .217.106c.043.007.08.006.086.006v-.696c-.01 0 .005-.001.024.003a.304.304 0 0 1 .155.079l-.483.501zm.304.113h.016v-.696h-.016v.696zm.015-.696c.019 0 .034.002.041.004l.007.001-.008-.002-.018-.005a.327.327 0 0 0-.034-.007c-.014-.002-.037-.006-.065-.006v.696c-.024 0-.043-.003-.052-.004l-.018-.004c-.002-.001-.003-.001 0 0l.011.003a.468.468 0 0 0 .137.02v-.696zm-.319.583a.533.533 0 0 0 .061.052c.029.021.11.075.227.075v-.696a.3.3 0 0 1 .18.057c.016.012.027.023.014.011l-.483.501zm.288.128v-.696.696zm.031 0h.016v-.696h-.016v.696zm.016 0v-.696.696zm.031 0h.016v-.696h-.016v.696zm.016 0h.012c.006 0 .017 0 .031-.002a.347.347 0 0 0 .124-.035c.042-.02.071-.045.083-.055l.023-.021-.483-.501.004-.004a.319.319 0 0 1 .182-.077c.018-.002.034-.001.024-.001v.696zm.031-.711h-.012c-.006 0-.017 0-.031.002a.347.347 0 0 0-.124.035c-.042.02-.071.045-.083.055l-.023.021.483.501-.004.004a.319.319 0 0 1-.182.077c-.018.002-.034.001-.024.001v-.696zm-.031.711h.016v-.696h-.016v.696zm.015 0h.012c.006 0 .017 0 .031-.002a.347.347 0 0 0 .124-.035c.042-.02.071-.045.083-.055l.023-.021-.483-.501.004-.004a.319.319 0 0 1 .182-.077c.018-.002.034-.001.024-.001v.696zm.031-.015a.367.367 0 0 0 .204-.062c.057-.038.088-.084.098-.097.03-.044-.004.007-.029.032l-.483-.501a.373.373 0 0 0-.054.064l-.01.015.004-.006a.332.332 0 0 1 .27-.141v.696zm.273-.128a.423.423 0 0 0 .107-.167.374.374 0 0 0-.091-.394l-.483.501a.32.32 0 0 1-.083-.334.274.274 0 0 1 .068-.107l.483.501zm.122-.31c0-.001.002-.053-.013-.11a.403.403 0 0 0-.109-.186l-.483.501a.295.295 0 0 1-.082-.141c-.011-.042-.009-.079-.009-.065h.696zm-.016-.045a.362.362 0 0 0-.069-.213c-.041-.056-.088-.086-.1-.094-.044-.028.007.003.032.027l-.483.501a.41.41 0 0 0 .065.051l.015.009-.005-.003a.333.333 0 0 1-.15-.277h.696zm-.137-.281-.023-.021a.357.357 0 0 0-.207-.09l-.031-.002h-.012v.696l-.024-.001a.343.343 0 0 1-.186-.081l.483-.501zm-.273-.112v.696-.696zm-.046 0c-.002 0-.171-.016-.304.112l.483.501c-.018.017-.041.035-.071.051s-.058.023-.079.027c-.019.004-.034.004-.036.004h.007v-.696zm-.063.363v-.348h-.011l-.013.001-.033.004a.356.356 0 0 0-.241.152.36.36 0 0 0-.064.207h.696a.337.337 0 0 1-.189.3.308.308 0 0 1-.121.031l-.012.001H2.571c-.001 0 0 0 0 0v-.348zm-.015-.333a.369.369 0 0 0-.239.088l-.014.012-.005.005.002-.002.011-.009c.005-.004.026-.021.048-.034a.335.335 0 0 1 .165-.044v.696a.369.369 0 0 0 .239-.088l.014-.012.005-.005-.002.002-.011.009c-.005.004-.026.021-.048.034a.335.335 0 0 1-.165.044v-.696zm-.273.112a.463.463 0 0 0-.138.325h.696a.254.254 0 0 1-.02.098.227.227 0 0 1-.055.077l-.483-.501zm.452.576a.384.384 0 0 0 .082-.116c.007-.014.011-.026.014-.034l.006-.017c.001-.004.001-.002 0 0l-.008.018a.338.338 0 0 1-.064.088l-.483-.501a.372.372 0 0 0-.082.116c-.007.014-.011.026-.014.034l-.006.017c-.001.004-.001.002 0 0l.008-.018a.322.322 0 0 1 .064-.088l.483.501zm-.452-.561-.016.015-.016.015.483.501.016-.015.016-.015-.483-.501zm-.031.03a.407.407 0 0 0-.115.221c-.008.045-.007.084-.007.089h.696c0-.01.001.007-.003.029a.312.312 0 0 1-.088.161l-.483-.501zm.574.311h-.696.696zm-.59-.296a.393.393 0 0 0-.109.186c-.015.057-.013.109-.013.11h.696c0-.014.002.023-.009.065a.305.305 0 0 1-.082.141l-.483-.501zm-.122.296c0 .005-.001.045.007.089a.4.4 0 0 0 .115.221l.483-.501a.302.302 0 0 1 .088.161c.004.022.003.039.003.029h-.696zm.364.408v-.696.696zm.272-.098c-.037.035-.075.052-.067.048s.062-.028.114-.078l-.483-.501c.037-.035.075-.052.067-.048s-.062.028-.114.078l.483.501z"/>
<path d="M2.508 16.98c.171 0 .311.06.436.165.093.075.202.165.327.195.125.045.249.03.374-.03.109-.045.187-.105.311-.06.249.075.42.24.685.225.062 0 .125-.03.187-.03.109 0 .156.06.249.105.109.045.218.06.327.045.218-.03.452-.165.607.045.125.165.187.345.343.48.187.165.452.18.67.09.14-.045.265-.135.374-.21s.218-.135.265-.27c.031-.09-.047-.165-.14-.165-.296-.03-.467.39-.794.36-.218-.015-.296-.27-.389-.42-.109-.165-.249-.3-.467-.33-.109-.015-.234.015-.343.03-.156.03-.234.06-.374-.03a.538.538 0 0 0-.374-.09c-.14.015-.234.045-.374 0-.218-.09-.405-.255-.654-.21-.109.015-.202.105-.311.135-.156.03-.296-.09-.42-.15-.187-.09-.436-.165-.561.045-.016.03 0 .075.047.075z"/>
<path stroke-width=".696" d="M2.508 16.98c.171 0 .311.06.436.165.093.075.202.165.327.195.125.045.249.03.374-.03.109-.045.187-.105.311-.06.249.075.42.24.685.225.062 0 .125-.03.187-.03.109 0 .156.06.249.105.109.045.218.06.327.045.218-.03.452-.165.607.045.125.165.187.345.343.48.187.165.452.18.67.09.14-.045.265-.135.374-.21s.218-.135.265-.27c.031-.09-.047-.165-.14-.165-.296-.03-.467.39-.794.36-.218-.015-.296-.27-.389-.42-.109-.165-.249-.3-.467-.33-.109-.015-.234.015-.343.03-.156.03-.234.06-.374-.03a.538.538 0 0 0-.374-.09c-.14.015-.234.045-.374 0-.218-.09-.405-.255-.654-.21-.109.015-.202.105-.311.135-.156.03-.296-.09-.42-.15-.187-.09-.436-.165-.561.045-.016.03 0 .075.047.075z"/>
<path d="M7.537 17.76a2.81 2.81 0 0 1 .794-.21c.265-.03.514-.03.779-.075.452-.075.903-.24 1.105-.645.047-.105.078-.225.156-.3.093-.105.234-.06.358-.075.109 0 .218-.03.311-.09.109-.075.156-.21.265-.27s.249-.06.374-.075c.156-.015.296-.045.452-.09.296-.075.576-.18.887-.15.685.045 1.199.54 1.759.841.125.06.234-.09.14-.18-.389-.42-.95-.781-1.526-.916a1.996 1.996 0 0 0-.841-.045c-.343.06-.638.195-.997.21-.296.015-.452.105-.638.315-.125.135-.218.105-.389.12a.5.5 0 0 0-.327.105c-.202.15-.234.42-.405.601-.171.195-.42.27-.67.33-.545.105-1.308 0-1.697.495-.062.06.047.12.109.105z"/>
<path stroke-width=".696" d="M7.537 17.76a2.81 2.81 0 0 1 .794-.21c.265-.03.514-.03.779-.075.452-.075.903-.24 1.105-.645.047-.105.078-.225.156-.3.093-.105.234-.06.358-.075.109 0 .218-.03.311-.09.109-.075.156-.21.265-.27s.249-.06.374-.075c.156-.015.296-.045.452-.09.296-.075.576-.18.887-.15.685.045 1.199.54 1.759.841.125.06.234-.09.14-.18-.389-.42-.95-.781-1.526-.916a1.996 1.996 0 0 0-.841-.045c-.343.06-.638.195-.997.21-.296.015-.452.105-.638.315-.125.135-.218.105-.389.12a.5.5 0 0 0-.327.105c-.202.15-.234.42-.405.601-.171.195-.42.27-.67.33-.545.105-1.308 0-1.697.495-.062.06.047.12.109.105z"/>
<path d="m42.245 14.338-.047.601c0 .09-.016.195-.016.285s-.031.195.031.27c.016.015.047.015.062 0 .062-.06.047-.18.047-.27V14.338c.016-.045-.062-.045-.078 0z"/>
<path stroke-width=".696" d="m42.245 14.338-.047.601c0 .09-.016.195-.016.285s-.031.195.031.27c.016.015.047.015.062 0 .062-.06.047-.18.047-.27V14.338c.016-.045-.062-.045-.078 0z"/>
<path d="M42.447 14.383c-.016.15-.031.285-.031.435 0 .075-.016.15-.016.21 0 .075-.016.15.031.21.031.03.078.03.093 0 .047-.06.031-.135.031-.21v-.21c0-.15-.016-.285-.016-.435 0-.06-.093-.06-.093 0z"/>
<path stroke-width=".696" d="M42.447 14.383c-.016.15-.031.285-.031.435 0 .075-.016.15-.016.21 0 .075-.016.15.031.21.031.03.078.03.093 0 .047-.06.031-.135.031-.21v-.21c0-.15-.016-.285-.016-.435 0-.06-.093-.06-.093 0z"/>
<path d="M28.994 3.949c-.016.195-.031.39-.031.586 0 .09-.015.195-.015.285v.15c0 .045-.016.09.015.12 0 .015.031.015.031 0 .031-.03.031-.06.031-.105v-.15c0-.09.016-.195.016-.285.015-.195.015-.39.015-.601-.015-.03-.062-.03-.062 0z"/>
<path stroke-width=".696" d="M28.994 3.949c-.016.195-.031.39-.031.586 0 .09-.015.195-.015.285v.15c0 .045-.016.09.015.12 0 .015.031.015.031 0 .031-.03.031-.06.031-.105v-.15c0-.09.016-.195.016-.285.015-.195.015-.39.015-.601-.015-.03-.062-.03-.062 0z"/>
<path d="m3.987 6.156.047.691c.016.12.016.225.031.345.016.105 0 .21.062.3 0 .015.031.015.031 0a.713.713 0 0 0 0-.315c-.016-.12-.016-.225-.031-.345-.016-.225-.047-.45-.062-.676-.016-.045-.078-.045-.078 0z"/>
<path stroke-width=".696" d="m3.987 6.156.047.691c.016.12.016.225.031.345.016.105 0 .21.062.3 0 .015.031.015.031 0a.713.713 0 0 0 0-.315c-.016-.12-.016-.225-.031-.345-.016-.225-.047-.45-.062-.676-.016-.045-.078-.045-.078 0z"/>
<path d="M4.252 6.561c0 .195 0 .375.016.571 0 .18.016.375.062.555 0 .015.031.015.031 0 .031-.18.016-.375.016-.555-.016-.195-.016-.375-.047-.571-.016-.03-.062-.03-.078 0z"/>
<path stroke-width=".696" d="M4.252 6.561c0 .195 0 .375.016.571 0 .18.016.375.062.555 0 .015.031.015.031 0 .031-.18.016-.375.016-.555-.016-.195-.016-.375-.047-.571-.016-.03-.062-.03-.078 0z"/>
<path d="m30.887 9.602-3.11 9.969h-1.21l-2.525-7.603a10.856 10.856 0 0 1-.07-.237c-.019-.083-.039-.172-.063-.264-.023.093-.046.181-.07.264s-.046.162-.07.237l-2.539 7.603h-1.21l-3.11-9.969h1.12c.121 0 .22.03.299.09.083.06.137.137.16.23l2.059 6.929c.032.125.063.26.09.403.032.144.063.297.09.459.032-.162.065-.315.097-.459.037-.148.077-.283.118-.403l2.344-6.929a.496.496 0 0 1 .16-.216.448.448 0 0 1 .299-.104h.39c.121 0 .218.03.292.09s.13.137.167.23l2.337 6.929c.042.121.079.25.111.39.037.139.072.285.104.438a8.968 8.968 0 0 1 .167-.828l2.066-6.929a.442.442 0 0 1 .153-.223.47.47 0 0 1 .299-.097h1.05z"/>
</symbol>
<symbol id="icon-telegram" viewBox="0 0 32 32">
<path d="M29.609 3.274c-0.155-0.134-0.343-0.223-0.545-0.257s-0.409-0.013-0.6 0.061l-25.333 9.914c-0.359 0.14-0.663 0.392-0.866 0.719s-0.294 0.712-0.26 1.095c0.034 0.384 0.192 0.746 0.45 1.032s0.602 0.481 0.98 0.555l6.564 1.289v7.319c-0.001 0.399 0.117 0.788 0.34 1.119s0.54 0.587 0.91 0.735c0.369 0.151 0.776 0.187 1.166 0.104s0.747-0.282 1.023-0.57l3.165-3.283 5.021 4.395c0.362 0.321 0.829 0.499 1.314 0.5 0.212-0 0.423-0.034 0.625-0.099 0.33-0.105 0.627-0.294 0.861-0.549s0.397-0.567 0.473-0.905l5.074-22.073c0.045-0.199 0.036-0.407-0.028-0.601s-0.179-0.367-0.333-0.501zM21.967 7.774l-11.199 8.020-6.2-1.216 17.399-6.804zM11.999 25v-5.935l3.099 2.717-3.099 3.218zM22.941 26l-10.335-9.063 14.875-10.661-4.54 19.724z"></path>
</symbol>
<symbol id="icon-ticket-blank" viewBox="0 0 32 32">
<path d="M30 13.75c0.414 0 0.75-0.336 0.75-0.75v-5c0-0.414-0.336-0.75-0.75-0.75h-28c-0.414 0-0.75 0.336-0.75 0.75v5c0 0.414 0.336 0.75 0.75 0.75 1.243 0 2.25 1.007 2.25 2.25s-1.007 2.25-2.25 2.25c-0.414 0-0.75 0.336-0.75 0.75v5c0 0.414 0.336 0.75 0.75 0.75h28c0.414 0 0.75-0.336 0.75-0.75v-5c0-0.414-0.336-0.75-0.75-0.75-1.243 0-2.25-1.007-2.25-2.25s1.007-2.25 2.25-2.25zM29.25 19.674v3.576h-26.5v-3.576c1.724-0.361 3-1.869 3-3.674s-1.276-3.313-2.975-3.67l-0.024-0.004v-3.576h26.5v3.576c-1.724 0.361-3 1.869-3 3.674s1.276 3.313 2.975 3.67l0.024 0.004z"></path>
</symbol>
<symbol id="icon-close" viewBox="0 0 32 32">
<path fill="none" stroke="#fff" style="stroke: var(--color1, #fff)" stroke-linejoin="round" stroke-linecap="round" stroke-miterlimit="4" stroke-width="1.6" d="M24 8l-16 16"></path>
<path fill="none" stroke="#fff" style="stroke: var(--color1, #fff)" stroke-linejoin="round" stroke-linecap="round" stroke-miterlimit="4" stroke-width="1.6" d="M8 8l16 16"></path>
</symbol>
<symbol id="icon-Arrow-1" viewBox="0 0 195 32">
<path d="M193.415 17.414c0.78-0.781 0.78-2.047 0-2.829l-12.728-12.728c-0.781-0.781-2.048-0.781-2.829 0-0.78 0.781-0.78 2.047 0 2.828l11.315 11.314-11.315 11.314c-0.78 0.781-0.78 2.047 0 2.828 0.781 0.781 2.048 0.781 2.829 0l12.728-12.728zM0 18h192v-4h-192v4z"></path>
</symbol>
<symbol id="icon-Arrow-2" viewBox="0 0 195 32">
<path d="M1.252 14.586c-0.781 0.781-0.781 2.047 0 2.828l12.728 12.728c0.781 0.781 2.047 0.781 2.828 0s0.781-2.047 0-2.828l-11.314-11.314 11.314-11.314c0.781-0.781 0.781-2.047 0-2.828s-2.047-0.781-2.828 0l-12.728 12.728zM194.667 14h-192v4h192v-4z"></path>
</symbol>
<symbol id="icon-directions_bus" viewBox="0 0 32 32">
<path d="M9.385 26.667c-0.189 0-0.347-0.064-0.475-0.192s-0.192-0.286-0.192-0.475v-2.528c-0.434-0.188-0.885-0.589-1.351-1.201s-0.7-1.318-0.7-2.117v-12.154c0-1.383 0.749-2.396 2.246-3.037s3.859-0.963 7.087-0.963c3.344 0 5.736 0.308 7.175 0.925s2.159 1.642 2.159 3.075v12.154c0 0.798-0.233 1.504-0.7 2.117s-0.917 1.013-1.351 1.201v2.528c0 0.189-0.064 0.347-0.192 0.475s-0.286 0.192-0.475 0.192h-0.308c-0.189 0-0.347-0.064-0.475-0.192s-0.192-0.286-0.192-0.475v-2h-11.282v2c0 0.189-0.064 0.347-0.192 0.475s-0.286 0.192-0.475 0.192h-0.308zM8 14.667h16v-5.949h-16v5.949zM11.339 20.821c0.415 0 0.765-0.145 1.052-0.436s0.429-0.643 0.429-1.058-0.145-0.765-0.435-1.052c-0.29-0.286-0.643-0.429-1.058-0.429s-0.765 0.145-1.052 0.436c-0.286 0.29-0.429 0.643-0.429 1.058s0.145 0.765 0.435 1.052c0.29 0.286 0.643 0.429 1.058 0.429zM20.673 20.821c0.415 0 0.765-0.145 1.052-0.436s0.429-0.643 0.429-1.058-0.145-0.765-0.436-1.052c-0.29-0.286-0.643-0.429-1.058-0.429s-0.765 0.145-1.052 0.436c-0.286 0.29-0.429 0.643-0.429 1.058s0.145 0.765 0.436 1.052c0.29 0.286 0.643 0.429 1.058 0.429zM8.138 7.385h15.754c-0.231-0.685-0.943-1.199-2.137-1.54s-3.107-0.512-5.74-0.512c-2.617 0-4.523 0.173-5.717 0.519s-1.914 0.857-2.16 1.532zM10.667 22.667h10.667c0.733 0 1.361-0.261 1.883-0.783s0.783-1.15 0.783-1.883v-4h-16v4c0 0.733 0.261 1.361 0.783 1.883s1.15 0.783 1.883 0.783z"></path>
</symbol>
<symbol id="icon-face" viewBox="0 0 32 32">
<path d="M12 21.667c-0.467 0-0.861-0.161-1.183-0.483s-0.483-0.717-0.483-1.183c0-0.467 0.161-0.861 0.483-1.183s0.717-0.483 1.183-0.483c0.467 0 0.861 0.161 1.183 0.483s0.483 0.717 0.483 1.183c0 0.467-0.161 0.861-0.483 1.183s-0.717 0.483-1.183 0.483zM20 21.667c-0.467 0-0.861-0.161-1.183-0.483s-0.483-0.717-0.483-1.183 0.161-0.861 0.483-1.183c0.322-0.322 0.717-0.483 1.183-0.483s0.861 0.161 1.183 0.483c0.322 0.322 0.483 0.717 0.483 1.183s-0.161 0.861-0.483 1.183c-0.322 0.322-0.717 0.483-1.183 0.483zM16 29.333c2.978 0 5.5-1.033 7.567-3.1s3.1-4.589 3.1-7.567c0-0.533-0.033-1.050-0.1-1.55s-0.189-0.983-0.367-1.45c-0.467 0.111-0.933 0.194-1.4 0.25s-0.955 0.083-1.467 0.083c-2.022 0-3.933-0.433-5.733-1.3s-3.333-2.078-4.6-3.633c-0.711 1.733-1.728 3.239-3.050 4.517s-2.861 2.239-4.617 2.883v0.2c0 2.978 1.033 5.5 3.1 7.567s4.589 3.1 7.567 3.1zM12.944 8.423c1.087 2.171 2.623 3.754 4.608 4.75s3.912 1.494 5.782 1.494c0.414 0 0.821-0.021 1.221-0.063s0.798-0.111 1.195-0.206c-0.848-1.983-2.161-3.545-3.941-4.686s-3.715-1.712-5.808-1.712c-0.585 0-1.12 0.034-1.605 0.101s-0.969 0.175-1.451 0.322zM5.516 16.941c1.373-0.61 2.763-1.61 4.172-3s2.23-3.137 2.464-5.241c-1.783 0.679-3.259 1.747-4.428 3.205s-1.905 3.137-2.208 5.036zM4.567 15.279c0.485-1.776 1.337-3.341 2.555-4.696s2.689-2.36 4.414-3.017c-0.48-0.603-1.076-1.092-1.787-1.467s-1.496-0.562-2.355-0.562c-1.481 0-2.733 0.512-3.756 1.537s-1.535 2.279-1.535 3.763c0 0.934 0.226 1.788 0.677 2.561s1.047 1.4 1.787 1.88zM16.005 30.667c-1.659 0-3.22-0.315-4.68-0.945s-2.732-1.485-3.812-2.565c-1.081-1.080-1.936-2.35-2.566-3.81s-0.946-3.020-0.946-4.68c0-0.35 0.015-0.698 0.044-1.042s0.081-0.677 0.156-0.999c-1.041-0.561-1.873-1.354-2.496-2.38s-0.935-2.162-0.935-3.407c0-1.844 0.644-3.411 1.933-4.7s2.856-1.933 4.7-1.933c1.127 0 2.163 0.262 3.109 0.786s1.719 1.226 2.319 2.106c0.509-0.144 1.030-0.251 1.561-0.323s1.067-0.108 1.608-0.108c1.66 0 3.22 0.315 4.68 0.945s2.73 1.484 3.81 2.564c1.080 1.080 1.935 2.349 2.565 3.809s0.945 3.019 0.945 4.678c0 1.659-0.315 3.219-0.945 4.68s-1.484 2.732-2.564 3.812c-1.080 1.081-2.349 1.936-3.809 2.567s-3.019 0.945-4.678 0.945z"></path>
</symbol>
<symbol id="icon-id-card" viewBox="0 0 32 32">
<path d="M28 5.25h-24c-1.518 0.002-2.748 1.232-2.75 2.75v16c0.002 1.518 1.232 2.748 2.75 2.75h24c1.518-0.002 2.748-1.232 2.75-2.75v-16c-0.002-1.518-1.232-2.748-2.75-2.75zM4 6.75h24c0.69 0.001 1.249 0.56 1.25 1.25v1.25h-26.5v-1.25c0.001-0.69 0.56-1.249 1.25-1.25zM28 25.25h-24c-0.69-0.001-1.249-0.56-1.25-1.25v-13.25h26.5v13.25c-0.001 0.69-0.56 1.249-1.25 1.25zM9.645 17.628c1.455 0 2.635-1.18 2.635-2.635s-1.18-2.635-2.635-2.635-2.635 1.18-2.635 2.635c0.001 1.455 1.18 2.633 2.635 2.635zM9.645 13.858c0.627 0 1.135 0.508 1.135 1.135s-0.508 1.135-1.135 1.135-1.135-0.508-1.135-1.135c0.001-0.627 0.508-1.134 1.135-1.135zM9.645 18.811c-2.15 0.009-3.947 1.51-4.41 3.52l-0.006 0.031c-0.011 0.048-0.017 0.103-0.017 0.16 0 0.414 0.336 0.75 0.75 0.75 0.357 0 0.656-0.25 0.731-0.585l0.001-0.005c0.309-1.366 1.512-2.371 2.951-2.371s2.642 1.005 2.947 2.351l0.004 0.020c0.077 0.338 0.375 0.587 0.732 0.587 0.414 0 0.75-0.336 0.75-0.75 0-0.056-0.006-0.11-0.018-0.163l0.001 0.005c-0.469-2.041-2.265-3.541-4.414-3.551h-0.001l-0.001 0.001zM26 13.25h-8c-0.414 0-0.75 0.336-0.75 0.75s0.336 0.75 0.75 0.75h8c0.414 0 0.75-0.336 0.75-0.75s-0.336-0.75-0.75-0.75zM26 17.25h-8c-0.414 0-0.75 0.336-0.75 0.75s0.336 0.75 0.75 0.75h8c0.414 0 0.75-0.336 0.75-0.75s-0.336-0.75-0.75-0.75zM26 21.25h-8c-0.414 0-0.75 0.336-0.75 0.75s0.336 0.75 0.75 0.75h8c0.414 0 0.75-0.336 0.75-0.75s-0.336-0.75-0.75-0.75z"></path>
</symbol>
<symbol id="icon-facebook" viewBox="0 0 32 32">
<path d="M16 3c-2.571 0-5.085 0.762-7.222 2.191s-3.804 3.459-4.788 5.834c-0.984 2.375-1.241 4.989-0.74 7.511s1.74 4.838 3.558 6.656c1.818 1.818 4.134 3.056 6.656 3.558s5.136 0.244 7.511-0.74c2.375-0.984 4.406-2.65 5.834-4.788s2.191-4.651 2.191-7.222c-0.004-3.447-1.374-6.751-3.812-9.188s-5.742-3.808-9.188-3.812zM17 26.954v-7.954h3c0.265 0 0.52-0.105 0.707-0.293s0.293-0.442 0.293-0.707-0.105-0.52-0.293-0.707c-0.187-0.188-0.442-0.293-0.707-0.293h-3v-3c0-0.53 0.211-1.039 0.586-1.414s0.884-0.586 1.414-0.586h2c0.265 0 0.52-0.105 0.707-0.293s0.293-0.442 0.293-0.707-0.105-0.52-0.293-0.707c-0.187-0.188-0.442-0.293-0.707-0.293h-2c-1.061 0-2.078 0.421-2.828 1.172s-1.172 1.768-1.172 2.828v3h-3c-0.265 0-0.52 0.105-0.707 0.293s-0.293 0.442-0.293 0.707 0.105 0.52 0.293 0.707c0.188 0.188 0.442 0.293 0.707 0.293h3v7.954c-2.819-0.257-5.43-1.591-7.291-3.725s-2.827-4.902-2.698-7.73c0.129-2.828 1.343-5.497 3.389-7.453s4.768-3.047 7.599-3.047c2.831 0 5.553 1.091 7.599 3.047s3.261 4.625 3.389 7.453c0.129 2.828-0.838 5.596-2.698 7.73s-4.472 3.468-7.291 3.725z"></path>
</symbol>
<symbol id="icon-instagram" viewBox="0 0 32 32">
<path d="M16 10c-1.187 0-2.347 0.352-3.333 1.011s-1.756 1.596-2.21 2.693c-0.454 1.096-0.573 2.303-0.341 3.467s0.803 2.233 1.642 3.072c0.839 0.839 1.908 1.411 3.072 1.642s2.37 0.113 3.467-0.341c1.096-0.454 2.033-1.223 2.693-2.21s1.011-2.147 1.011-3.333c-0.002-1.591-0.634-3.116-1.759-4.241s-2.65-1.758-4.241-1.759zM16 20c-0.791 0-1.565-0.235-2.222-0.674s-1.171-1.064-1.473-1.795c-0.303-0.731-0.382-1.535-0.228-2.311s0.535-1.489 1.095-2.048c0.559-0.559 1.272-0.94 2.048-1.095s1.58-0.075 2.311 0.228c0.731 0.303 1.356 0.815 1.795 1.473s0.674 1.431 0.674 2.222c0 1.061-0.421 2.078-1.172 2.828s-1.768 1.172-2.828 1.172zM22 3h-12c-1.856 0.002-3.635 0.74-4.948 2.052s-2.050 3.092-2.052 4.948v12c0.002 1.856 0.74 3.635 2.052 4.948s3.092 2.050 4.948 2.052h12c1.856-0.002 3.635-0.74 4.948-2.052s2.050-3.092 2.052-4.948v-12c-0.002-1.856-0.74-3.635-2.052-4.948s-3.092-2.050-4.948-2.052zM27 22c0 1.326-0.527 2.598-1.465 3.535s-2.209 1.465-3.535 1.465h-12c-1.326 0-2.598-0.527-3.536-1.465s-1.464-2.209-1.464-3.535v-12c0-1.326 0.527-2.598 1.464-3.536s2.209-1.464 3.536-1.464h12c1.326 0 2.598 0.527 3.535 1.464s1.465 2.209 1.465 3.536v12zM24 9.5c0 0.297-0.088 0.587-0.253 0.833s-0.399 0.439-0.673 0.552c-0.274 0.114-0.576 0.143-0.867 0.085s-0.558-0.201-0.768-0.411-0.353-0.477-0.411-0.768c-0.058-0.291-0.028-0.593 0.085-0.867s0.306-0.508 0.553-0.673 0.537-0.253 0.833-0.253c0.398 0 0.779 0.158 1.061 0.439s0.439 0.663 0.439 1.061z"></path>
</symbol>
<symbol id="icon-menu" viewBox="0 0 32 32">
<path fill="none" stroke="#fff" style="stroke: var(--color1, #fff)" stroke-linejoin="round" stroke-linecap="round" stroke-miterlimit="4" stroke-width="1.6" d="M6.666 22.667h10.667M6.666 16h18.667M14.666 9.333h10.667"></path>
</symbol>
</defs>
</svg>
