<!-- Generated by IcoMoon.io -->
<svg version="1.1" xmlns="http://www.w3.org/2000/svg" width="39" height="32" viewBox="0 0 39 32">
<title>wheatear</title>
<path d="M11.931 21.276c1.94-1.494 5.763-1.9 7.734-0.297 0.086 0.075 0.066 0.191-0.009 0.278-0.847 0.729-1.792 1.221-2.812 1.461 1.273 0.024 2.495-0.12 3.645-0.756 0.046-0.032 0.093 0.036 0.048 0.068-1.419 1.027-3.277 1.040-5.016 0.834-0.039-0.007-0.1 0.002-0.162 0.012-1.218 0.005-2.798-0.312-3.599-1.31-0.080-0.114 0.041-0.232 0.157-0.212-0.016-0.023-0.009-0.061 0.014-0.077zM16.322 22.506c0.731-0.071 1.441-0.365 2.081-0.712 0.617-0.33 1.111-0.643 0.294-0.986-1.923-0.856-4.915-0.524-6.671 0.604 0 0 0 0-0.023 0.016 0.942 1.103 2.996 1.224 4.318 1.078z"></path>
<path d="M15.088 22.149c0.23-0.059 0.453-0.080 0.683-0.139 0.207-0.043 0.421-0.126 0.628-0.169 0.061-0.009 0.102 0.098 0.018 0.123-0.405 0.148-0.909 0.399-1.334 0.324-0.055-0.030-0.057-0.13 0.005-0.139z"></path>
<path d="M15.492 21.562c0.107-0.041 0.157 0.127 0.050 0.168-0.46 0.119-0.92 0.237-1.389 0.295-0.084 0.025-0.118-0.12-0.034-0.146 0.46-0.119 0.913-0.199 1.373-0.317z"></path>
<path d="M14.155 21.447c0.107-0.041 0.157 0.127 0.050 0.168-0.398 0.11-0.742 0.249-1.125 0.381-0.084 0.025-0.164-0.089-0.073-0.152 0.319-0.223 0.749-0.287 1.148-0.397z"></path>
<path d="M12.999 21.443c0.107-0.041 0.157 0.127 0.050 0.168-0.153 0.073-0.282 0.13-0.444 0.141-0.1 0.002-0.102-0.098-0.034-0.146 0.168-0.050 0.314-0.084 0.428-0.164z"></path>
<path d="M16.258 18.246c1.94-1.494 5.763-1.9 7.734-0.297 0.086 0.075 0.066 0.191-0.009 0.278-0.847 0.729-1.792 1.221-2.812 1.461 1.25 0.040 2.472-0.104 3.645-0.756 0.046-0.032 0.093 0.036 0.048 0.068-1.419 1.027-3.277 1.040-5.016 0.834-0.062 0.009-0.1 0.002-0.162 0.012-1.218 0.005-2.798-0.312-3.599-1.31-0.080-0.114 0.041-0.232 0.157-0.212-0.016-0.023-0.032-0.046 0.014-0.077zM20.626 19.492c0.731-0.071 1.441-0.365 2.081-0.712 0.617-0.33 1.111-0.643 0.294-0.986-1.923-0.857-4.915-0.524-6.671 0.603 0 0 0 0-0.023 0.016 0.942 1.103 2.995 1.224 4.318 1.078z"></path>
<path d="M19.415 19.12c0.23-0.059 0.453-0.080 0.683-0.139 0.207-0.043 0.421-0.125 0.628-0.169 0.062-0.009 0.102 0.098 0.018 0.123-0.405 0.148-0.909 0.399-1.334 0.324-0.055-0.030-0.080-0.114 0.005-0.139z"></path>
<path d="M19.796 18.548c0.107-0.041 0.157 0.127 0.050 0.168-0.46 0.119-0.92 0.237-1.389 0.295-0.084 0.025-0.118-0.121-0.034-0.146 0.46-0.119 0.913-0.199 1.373-0.317z"></path>
<path d="M18.459 18.433c0.107-0.041 0.157 0.127 0.050 0.168-0.398 0.11-0.742 0.249-1.125 0.381-0.084 0.025-0.164-0.089-0.073-0.152 0.319-0.223 0.772-0.303 1.148-0.397z"></path>
<path d="M17.326 18.413c0.107-0.041 0.157 0.127 0.050 0.168-0.152 0.073-0.282 0.13-0.444 0.141-0.1 0.002-0.102-0.098-0.034-0.146 0.146-0.034 0.314-0.084 0.428-0.164z"></path>
<path d="M20.54 15.248c1.781-1.383 5.296-1.743 7.11-0.267 0.086 0.075 0.066 0.191-0.002 0.239-0.779 0.681-1.633 1.109-2.569 1.324 1.15 0.042 2.272-0.1 3.354-0.687 0.046-0.032 0.093 0.036 0.048 0.068-1.328 0.964-3.024 0.965-4.647 0.779-0.039-0.007-0.1 0.002-0.139-0.004-1.118 0.003-2.582-0.294-3.319-1.201-0.080-0.114 0.018-0.216 0.134-0.196 0 0 0.007-0.039 0.030-0.055zM24.589 16.378c0.669-0.062 1.334-0.324 1.913-0.661 0.572-0.299 1.020-0.579 0.28-0.908-1.775-0.791-4.521-0.495-6.125 0.56 0 0 0 0-0.023 0.016 0.856 1.028 2.731 1.138 3.954 0.994z"></path>
<path d="M23.433 16.035c0.207-0.043 0.43-0.064 0.622-0.13s0.383-0.132 0.567-0.16c0.061-0.009 0.086 0.075 0.018 0.123-0.36 0.116-0.824 0.374-1.227 0.283-0.023 0.016-0.041-0.107 0.020-0.116z"></path>
<path d="M23.822 15.525c0.084-0.025 0.157 0.127 0.057 0.13-0.437 0.103-0.858 0.228-1.305 0.27-0.061 0.009-0.102-0.098-0.018-0.123 0.398-0.11 0.829-0.174 1.266-0.276z"></path>
<path d="M22.586 15.408c0.084-0.025 0.157 0.127 0.050 0.168-0.337 0.1-0.681 0.239-1.041 0.356-0.084 0.025-0.125-0.082-0.057-0.13 0.28-0.23 0.695-0.317 1.047-0.395z"></path>
<path d="M21.53 15.402c0.107-0.041 0.141 0.105 0.050 0.168-0.13 0.057-0.26 0.114-0.405 0.148-0.1 0.002-0.102-0.098-0.034-0.146 0.152-0.073 0.26-0.114 0.389-0.171z"></path>
<path d="M24.502 12.473c1.781-1.383 5.296-1.743 7.11-0.267 0.086 0.075 0.066 0.191-0.002 0.239-0.756 0.665-1.633 1.109-2.569 1.324 1.15 0.042 2.288-0.077 3.354-0.687 0.045-0.032 0.093 0.036 0.048 0.068-1.328 0.964-3.024 0.965-4.624 0.763-0.062 0.009-0.1 0.002-0.162 0.012-1.118 0.003-2.582-0.294-3.319-1.201-0.080-0.114 0.018-0.216 0.134-0.196 0.023-0.016 0.007-0.039 0.030-0.055zM28.552 13.603c0.669-0.062 1.334-0.324 1.913-0.661 0.572-0.299 1.020-0.579 0.28-0.908-1.775-0.791-4.521-0.495-6.125 0.56 0 0 0 0-0.023 0.016 0.856 1.028 2.731 1.138 3.954 0.994z"></path>
<path d="M27.395 13.261c0.207-0.043 0.43-0.064 0.622-0.13s0.383-0.132 0.567-0.16c0.061-0.009 0.086 0.075 0.018 0.123-0.36 0.116-0.824 0.374-1.227 0.283 0 0-0.041-0.107 0.020-0.116z"></path>
<path d="M27.785 12.751c0.084-0.025 0.157 0.127 0.057 0.13-0.437 0.103-0.858 0.228-1.305 0.27-0.061 0.009-0.102-0.098-0.018-0.123 0.398-0.11 0.852-0.189 1.266-0.276z"></path>
<path d="M26.549 12.633c0.084-0.025 0.157 0.127 0.050 0.168-0.337 0.1-0.681 0.239-1.041 0.356-0.084 0.025-0.125-0.082-0.057-0.13 0.28-0.23 0.695-0.317 1.047-0.395z"></path>
<path d="M25.493 12.627c0.107-0.041 0.141 0.105 0.050 0.168-0.13 0.057-0.26 0.114-0.405 0.148-0.1 0.002-0.102-0.098-0.034-0.146 0.153-0.073 0.26-0.114 0.389-0.171z"></path>
<path d="M28.465 9.699c1.524-1.169 4.493-1.485 6.047-0.234 0.071 0.052 0.050 0.168-0.018 0.216-0.658 0.563-1.405 0.95-2.195 1.13 0.972 0.031 1.949-0.077 2.855-0.576 0.023-0.016 0.077 0.014 0.032 0.046-1.123 0.82-2.557 0.807-3.925 0.647-0.039-0.007-0.1 0.002-0.139-0.004-0.956-0.008-2.172-0.242-2.814-1.013-0.064-0.091 0.012-0.178 0.112-0.18 0.039 0.007 0.023-0.016 0.046-0.032zM31.902 10.681c0.569-0.060 1.127-0.281 1.614-0.554s0.884-0.483 0.237-0.776c-1.495-0.682-3.857-0.418-5.209 0.461 0.721 0.885 2.303 0.963 3.358 0.869z"></path>
<path d="M30.939 10.373c0.184-0.027 0.369-0.055 0.537-0.105s0.337-0.1 0.483-0.135c0.061-0.009 0.086 0.075 0.025 0.084-0.298 0.107-0.695 0.317-1.043 0.256-0.039-0.007-0.064-0.091-0.002-0.1z"></path>
<path d="M31.238 9.926c0.084-0.025 0.141 0.105 0.057 0.13-0.376 0.094-0.713 0.194-1.097 0.226-0.062 0.009-0.102-0.098-0.018-0.123 0.353-0.078 0.706-0.155 1.059-0.233z"></path>
<path d="M30.195 9.843c0.084-0.025 0.141 0.105 0.057 0.13-0.314 0.084-0.574 0.198-0.872 0.306-0.061 0.009-0.109-0.059-0.041-0.107 0.235-0.198 0.565-0.26 0.856-0.328z"></path>
<path d="M29.3 9.825c0.068-0.048 0.125 0.082 0.057 0.13-0.107 0.041-0.221 0.121-0.36 0.116-0.062 0.009-0.087-0.075-0.018-0.123 0.107-0.041 0.23-0.059 0.321-0.123z"></path>
<path d="M9.943 22.702c-0.021 0.116-0.173 0.189-0.253 0.075-0.664-1.094-0.422-2.687-0.001-3.83 0.030-0.055 0.036-0.093 0.066-0.148 0.402-1.705 1.049-3.446 2.5-4.428 0.046-0.032 0.093 0.036 0.048 0.068-1.014 0.879-1.545 1.963-1.957 3.167 0.574-0.877 1.344-1.619 2.335-2.143 0.091-0.064 0.223-0.021 0.264 0.086 0.848 2.423-0.857 5.854-2.924 7.166-0.023 0.016-0.061 0.009-0.077-0.014zM9.925 22.579c1.683-1.28 2.996-3.962 2.849-6.062-0.082-0.892-0.505-0.528-1.027-0.061-0.544 0.483-1.064 1.050-1.38 1.712-0.59 1.193-1.194 3.141-0.441 4.41z"></path>
<path d="M10.279 19.45c0.134-0.196 0.23-0.398 0.364-0.594 0.112-0.18 0.262-0.353 0.374-0.533 0.030-0.055-0.057-0.13-0.109-0.059-0.278 0.33-0.686 0.717-0.761 1.143 0.009 0.061 0.102 0.098 0.132 0.043z"></path>
<path d="M10.953 19.249c0.075-0.086-0.066-0.191-0.141-0.105-0.269 0.392-0.538 0.783-0.752 1.204-0.052 0.071 0.073 0.152 0.125 0.082 0.285-0.369 0.515-0.767 0.768-1.182z"></path>
<path d="M10.62 20.567c0.075-0.087-0.066-0.191-0.141-0.105-0.239 0.337-0.488 0.613-0.743 0.927-0.052 0.071 0.027 0.184 0.118 0.12 0.303-0.246 0.549-0.622 0.765-0.943z"></path>
<path d="M10.212 21.632c0.075-0.087-0.066-0.191-0.141-0.105-0.121 0.118-0.219 0.221-0.285 0.369-0.037 0.093 0.057 0.13 0.125 0.082 0.121-0.118 0.203-0.244 0.301-0.346z"></path>
<path d="M14.247 19.688c-0.021 0.116-0.173 0.189-0.253 0.075-0.664-1.094-0.422-2.687-0.001-3.83 0.030-0.055 0.037-0.093 0.066-0.148 0.402-1.705 1.049-3.446 2.5-4.428 0.046-0.032 0.093 0.036 0.048 0.068-1.013 0.879-1.544 1.963-1.957 3.167 0.574-0.877 1.344-1.619 2.335-2.143 0.091-0.064 0.223-0.021 0.264 0.086 0.855 2.384-0.834 5.838-2.902 7.15-0.046 0.032-0.061 0.009-0.1 0.002zM14.229 19.565c1.683-1.28 2.996-3.962 2.849-6.062-0.082-0.892-0.505-0.528-1.027-0.061-0.544 0.483-1.064 1.050-1.38 1.712-0.59 1.193-1.194 3.141-0.441 4.411z"></path>
<path d="M14.606 16.42c0.134-0.196 0.23-0.398 0.365-0.594 0.112-0.18 0.262-0.353 0.374-0.533 0.030-0.055-0.057-0.13-0.109-0.059-0.278 0.33-0.686 0.717-0.761 1.143 0.009 0.061 0.080 0.114 0.132 0.043z"></path>
<path d="M15.257 16.235c0.075-0.087-0.066-0.191-0.141-0.105-0.269 0.392-0.538 0.783-0.752 1.204-0.052 0.071 0.073 0.152 0.125 0.082 0.285-0.369 0.538-0.783 0.768-1.182z"></path>
<path d="M14.924 17.553c0.075-0.087-0.066-0.191-0.141-0.105-0.239 0.337-0.488 0.613-0.743 0.927-0.052 0.071 0.027 0.184 0.118 0.12 0.303-0.246 0.549-0.622 0.765-0.943z"></path>
<path d="M14.539 18.602c0.075-0.087-0.066-0.191-0.141-0.105-0.121 0.118-0.219 0.221-0.285 0.369-0.036 0.093 0.057 0.13 0.125 0.082 0.098-0.102 0.203-0.244 0.301-0.346z"></path>
<path d="M18.551 16.674c-0.021 0.116-0.15 0.173-0.23 0.059-0.601-1.003-0.363-2.457 0.006-3.53 0.030-0.055 0.037-0.093 0.066-0.148 0.374-1.55 0.962-3.182 2.299-4.084 0.046-0.032 0.093 0.036 0.048 0.068-0.922 0.815-1.417 1.806-1.793 2.916 0.522-0.806 1.239-1.478 2.146-1.977 0.068-0.048 0.184-0.027 0.225 0.079 0.759 2.248-0.774 5.389-2.69 6.629-0.023 0.016-0.039-0.007-0.077-0.014zM18.533 16.551c1.546-1.184 2.763-3.664 2.605-5.586-0.056-0.808-0.473-0.482-0.949-0.047-0.499 0.451-0.966 0.947-1.276 1.571-0.515 1.106-1.053 2.907-0.38 4.062z"></path>
<path d="M18.862 13.677c0.112-0.18 0.207-0.383 0.335-0.54s0.255-0.314 0.344-0.478c0.030-0.055-0.041-0.107-0.109-0.059-0.232 0.298-0.633 0.647-0.686 1.056-0.007 0.039 0.087 0.075 0.116 0.020z"></path>
<path d="M19.491 13.508c0.052-0.071-0.066-0.191-0.102-0.098-0.246 0.376-0.508 0.729-0.699 1.134-0.030 0.055 0.057 0.13 0.109 0.059 0.239-0.337 0.447-0.719 0.693-1.095z"></path>
<path d="M19.178 14.71c0.052-0.071-0.066-0.191-0.141-0.105-0.21 0.282-0.458 0.558-0.69 0.856-0.052 0.071 0.034 0.146 0.102 0.098 0.312-0.184 0.519-0.567 0.729-0.849z"></path>
<path d="M18.823 15.704c0.075-0.087-0.050-0.168-0.141-0.105-0.098 0.102-0.196 0.205-0.278 0.33-0.036 0.093 0.057 0.13 0.125 0.082 0.121-0.118 0.18-0.228 0.294-0.307z"></path>
<path d="M22.514 13.899c-0.020 0.116-0.15 0.173-0.23 0.059-0.601-1.003-0.363-2.457 0.006-3.53 0.030-0.055 0.037-0.093 0.066-0.148 0.374-1.55 0.962-3.182 2.299-4.084 0.046-0.032 0.093 0.036 0.048 0.068-0.922 0.815-1.417 1.806-1.793 2.916 0.522-0.806 1.239-1.478 2.146-1.977 0.068-0.048 0.184-0.027 0.225 0.079 0.766 2.209-0.774 5.389-2.683 6.59-0.030 0.055-0.046 0.032-0.084 0.025zM22.496 13.776c1.546-1.185 2.763-3.664 2.605-5.586-0.056-0.808-0.473-0.482-0.949-0.047-0.499 0.451-0.966 0.947-1.276 1.571-0.515 1.106-1.053 2.907-0.38 4.062z"></path>
<path d="M22.825 10.902c0.112-0.18 0.207-0.383 0.335-0.54s0.255-0.314 0.344-0.478c0.030-0.055-0.041-0.107-0.109-0.059-0.232 0.298-0.633 0.647-0.686 1.056 0.016 0.023 0.087 0.075 0.116 0.020z"></path>
<path d="M23.454 10.733c0.052-0.071-0.066-0.191-0.102-0.098-0.246 0.376-0.508 0.729-0.699 1.134-0.030 0.055 0.057 0.13 0.109 0.059 0.262-0.353 0.469-0.735 0.693-1.095z"></path>
<path d="M23.141 11.935c0.052-0.071-0.066-0.191-0.141-0.105-0.21 0.282-0.458 0.558-0.69 0.856-0.052 0.071 0.034 0.146 0.102 0.098 0.312-0.185 0.519-0.567 0.729-0.849z"></path>
<path d="M22.785 12.93c0.075-0.087-0.050-0.168-0.141-0.105-0.098 0.102-0.196 0.205-0.278 0.33-0.036 0.093 0.057 0.13 0.125 0.082 0.121-0.118 0.18-0.228 0.294-0.307z"></path>
<path d="M26.5 11.109c-0.014 0.077-0.143 0.134-0.207 0.043-0.528-0.851-0.309-2.089 0.011-2.99 0.007-0.039 0.036-0.093 0.043-0.132 0.317-1.341 0.819-2.709 1.95-3.467 0.046-0.032 0.055 0.030 0.032 0.045-0.779 0.681-1.214 1.562-1.517 2.486 0.44-0.681 1.059-1.25 1.813-1.676 0.068-0.048 0.162-0.011 0.209 0.057 0.643 1.888-0.653 4.593-2.288 5.602-0.014 0.077-0.030 0.055-0.046 0.032zM26.475 11.024c1.312-0.986 2.344-3.099 2.238-4.753-0.054-0.708-0.387-0.407-0.811-0.043-0.446 0.38-0.822 0.813-1.073 1.327-0.488 0.952-0.939 2.488-0.354 3.468z"></path>
<path d="M26.767 8.582c0.089-0.164 0.178-0.328 0.282-0.469s0.21-0.282 0.292-0.408c0.030-0.055-0.041-0.107-0.071-0.052-0.203 0.244-0.535 0.544-0.597 0.893-0.007 0.039 0.064 0.091 0.093 0.036z"></path>
<path d="M27.273 8.432c0.052-0.071-0.050-0.168-0.102-0.098-0.216 0.321-0.426 0.603-0.588 0.954-0.030 0.055 0.041 0.107 0.109 0.059 0.21-0.282 0.387-0.61 0.581-0.915z"></path>
<path d="M27.010 9.463c0.052-0.071-0.050-0.168-0.102-0.098-0.187 0.266-0.383 0.471-0.585 0.715-0.030 0.055 0.018 0.123 0.086 0.075 0.266-0.153 0.437-0.442 0.601-0.692z"></path>
<path d="M26.705 10.287c0.068-0.048-0.034-0.146-0.102-0.098-0.075 0.087-0.189 0.166-0.232 0.298-0.030 0.055 0.041 0.107 0.109 0.059 0.075-0.087 0.15-0.173 0.226-0.26z"></path>
<path d="M34.828 4.633c0.228-0.159 0.462-0.358 0.69-0.517 0.091-0.064 0.187 0.073 0.096 0.136-0.212 0.182-0.43 0.403-0.674 0.54-0.199 1.122-0.832 2.108-1.766 2.762-0.615 0.431-1.521 0.93-2.325 0.848-0.023 0.016-0.046 0.032-0.068 0.048-0.184 0.027-0.369 0.055-0.553 0.082-0.084 0.025-0.164-0.089-0.166-0.189 0.431-2.098 2.561-4.098 4.767-3.711zM30.674 7.474c-0.185 0.367-0.342 0.578-0.101 0.68 0.854 0.25 1.78-0.365 2.48-0.821 0.319-0.223 2.082-2.407 1.517-2.486-1.106-0.174-2.2 0.591-2.947 1.318-0.43 0.403-0.729 0.849-0.95 1.309z"></path>
<path d="M32.335 6.209c-0.048 0.271-0.212 0.521-0.369 0.733-0.030 0.055-0.139-0.004-0.109-0.059 0.102-0.241 0.244-0.476 0.346-0.717 0.030-0.055 0.162-0.011 0.132 0.043z"></path>
<path d="M31.57 6.813c-0.034 0.193-0.123 0.357-0.251 0.514-0.052 0.071-0.139-0.004-0.087-0.075 0.105-0.141 0.178-0.328 0.244-0.476 0.007-0.039 0.123-0.018 0.093 0.036z"></path>
<path d="M30.943 7.76c-0.037 0.093-0.050 0.171-0.064 0.248-0.020 0.116-0.175 0.089-0.155-0.027s0.034-0.193 0.109-0.28c0.037-0.093 0.146-0.034 0.109 0.059z"></path>
<path d="M5.685 24.328c0.075-0.087 0.2-0.005 0.164 0.089-0.155 0.312-0.301 0.685-0.495 0.99 0.205-0.143 0.433-0.303 0.654-0.424 1.002-0.702 1.995-1.465 3.093-2.030 0.068-0.048 0.148 0.066 0.096 0.136-0.665 0.601-1.394 1.112-2.145 1.638 0.667-0.162 1.362-0.14 1.947 0.162 0.039 0.007 0.009 0.061-0.030 0.055-1.248-0.279-2.186 0.175-3.215 0.692-0.827 0.613-1.653 1.226-2.514 1.693-0.198 0.105-0.357-0.123-0.191-0.273 0.424-0.364 0.886-0.722 1.341-1.041 0.189-0.166 0.378-0.332 0.551-0.522 0.339-0.339 0.46-0.797 0.745-1.166z"></path>
</svg>
